<?xml version="1.0" encoding="UTF-8" standalone="no"?>
<!-- Created with Inkscape (http://www.inkscape.org/) -->

<svg
   width="148mm"
   height="105mm"
   viewBox="0 0 148 105"
   version="1.1"
   id="svg1"
   xmlns="http://www.w3.org/2000/svg"
   xmlns:svg="http://www.w3.org/2000/svg">
  <defs
     id="defs1" />
  <g
     id="layer1">
    <path
       style="fill:#008000;stroke-width:0.264583"
       d="m 20.576807,32.668333 c 0,12.091525 -0.212132,11.879393 -0.212132,11.879393 l 2.969849,-0.212132 v -4.879036 l 5.939695,-0.212132 -0.212129,-2.121321 -5.303302,-0.212132 v -1.484924 l 5.091169,-0.212132 -0.212132,-2.545583 z"
       id="path1" />
    <path
       style="fill:#008000;stroke-width:0.238025"
       d="m 30.570236,40.341317 c -1.746423,-8.095768 9.79415,-8.734349 9.79415,-8.734349 0,0 1.268722,12.26258 -4.134923,12.738307 -5.403643,0.475726 -5.659227,-4.003958 -5.659227,-4.003958 z"
       id="path9" />
    <path
       style="fill:#008000;stroke-width:0.238025"
       d="m 32.403444,41.123496 -4.972829,4.036852 1.474656,1.622523 4.972832,-4.036853 z"
       id="path10" />
    <path
       style="fill:#008000;stroke-width:0.255272"
       d="m 41.993132,36.047615 -1.3532,7.941493 2.825522,0.133786 0.05291,-4.489512 3.4414,4.877338 3.727267,0.413679 -4.252929,-5.686664 c 0,0 4.959792,-1.247679 4.997481,-2.861831 0.03768,-1.614155 -0.443068,-4.36474 -3.704425,-4.726711 -3.261361,-0.361971 -5.175888,0.642473 -5.175888,0.642473 z"
       id="path11" />
    <path
       style="fill:#008000;stroke-width:0.255272"
       d="m 98.029689,34.827697 -1.853059,7.839938 2.811391,0.312329 0.33692,-4.477164 3.125839,5.085348 3.69362,0.648727 -3.88453,-5.944409 c 0,0 5.02881,-0.931301 5.16858,-2.539833 0.13977,-1.608533 -0.16597,-4.38403 -3.39788,-4.951668 -3.23192,-0.567638 -6.10617,-0.436367 -6.10617,-0.436367 z"
       id="path11-8" />
    <path
       style="fill:#008000;stroke-width:0.264583"
       d="M 52.355802,32.166862 C 52.14367,44.258389 52.14367,44.258389 52.14367,44.258389 h 3.394112 l 0.212132,-6.576094 2.545586,3.606244 h 1.272791 l 1.484924,-2.969847 0.424264,6.15183 2.757718,-0.424265 -0.424265,-12.30366 -4.242641,-0.212132 -0.848527,4.030509"
       id="path12" />
    <path
       style="fill:#008000;stroke-width:0.264583"
       d="m 66.900001,32.25 c 0,0 -0.749999,13.95 6.000001,11.850002 6.75,-2.1 4.499999,-11.850002 4.499999,-11.850002 l -2.849999,0.15 c 0,0 1.349999,9.150001 -1.349999,8.850001 -2.700002,-0.300001 -2.700002,-8.4 -2.700002,-8.4 z"
       id="path13" />
    <path
       style="fill:#008000;stroke-width:0.288659"
       d="M 79.050001,32.300706 79.508183,44.400002 87.45,43.873944 87.144545,41.243665 81.799093,41.068313 81.951818,31.950001 Z"
       id="path14" />
    <path
       style="fill:#008000;stroke-width:0.264583"
       d="m 85.950002,33.450001 c 0.299998,7.05 0.299998,7.05 0.299998,7.05 l 7.800002,0.3 -0.600001,-6.449999 3.6,0.15 -6.75,-7.2 L 82.65,33.150003 Z"
       id="path15" />
    <path
       style="fill:#008000;stroke-width:0.264583"
       d="m 107.25,37.500001 0.75,6.900001 h 2.55 L 110.1,32.55 Z"
       id="path16" />
    <text
       xml:space="preserve"
       style="font-size:24.5057px;line-height:1.4;text-align:start;writing-mode:lr-tb;direction:ltr;text-anchor:start;fill:#008000;stroke-width:0.255267"
       x="114.62701"
       y="43.560345"
       id="text17"
       transform="scale(0.96479157,1.0364933)"><tspan
         id="tspan17"
         style="font-style:normal;font-variant:normal;font-weight:normal;font-stretch:normal;font-size:24.5057px;line-height:1.4;font-family:'Bauhaus 93';-inkscape-font-specification:'Bauhaus 93, ';stroke-width:0.255267"
         x="114.62701"
         y="43.560345">o</tspan></text>
  </g>
</svg>
