<?xml version="1.0" encoding="UTF-8" standalone="no"?>
<!-- Created with Inkscape (http://www.inkscape.org/) -->

<svg
   width="48"
   height="48"
   viewBox="0 0 12.7 12.7"
   version="1.1"
   id="svg1"
   xmlns="http://www.w3.org/2000/svg"
   xmlns:svg="http://www.w3.org/2000/svg">
  <defs
     id="defs1" />
  <g
     id="layer1">
    <path
       style="fill:#389b3c;fill-opacity:1;stroke-width:0.023959"
       d="M 1.5215005,4.466668 C 0.0375378,7.3416653 2.759068,6.1196697 2.759068,6.1196697 L 2.8813161,5.5946954 2.3772682,5.871484 1.7568776,5.8555272 1.6283105,5.2826746 1.9028773,4.859311 2.8874083,4.4228589 2.4352405,4.0661402 Z"
       id="path1" />
    <path
       style="fill:#389b3c;fill-opacity:1;stroke-width:0.0205494"
       d="m 4.2646101,4.7150166 c 0,0 -0.4366377,-1.0016843 -0.8775867,-0.5933424 C 2.9460749,4.5300168 2.97606,4.5453408 2.97606,4.5453408 c 0,0 -0.2128661,0.1084787 -0.078603,0.7745772 0.1342633,0.666098 0.9308032,0.5662224 0.9308032,0.5662224 l 0.2065591,-0.56434 c 0,0 -1.0162016,0.086438 -0.1718962,0.056994 0.3014434,-0.010508 -0.6381509,-0.072655 -0.6381509,-0.072655 l -0.024492,-0.048727 z"
       id="path26" />
    <path
       style="fill:#389b3c;fill-opacity:1;stroke-width:0.0205494"
       d="m 5.4003215,7.1848631 c 0,0 -0.4366377,-1.0016843 -0.8775867,-0.5933424 -0.4409485,0.4083426 -0.4109633,0.4236666 -0.4109633,0.4236666 0,0 -0.2128662,0.1084787 -0.078603,0.7745772 0.1342631,0.666098 0.9308031,0.5662224 0.9308031,0.5662224 l 0.2065591,-0.56434 c 0,0 -1.0162016,0.086438 -0.1718961,0.056994 0.3014433,-0.010508 -0.6381509,-0.072655 -0.6381509,-0.072655 l -0.024492,-0.048727 z"
       id="path26-9" />
    <path
       style="fill:#389b3c;fill-opacity:1;stroke-width:0.0251006"
       d="M 4.4027841,6.1536179 C 4.5224513,6.0994713 4.3728673,4.5291125 4.3728673,4.5291125 L 5.0908704,4.1229864 6.0482079,5.0435398 5.3900383,5.2872149 6.1598973,5.9391548 5.300288,5.882873 c 0,0 -0.299168,-0.7039523 -0.3290849,-0.595652 -0.029916,0.1083055 -0.1495839,0.8664028 -0.1495839,0.8664028 z"
       id="path27" />
    <path
       style="fill:#389b3c;fill-opacity:1;stroke-width:0.0251006"
       d="M 9.2232052,5.7825958 C 9.3428723,5.7284492 9.1932882,4.1580904 9.1932882,4.1580904 l 0.7180027,-0.4061261 0.9573391,0.9205534 -0.65817,0.2436752 0.769859,0.6519397 -0.85961,-0.056282 c 0,0 -0.299168,-0.7039522 -0.3290849,-0.5956519 -0.029918,0.1083055 -0.1495839,0.8664028 -0.1495839,0.8664028 z"
       id="path27-8" />
    <path
       style="fill:#389b3c;fill-opacity:1;stroke-width:0.0251006"
       d="M 5.9257487,5.5602943 C 6.0505758,5.51964 6.2369745,4.417029 6.2369745,4.417029 L 6.8345839,3.9355789 7.5567979,4.7351386 7.0056056,5.1257542 7.7000983,5.8585016 6.8517457,5.7079691 c 0,0 -0.2209759,-0.7326557 -0.2624675,-0.6282959 -0.041498,0.1043625 -0.242718,0.8447546 -0.242718,0.8447546 z"
       id="path27-6" />
    <path
       style="fill:#389b3c;fill-opacity:1;stroke-width:0.0264155"
       d="M 7.6946607,4.2632954 V 4.1234603 c 0,0 0.4170052,-0.4195016 0.9943982,-0.027972 0.5773922,0.3915353 0.3849286,0.8110381 0.3849286,0.8110381 0.021383,-0.06403 0.042766,0.3545518 0.064159,1.034772 H 8.592827 L 8.2720532,5.4379013 c 0,0 0.9302427,-0.5313692 0.2245418,0 C 7.7908926,5.9692706 7.82297,5.8853704 7.82297,5.8853704 L 7.3097322,5.3260337 7.6946607,4.822632 8.3362074,4.8785647 8.3041297,4.4870293 7.8229693,4.570934 Z"
       id="path22" />
    <path
       style="fill:#389b3c;fill-opacity:1;stroke-width:0.0171547"
       d="M 2.6884926,7.0756196 3.8390797,6.9089371 c 0,0 -0.00249,-0.2417312 -0.078474,-0.3240369 -0.075975,-0.082309 -1.0822368,0.00345 -1.0822368,0.00345 L 1.956252,7.0602826 2.3018923,7.793258 3.1174792,7.8625426 3.1150848,7.9794603 2.8637569,8.169908 2.0920463,8.0838 c 0,0 0.079724,0.4449024 0.2874098,0.5503794 C 2.587141,8.7396575 3.3879743,8.6909584 3.4496218,8.5983964 3.4775918,8.5564024 3.5743907,8.4413749 3.6718071,8.328226 3.7891124,8.1919776 3.8788011,8.0103338 3.8788011,8.0103338 L 3.8103456,7.7698164 3.5987408,7.4299629 2.8747245,7.339966 Z"
       id="path11" />
    <path
       style="fill:#389b3c;fill-opacity:1;stroke-width:0.0171547"
       d="M 5.9965499,6.6876738 7.1254653,6.408624 c 0,0 -0.025927,-0.2403303 -0.1095334,-0.314769 -0.083597,-0.074442 -1.0767263,0.1098802 -1.0767263,0.1098802 l -0.6728831,0.5406937 0.4150921,0.6954753 0.8184079,-0.011261 0.00896,0.1165938 -0.2316513,0.2142561 -0.7763733,-0.0098 c 0,0 0.1225015,0.4349337 0.3394265,0.5194798 C 6.0571079,8.3537219 6.8493874,8.2264919 6.9017607,8.128309 6.9255236,8.0837646 7.0107008,7.959767 7.0966748,7.8375779 7.2002021,7.6904436 7.271841,7.5008472 7.271841,7.5008472 L 7.1803807,7.2682128 6.9368192,6.9507966 6.207535,6.9324396 Z"
       id="path11-2" />
    <path
       style="fill:#389b3c;stroke-width:0.316284"
       d="m 7.4381693,6.6624707 c 0,1.431325 0,1.431325 0,1.431325 h 0.600189 L 7.9120028,6.7578922 Z"
       id="path10" />
    <path
       style="fill:#389b3c;stroke-width:0.17271"
       d="M 9.092973,5.9938805 8.4700538,6.4471162 8.6737042,6.7101634 C 8.9105673,6.5630288 9.0703464,6.3993201 9.212223,6.2317642 Z"
       id="path10-1" />
    <path
       style="fill:#389b3c;stroke-width:0.381467"
       d="M 9.5764951,6.5305634 C 10.098789,8.148844 10.098789,8.148844 10.098789,8.148844 l 0.365478,-0.1436575 -0.228873,-0.9777889 0.76221,0.7721575 0.484553,-0.222453 -0.51153,-1.6744887 -0.454787,0.2027502 0.307422,0.974909 -0.8787813,-0.8423124 z"
       id="path15" />
    <ellipse
       style="fill:none;stroke-width:0.284571"
       id="path16"
       cx="8.6762295"
       cy="6.5768185"
       rx="0.58439475"
       ry="0.54072285" />
    <path
       style="fill:none;stroke-width:0.264583"
       d="M 5.621499,9.8111069 C 5.5056277,9.7468448 5.3713445,9.7162367 5.2390703,9.7239373 5.106796,9.731638 4.9769718,9.7776217 4.8693404,9.8548956 4.7617089,9.9321694 4.6766292,10.040476 4.6270395,10.163344 c -0.04959,0.122869 -0.063524,0.259889 -0.039684,0.390225 0.042211,0.230769 0.2005775,0.429724 0.3977473,0.556847 0.148177,0.09554 0.3216758,0.155335 0.4979805,0.155719 0.1763047,3.84e-4 0.3547325,-0.06142 0.4831303,-0.182239 0.067521,-0.06354 0.1218251,-0.145726 0.1334819,-0.237705 0.00583,-0.04599 6.488e-4,-0.09367 -0.017431,-0.136359 -0.01808,-0.04269 -0.049355,-0.08011 -0.089533,-0.103233 -0.046615,-0.02683 -0.1029353,-0.03341 -0.1562715,-0.02649 -0.053336,0.0069 -0.1042264,0.02654 -0.1529196,0.04937 -0.048693,0.02284 -0.095798,0.04905 -0.1452001,0.07031 -0.049402,0.02126 -0.101734,0.03763 -0.1554885,0.03938 -0.065874,0.0022 -0.1324192,-0.01855 -0.1849105,-0.05841 -0.052491,-0.03986 -0.090421,-0.09871 -0.1041622,-0.163171 -0.013741,-0.06446 -0.00298,-0.133989 0.030369,-0.190837 0.033352,-0.05685 0.089123,-0.100312 0.1526379,-0.117915 0.069148,-0.01916 0.1424969,-0.0081 0.2139026,-0.001 0.035703,0.0035 0.071677,0.006 0.1074375,0.0031 0.035761,-0.0029 0.071481,-0.01135 0.1029241,-0.02863 0.037036,-0.02035 0.067248,-0.05288 0.084812,-0.09132 0.017564,-0.03844 0.022383,-0.08257 0.013528,-0.1238927 -0.00885,-0.041322 -0.031335,-0.079605 -0.063106,-0.1074707 -0.031771,-0.027865 -0.07266,-0.045159 -0.1147838,-0.048549 z"
       id="path17"
       transform="matrix(0.92522372,0,0,0.80148973,3.7278301,-0.74910579)" />
    <path
       style="fill:#389b3c;fill-opacity:1;stroke-width:0.264583"
       d="M 4.8260038,9.7845904 C 4.9654209,9.6149112 5.1294269,9.4606454 5.3268914,9.3645419 5.524356,9.2684384 5.7587779,9.2351923 5.9662136,9.3072934 c 0.1210173,0.042063 0.2292751,0.1186469 0.3123251,0.2162032 0.08305,0.097556 0.1410601,0.2156595 0.1714506,0.3401221 0.060781,0.2489253 0.00946,0.5176533 -0.1125447,0.7429833 -0.081972,0.151396 -0.196035,0.286656 -0.3376745,0.384526 -0.1416396,0.09787 -0.3113459,0.157226 -0.4835038,0.15864 -0.1721579,0.0014 -0.345911,-0.05693 -0.4759381,-0.169769 -0.130027,-0.112842 -0.2131993,-0.280787 -0.2143244,-0.452947 -8.145e-4,-0.124639 0.042927,-0.252139 0.132479,-0.338834 0.044776,-0.04335 0.1003305,-0.07587 0.160642,-0.09157 0.060312,-0.0157 0.1252909,-0.01427 0.1841763,0.0061 0.050964,0.01766 0.096302,0.04883 0.1369621,0.08427 0.04066,0.03544 0.077165,0.07532 0.1153215,0.113447 0.038157,0.03812 0.078388,0.07481 0.1247147,0.102433 0.046326,0.02763 0.099411,0.0459 0.1533317,0.04456 0.074173,-0.0018 0.1451882,-0.04207 0.1896527,-0.101471 0.044465,-0.0594 0.063097,-0.136251 0.056723,-0.210173 C 6.0736333,10.061938 6.043293,9.9911075 5.9989888,9.9315913 5.9546846,9.8720752 5.896819,9.8234791 5.8336311,9.7845904 5.7658813,9.7428941 5.6912103,9.7117864 5.6130332,9.6970569 5.5348561,9.6823274 5.4531226,9.68426 5.3767653,9.7065802 5.3004081,9.7289003 5.2296718,9.772 5.1777779,9.8322963 5.125884,9.8925926 5.093534,9.9702385 5.091169,10.049756 c -0.00214,0.07185 0.019423,0.141949 0.03401,0.212334 0.00729,0.03519 0.012889,0.07091 0.012885,0.106855 -3.3e-6,0.03594 -0.00576,0.07224 -0.020378,0.105074 -0.021979,0.04937 -0.063896,0.08907 -0.1135269,0.110448 -0.049631,0.02138 -0.1064342,0.02469 -0.1588272,0.01145 C 4.7929388,10.582689 4.7450737,10.5533 4.7078298,10.514146 4.6705859,10.474992 4.6438404,10.426315 4.6284645,10.37451 4.5977125,10.2709 4.612751,10.157587 4.653027,10.057295 4.6933029,9.9570035 4.757392,9.8680952 4.8260038,9.7845904 Z"
       id="path18"
       transform="matrix(0.92522372,0,0,0.80148973,3.7278301,-0.74910579)" />
    <path
       style="fill:#389b3c;fill-opacity:1;stroke-width:0.264583"
       d="M 6.2578953,10.739185 C 5.7894367,10.323759 5.3209786,9.9083342 4.8525204,9.4929089"
       id="path19" />
  </g>
</svg>
