<?xml version="1.0" encoding="UTF-8" standalone="no"?>
<!-- Created with Inkscape (http://www.inkscape.org/) -->

<svg
   width="3840"
   height="2160"
   viewBox="0 0 1016 571.5"
   version="1.1"
   id="svg1"
   xmlns="http://www.w3.org/2000/svg"
   xmlns:svg="http://www.w3.org/2000/svg">
  <defs
     id="defs1" />
  <g
     id="layer1">
    <rect
       style="fill:#8ae6de;fill-opacity:1;stroke-width:0.264583"
       id="rect2"
       width="1025.022"
       height="571.90796"
       x="-5.5882254"
       y="-0.70294368" />
    <ellipse
       style="fill:#f5f75b;fill-opacity:1;stroke-width:0.264583"
       id="path5"
       cx="510.81396"
       cy="344.50241"
       rx="154.43213"
       ry="140.85567" />
    <ellipse
       style="fill:#6ee456;fill-opacity:1;stroke-width:0.380654"
       id="path2"
       cx="501.4801"
       cy="668.6402"
       rx="584.63586"
       ry="290.19662" />
    <path
       style="fill:#1c8000;fill-opacity:1;stroke-width:0.264583"
       d="m 100.12632,430.20377 c 0,31.67838 -1.697059,90.79251 -1.697059,90.79251 l 127.279219,-2.5456 1.69706,-86.54987 47.51758,-3.3941 L 161.22034,330.07745 47.517576,430.20377 Z"
       id="path4" />
    <path
       style="fill:#f2f2f2;fill-opacity:0.8559671;stroke-width:0.22063"
       id="path9"
       d="m 977.17371,59.324522 c -4.73373,0 -9.46745,0 -14.20118,0 -8.43596,0 -16.87192,0 -25.30788,0 -9.36846,0 -18.73692,0 -28.1054,0 -8.6001,0 -17.20019,0 -25.80029,0 -8.22852,-0.182769 -16.43076,0.248936 -24.61098,0.91486 -8.28387,0.629589 -16.2829,2.327398 -23.97765,4.807258 -7.85779,2.767495 -14.73963,6.835818 -21.01152,11.46668 -6.05062,4.634549 -10.64099,10.208484 -14.69337,16.024522 -4.85396,6.753727 -6.69616,12.745818 -7.4652,20.479838 -0.64444,7.60277 0.51531,15.10236 2.96835,22.43388 2.26542,5.90749 5.3239,11.75317 10.60411,16.37588 1.35101,1.18276 2.89695,2.21309 4.3454,3.31962 7.95801,5.47392 17.24338,9.33802 26.82407,12.63088 8.95765,3.02429 18.33969,5.06326 27.79698,6.7919 9.06393,1.57087 18.24027,2.67316 27.42637,3.66815 8.23403,0.89538 16.51015,1.49954 24.79149,2.02935 8.06342,0.507 16.14115,0.84226 24.22079,1.12885 8.09384,0.27776 16.19196,0.46294 24.2904,0.62819 7.81733,0.15662 15.63616,0.25819 23.45501,0.35125 7.37409,0.083 14.74549,0.2242 22.11709,0.01 6.8172,-0.12645 13.548,-0.94564 20.1808,-2.16409 7.2402,-1.174 13.5568,-3.91325 19.3087,-7.52416 5.5317,-3.95702 9.2135,-9.08393 12.3448,-14.38572 2.5117,-4.37858 4.2383,-8.99925 5.8111,-13.63774 1.3828,-4.18934 2.3056,-8.46083 3.1357,-12.73844 0.8223,-4.30058 1.3921,-8.6215 1.5199,-12.97069 0.036,-5.08125 -0.9818,-10.0778 -2.5812,-14.97787 -1.9277,-5.542507 -5.3542,-10.567228 -9.3605,-15.301776 -4.0488,-4.612583 -9.188,-8.505032 -14.4803,-12.188092 -4.5203,-3.0996 -9.4791,-5.723343 -14.7049,-7.988327 -5.0447,-2.155054 -10.443,-3.638095 -15.9322,-4.868592 -5.4468,-1.156488 -11.0095,-1.894239 -16.57959,-2.545398 -5.49536,-0.623198 -11.0257,-1.011835 -16.55719,-1.358742 -5.49575,-0.330089 -11.00103,-0.542762 -16.50618,-0.741954 -4.85223,-0.174259 -9.70655,-0.305563 -14.56179,-0.411794 -5.36474,-0.111521 -10.73075,-0.176035 -16.0968,-0.230537 -6.09238,-0.05787 -12.18503,-0.09407 -18.27766,-0.128385 -5.67354,-0.03128 -11.34713,-0.05368 -17.02077,-0.07195 -5.8951,-0.01787 -11.79025,-0.03021 -17.6854,-0.04037 -6.02882,-0.06479 -12.05691,0.05734 -18.07466,0.347085 -5.74178,0.265606 -11.44247,0.952779 -17.08021,1.843004 -6.52632,1.123441 -12.54758,3.398895 -18.28518,6.061354 -5.42157,2.473796 -9.72025,5.998049 -13.46747,9.931028 -3.32289,3.695696 -5.5374,7.871753 -7.37223,12.150955 -1.79346,4.273738 -2.68142,8.742748 -3.14789,13.221251 -0.39073,5.61511 1.00879,11.12691 2.72209,16.53593 1.80666,5.4377 4.96407,10.47223 8.35245,15.37055 3.11514,4.70472 7.55201,8.47337 12.75532,11.72327 6.39676,3.6273 13.6633,6.04179 20.94619,8.26769 8.38214,2.44961 17.14399,3.88964 25.8894,5.22012 8.52596,1.27306 17.13829,2.11082 25.76213,2.81795 8.54986,0.68382 17.12447,1.13734 25.70042,1.5484 8.1703,0.3649 16.3313,0.84631 24.50008,1.23289 7.91258,0.34967 15.82965,0.62992 23.74849,0.87046 7.30263,0.30728 14.59895,0.35562 21.88532,-0.15306 7.14973,-0.55638 13.83383,-2.45747 20.17343,-5.0713 5.3945,-2.35529 10.0488,-5.57372 14.2573,-9.12023 4.4444,-3.97163 7.3288,-8.7295 9.6492,-13.67183 2.5003,-5.56809 3.088,-11.39861 2.9819,-17.26333 0,-7.0014 -2.7366,-12.35759 -7.1794,-18.26628 -4.1076,-5.158089 -9.5085,-9.539479 -15.2367,-13.546749 -5.5791,-3.820237 -11.9317,-6.745948 -18.5385,-9.254848 -6.59895,-2.298019 -13.34944,-4.303187 -20.22263,-6.007045 -7.27894,-1.888729 -14.62921,-3.56466 -22.08708,-4.933783 -8.78353,-1.524336 -17.69938,-2.463579 -26.61995,-3.29239 -8.77012,-0.747891 -17.55888,-1.373784 -26.36588,-1.759579 -7.91258,-0.361179 -15.80026,0.136524 -23.60821,1.139061 -6.59305,0.874449 -12.90627,2.542351 -18.86853,4.928258 -6.3043,2.786599 -10.97318,7.038643 -14.85717,11.793981 -3.62814,4.754039 -5.3333,10.104914 -6.1246,15.57965 -0.64198,5.419404 0.46971,10.763674 2.17297,15.988304 2.35557,6.80926 7.86067,12.20428 14.04322,17.05155 6.5013,4.88925 14.49396,7.91591 22.73249,10.43083 9.38729,2.46085 19.12821,3.88727 28.84914,5.20105 8.51757,1.13079 17.09122,1.95777 25.67072,2.71877 6.8902,0.67064 13.83395,0.92405 20.72396,1.58141 5.26103,0.48641 10.48721,1.12224 15.59322,2.25776 4.97437,1.08729 9.87987,2.35114 14.76839,3.65994 4.5074,1.2292 9.01326,2.46381 13.54034,3.64612 4.5397,1.17962 9.1495,2.15914 13.8607,2.77042 6.7843,0.6911 12.9128,-0.89755 18.6162,-3.7014 4.3408,-2.3783 7.3841,-5.75339 9.9707,-9.34754 2.027,-2.91242 3.4019,-6.05408 4.5312,-9.24977 1.0026,-3.40627 1.4675,-6.89793 1.7019,-10.38655 0.2578,-3.7718 -0.3553,-7.51976 -1.3093,-11.20364 -0.9782,-3.75244 -2.7661,-7.31118 -4.8295,-10.75494 -2.2095,-3.65719 -5.344,-6.83706 -8.6051,-9.917936 -3.2916,-3.141258 -7.1678,-5.797911 -11.3354,-8.159868 -3.9721,-2.213259 -8.0649,-4.279944 -12.2941,-6.163201 -4.0475,-1.734191 -8.2497,-3.212632 -12.5384,-4.51788 -4.13846,-1.201202 -8.36156,-2.197732 -12.62028,-3.084597 -4.1726,-0.852057 -8.40479,-1.493195 -12.66002,-2.012616 -5.57184,-0.632655 -11.19,-0.902361 -16.80623,-1.122403 -7.48954,-0.268411 -14.9841,-0.432488 -22.47854,-0.583562 -7.86565,-0.03601 -15.74102,0.18949 -23.58578,0.646979 -8.17552,0.537612 -16.32175,1.329738 -24.44719,2.223261 -7.41962,0.782769 -14.7847,1.837053 -22.06567,3.217555 -7.13497,1.350016 -13.58811,3.926096 -19.52801,7.302929 -5.3215,3.246091 -9.23354,7.527632 -12.35582,12.204348 -3.42039,5.182931 -3.88278,10.188291 -2.95473,15.908591 1.32619,6.20461 5.16493,11.65146 9.43836,16.83242 4.46838,5.42826 10.63926,9.60568 17.20461,13.32536 5.31395,2.96365 11.09788,5.28483 17.06473,7.26885 11.0013,3.24183 5.46706,1.70753 13.23049,-17.10085 0.0173,-0.0417 -2.27397,-0.88314 -2.49096,-0.96375 -3.23287,-1.29945 -6.57354,-2.41462 -9.87443,-3.59613 -3.86479,-1.45152 -7.68016,-3.00072 -11.30325,-4.8105 -3.3595,-1.66364 -6.38402,-3.68175 -9.18741,-5.89745 -2.90963,-2.28374 -5.09049,-5.00893 -7.10308,-7.81914 -1.9483,-2.77467 -3.4903,-5.70962 -4.61478,-8.75848 -0.10915,-0.72203 -0.73085,-1.813588 -0.42743,-2.593956 0.0322,-0.08276 0.0633,0.234451 0.17036,0.221429 0.12574,-0.01528 0.16472,-0.364945 0.1889,-0.265095 0.0541,0.223644 -0.0591,0.45314 -0.0886,0.679709 -0.16024,0.323007 -0.49954,0.621843 -0.48077,0.969023 0.0104,0.19233 0.36224,-0.17281 1.7773,-0.781757 1.70311,-0.732913 3.56868,-1.213162 5.37878,-1.739276 4.46571,-1.229677 9.10714,-2.057667 13.77361,-2.622542 6.16462,-0.08008 12.33223,0.691329 18.43125,1.356327 10.63873,1.435103 21.27467,2.892555 31.82292,4.710058 11.09836,1.96286 22.10623,4.24273 33.03637,6.73361 8.88326,2.00282 17.75147,4.04439 26.50693,6.38228 5.94647,1.37797 11.48703,3.48374 16.32915,6.56729 2.44196,1.59216 4.35518,3.49941 4.74805,6.04013 -0.51513,0.66035 0.20128,-0.10074 -0.40964,-0.0212 -0.15355,0.02 -0.11637,0.25711 -0.25592,0.31213 -0.14132,0.0557 -0.14746,-0.25162 -0.29535,-0.29516 -0.10286,-0.0303 -0.21921,0.002 -0.3288,0.003 -3.9925,1.58742 -8.43318,1.97739 -12.80587,2.34768 -8.14967,0.60734 -16.34241,0.47185 -24.51431,0.36664 -8.46772,-0.12451 -16.89555,-0.74448 -25.29101,-1.59607 -8.06897,-0.43075 -15.16607,-3.04039 -22.15972,-6.06961 -5.2257,-2.50583 -10.86393,-5.17234 -13.58671,-9.72281 -0.16443,-0.40829 -0.39573,-0.8031 -0.49326,-1.2249 -0.30108,-1.30172 0.46312,-0.10307 0.50645,0.0315 0.1132,0.35173 0.11872,0.7226 0.11397,1.08577 -0.005,0.31637 -0.35667,0.67742 -0.14062,0.94247 0.15694,0.19255 0.57255,-0.0409 0.8588,-0.0613 8.0693,-3.0164 16.83196,-4.51774 25.50134,-5.96821 11.15234,-1.78547 22.48785,-2.6102 33.8084,-3.34713 6.85139,-0.21388 14.14191,-1.22747 20.70711,0.82534 1.48661,0.20671 2.98668,2.67042 1.33697,0.8447 -0.98098,-1.34526 -0.41097,-2.83692 0.0551,-4.21169 0.15721,-0.46365 1.32959,-1.16883 0.75488,-1.30868 -0.66337,-0.161401 -1.3349,0.30045 -2.00233,0.45067 -8.55641,1.47965 -17.31258,1.95587 -26.0426,2.14679 -9.47153,0.21422 -18.93663,-0.0675 -28.38674,-0.55852 -6.69214,-0.86744 -13.8146,-0.33937 -20.36,-1.88061 12.45167,6.81526 6.96655,1.21404 2.20455,18.00575 -0.0584,0.20577 0.52013,0.0919 0.78393,0.0875 1.12185,-0.0185 2.23941,-0.12065 3.36064,-0.15579 4.39793,-0.13782 5.62677,-0.0958 10.19016,-0.0894 11.97495,-0.005 23.92465,0.65585 35.84969,1.46489 9.42859,0.61026 18.83789,1.24977 28.09172,2.85473 0.66028,0.1922 1.32056,0.3844 1.98087,0.57659 0.13557,0.10011 0.55919,0.38351 0.40678,0.30032 -1.12001,-0.6113 -2.94591,-0.84324 -3.31374,-1.88695 -1.21876,-3.45816 -1.6457,-7.17052 -1.13649,-10.74026 0.37744,-2.6459 5.66751,-3.0789 1.42199,-2.50709 -8.20443,1.29277 -16.51285,2.10908 -24.81027,2.9114 -7.59556,0.70963 -15.20777,1.33736 -22.84422,1.67701 -8.20583,0.21777 -16.43212,-0.14231 -24.57798,-0.93458 -6.47655,-0.69613 -12.94012,-1.81211 -18.818,-4.15442 -3.81508,-1.99381 0.12003,-1.33423 0.73323,1.80197 0.78379,4.00862 0.0327,4.4288 -1.80717,7.09015 10.87585,-2.12987 22.02911,-2.56093 33.17713,-2.6473 17.41487,0.15223 34.83169,0.47429 52.21261,1.37843 5.65299,0.36541 11.28446,0.95687 16.79058,2.06243 2.37658,0.47719 4.51044,0.92592 6.51983,2.02711 -1.08988,0.0277 -1.15921,0.0867 -2.22858,-1.48605 -2.3633,-3.47585 -2.36713,-6.84004 0.61207,-9.99408 3.55074,-2.81738 10.2544,-0.63476 12.8811,2.07595 0.7511,0.29077 0.361,1.76952 0.9828,1.74953 1.5201,-0.64718 2.9822,-1.8655 4.83,-1.7797 1.2892,0.22784 -0.8684,0.20436 -1.134,0.13177 -2.8285,-1.48294 -3.6534,-4.01774 -3.2994,-6.57825 -3.0714,2.14141 -6.5487,3.84544 -10.2012,5.2919 -6.96128,2.45968 -14.26783,4.27245 -21.7085,5.52477 -7.21107,1.00869 -14.55046,1.34008 -21.79338,0.43814 -5.65694,-0.82953 -10.45208,-3.23507 -15.04169,-5.87299 -1.51377,-2.26641 3.75073,2.85275 3.20276,4.53159 -1.33924,4.10303 -5.60395,7.20141 -8.51819,10.74416 -0.98865,1.20187 -4.16851,-0.36178 3.13471,1.13176 1.70005,0.34766 3.38923,0.7284 5.08386,1.09261 1.86875,0.41898 3.74192,0.8256 5.60628,1.25695 4.71059,1.08988 9.57184,2.18029 14.07451,3.7629 0.55138,0.1938 2.02717,1.03587 1.55174,0.7402 -0.98477,-0.61242 -2.0569,-1.12929 -3.08537,-1.69396 -1.69124,-20.62201 -3.82248,-5.02989 2.77477,-13.6906 0.25575,-0.33574 -0.98339,0.0104 -1.47432,0.031 -3.9561,0.16578 -7.87971,0.24952 -11.84332,0.26655 -10.42976,-0.11765 -20.8358,-0.9162 -31.19091,-1.87804 -5.70954,-0.68842 -11.48722,-1.57996 -16.85708,-3.34227 -1.89639,-0.62237 -3.97488,-1.62058 -5.74758,-2.42034 -2.41858,-1.20378 -4.78968,-2.47958 -6.90684,-4.01111 -0.78414,-0.56725 -2.92587,-2.4381 -2.1398,-1.87256 0.44213,0.31811 0.77915,0.71874 1.16874,1.07812 1.11813,3.72715 1.86299,3.58936 -0.0457,7.19791 -0.3311,0.62596 -1.04339,1.07383 -1.53027,1.63091 -0.0549,0.0629 -0.18268,0.22244 -0.0868,0.21937 0.91413,-0.0293 1.75535,-0.41307 2.63593,-0.61154 4.96039,-1.09973 14.62172,-2.6194 14.08033,-8.55738 -1.08636,-11.915341 -5.65286,-11.723554 -13.66884,-12.954359 -6.71836,-0.40607 -15.0227,-1.544485 -21.6158,-0.24714 -2.00432,0.394401 -3.90392,1.073449 -5.85587,1.610173 -1.78507,1.122938 -3.85473,2.005368 -5.35516,3.368808 -4.4956,4.085128 -5.64541,9.974908 -3.06157,14.991228 1.93916,3.76476 4.22602,5.0444 7.63132,7.63076 6.57576,4.29279 14.20045,7.67065 23.01187,6.43056 1.70148,-0.23945 3.28539,-0.85566 4.92809,-1.28349 7.39501,-3.03988 10.92635,-7.56927 12.57986,-13.8872 1.04621,-6.29833 -1.8928,-10.842152 -7.43035,-15.118011 -2.83895,-1.818512 -1.30157,-0.940139 -4.64278,-2.600505 -57.39297,-25.9592 -69.53959,-8.786093 -12.14662,17.173046 v 0 c -0.45922,-0.36419 -0.47543,-0.33877 0.0822,-0.0547 0.0937,0.0433 0.24592,0.21154 0.28124,0.12974 0.17957,-0.41581 -1.37508,-2.23251 -0.46803,-2.83181 0.47215,-0.572 1.34716,-0.89864 2.29827,-1.03705 0.91732,-0.0291 3.43787,0.13429 2.67078,0.53755 -1.18826,0.62467 -3.72144,-1.95634 -4.76351,-2.19744 -0.32881,-0.17297 -0.74335,-0.76647 -0.9864,-0.51892 -0.32135,0.32734 0.26331,0.81096 0.29172,1.22651 0.2005,2.93013 -1.41302,5.09004 -4.92729,6.07967 -0.37378,-0.0224 -1.47866,0.0235 -1.12136,-0.0672 4.46334,-1.13213 10.28051,0.0759 14.84769,0.16573 5.86771,-1.05684 -6.74556,1.33482 -6.39015,-11.714692 0.14517,-5.32948 12.28989,-7.275672 5.21266,-5.737355 -0.8314,0.180717 -1.66175,0.364553 -2.49261,0.546828 -7.73376,1.880523 -16.07033,4.816653 -17.38766,12.206979 -0.36433,2.04397 0.53971,4.10664 0.80957,6.15995 0.8911,1.27898 1.64644,2.6248 2.6733,3.83693 3.75441,4.43181 10.48686,7.44762 15.89552,10.35409 3.93262,1.71138 5.36941,2.45331 9.64741,3.805 7.05115,2.22786 14.57373,3.41468 22.04487,4.28412 11.34622,1.04671 22.74737,1.91398 34.17585,2.00852 6.73627,-0.0354 26.1738,0.4462 29.43645,-5.49337 2.1152,-3.85068 0.51275,-8.40164 0.76916,-12.60246 -1.74311,-1.33454 -3.29899,-2.84549 -5.22927,-4.00362 -1.87947,-1.12761 -7.04632,-2.58941 -9.15758,-3.18642 -5.65496,-1.59908 -11.42159,-2.91643 -17.20572,-4.17841 -2.69216,-0.57176 -16.61338,-3.82632 -18.72217,-2.61288 -13.88108,7.98754 -15.64513,12.50721 -4.83262,20.26036 7.85029,4.42169 16.255,8.10125 25.87602,9.32294 10.1555,1.07754 20.37951,0.8925 30.45936,-0.68973 9.52296,-1.67838 18.91117,-3.94002 27.76087,-7.25638 7.3963,-3.09941 14.5785,-6.67056 19.6408,-12.11639 0.7435,-1.04376 1.6218,-2.03309 2.2305,-3.13127 3.4397,-6.20625 1.3467,-12.181328 -4.673,-16.70498 -5.6598,-3.16993 -11.9003,-4.79553 -18.8739,-3.758442 -7.0716,1.353914 -13.36419,3.930072 -18.44111,8.180516 -0.85867,0.858809 -1.81346,1.661436 -2.57601,2.576416 -4.05598,4.86675 -4.84165,10.57003 -2.57628,16.07852 1.19002,1.91507 2.43511,4.536 4.7767,5.85139 7.47408,4.19856 12.756,4.08724 20.0135,0.33804 2.1677,-1.43212 4.3483,-2.62232 5.5736,-4.81785 3.9568,-7.08968 0.7654,-12.62408 -6.7628,-16.67997 -10.68969,-4.517388 -21.80957,-5.741541 -33.75654,-6.55763 -18.01047,-0.929732 -36.05728,-1.279364 -54.10297,-1.418299 -12.66636,0.140952 -28.35095,0.411112 -40.42083,3.804025 -2.17619,0.611744 -4.21495,1.499941 -6.32244,2.249914 -2.08535,1.54788 -4.88095,2.65176 -6.25604,4.64364 -6.51212,9.43304 1.01831,16.36904 10.67952,20.63548 8.38907,3.06842 17.24208,5.06446 26.42906,5.89787 9.57803,0.8874 19.23445,1.35647 28.87861,1.03962 8.15803,-0.37751 16.29342,-1.01735 24.40773,-1.78807 9.3941,-0.90943 18.80868,-1.82631 28.07027,-3.40656 3.81431,-0.88321 11.16258,-2.08731 12.75393,-5.48716 5.7195,-12.21991 -1.74857,-15.93618 -13.16214,-18.63817 -10.28311,-1.74828 -20.7084,-2.58764 -31.18504,-3.22323 -12.61081,-0.852103 -25.24761,-1.543003 -37.91072,-1.53522 -5.73974,4e-5 -11.62832,-0.152441 -17.33451,0.476044 -1.81003,0.199358 -4.3728,-0.372233 -5.37779,0.847977 -12.48729,15.161349 -11.28245,12.758679 0.054,19.675199 8.14684,1.57021 16.55481,1.77909 24.86827,2.45185 10.21532,0.52481 20.44702,0.82595 30.68486,0.59143 11.22371,-0.26793 22.52665,-0.89655 33.41697,-3.22729 1.73704,-0.51641 3.56207,-0.87305 5.21107,-1.54926 9.27441,-3.80316 13.65043,-9.79318 11.35953,-18.129856 -0.5717,-1.131755 -1.0152,-2.310556 -1.71513,-3.395264 -3.15631,-4.891401 -9.16007,-7.988221 -15.29979,-10.064322 -1.49215,-0.371528 -2.95857,-0.817064 -4.47644,-1.11458 -8.51429,-1.66888 -17.37164,-1.088818 -26.01745,-0.652789 -12.35106,0.806022 -24.71415,1.735195 -36.87675,3.703433 -11.5832,1.953192 -23.29737,4.073188 -33.7613,8.675562 -4.87703,2.831518 -7.0924,3.448396 -10.03923,7.903736 -3.85655,5.83073 -2.24886,12.24345 1.19394,17.83586 0.96367,1.25075 1.82286,2.55697 2.89097,3.75223 5.20275,5.82219 12.73146,9.90474 20.35934,13.442 9.66095,4.11822 19.68326,7.53274 30.73141,8.25972 9.29201,0.93817 18.62135,1.61504 27.99226,1.7496 9.22381,0.1181 18.47097,0.24038 27.66547,-0.48749 9.26339,-0.8658 18.4456,-2.29629 26.0459,-6.93213 1.1723,-0.87221 2.4516,-1.66062 3.5168,-2.61662 5.2479,-4.7097 6.9419,-10.89069 5.766,-17.01681 -2.4591,-7.33764 -6.2541,-12.26516 -13.7192,-17.08055 -7.12988,-4.28625 -14.92614,-7.647472 -23.54227,-9.62992 -9.1057,-2.424609 -18.3191,-4.56551 -27.55762,-6.641774 -11.45167,-2.602806 -22.9797,-4.998458 -34.6077,-7.04702 -11.16543,-1.91285 -22.41584,-3.479428 -33.68048,-4.970211 -8.45648,-0.917294 -17.04404,-1.986801 -25.58615,-1.297006 -6.26891,0.807006 -12.50694,1.891049 -18.49486,3.606401 -7.84386,2.343776 -15.19635,5.202598 -20.01137,10.953519 -0.63544,1.158028 -1.38849,2.279195 -1.90633,3.474082 -1.86989,4.314649 -1.12294,9.014459 0.33828,13.309119 1.72551,4.48264 3.94283,8.83045 6.86423,12.90834 3.16392,4.35229 6.69231,8.52759 11.22315,12.0606 4.13621,3.20806 8.55868,6.16336 13.48235,8.58046 4.57163,2.23483 9.30891,4.24311 14.18176,6.0278 3.19864,1.14233 6.43267,2.22529 9.56458,3.48331 7.99107,2.95705 18.77913,-16.8037 9.08558,-18.06095 -4.30094,-1.4192 -8.48578,-3.05252 -12.31964,-5.18189 -4.09077,-2.27495 -8.05876,-4.7493 -10.85019,-8.10995 -2.30799,-2.74359 -4.62603,-5.5691 -5.58355,-8.83179 -0.40848,-1.48292 -0.58655,-2.49812 0.46691,-3.91715 1.19506,-2.01655 2.86145,-3.84931 4.96715,-5.3229 3.19687,-1.965965 6.81164,-3.269562 10.72715,-4.060455 6.49923,-1.247865 13.08599,-2.156745 19.7108,-2.864171 7.61567,-0.840932 15.25177,-1.581812 22.91407,-2.093219 7.02556,-0.43036 14.08463,-0.598552 21.12968,-0.598622 7.30092,0.147075 14.60202,0.306362 21.89829,0.566405 4.78557,0.185679 9.57322,0.401387 14.32361,0.924593 3.41197,0.406082 6.80173,0.92895 10.1482,1.60152 3.40187,0.70256 6.77255,1.497202 10.08372,2.439697 3.18625,0.956667 6.29756,2.058053 9.31285,3.322732 3.4884,1.5351 6.8339,3.26275 10.1093,5.07214 2.4679,1.34728 4.7147,2.91517 6.6507,4.7442 1.9416,1.8323 3.9277,3.65398 5.2647,5.82779 1.2605,1.98103 2.278,4.06948 2.8771,6.24361 0.5839,2.00336 0.8995,4.06567 0.785,6.12475 -0.085,2.01728 -0.4368,4.0218 -0.822,6.01493 -0.5675,1.66335 -1.227,3.30856 -2.2416,4.83809 -0.606,0.89336 -1.2553,1.78998 -2.0534,2.57677 -0.6752,0.55726 -0.2391,0.54583 -1.4657,0.66564 -3.3533,-0.25986 -6.5638,-1.32638 -9.8009,-2.00774 -4.4678,-1.1642 -8.9117,-2.38731 -13.35984,-3.59841 -5.33827,-1.42914 -10.69843,-2.80162 -16.12988,-3.98985 -6.30597,-1.34951 -12.71726,-2.25088 -19.20862,-2.81588 -6.94057,-0.63504 -13.92016,-0.95362 -20.86132,-1.59391 -8.11637,-0.71906 -16.22781,-1.49724 -24.28608,-2.56415 -8.15098,-1.09677 -16.31287,-2.27642 -24.23266,-4.20256 -5.11005,-1.52162 -10.18591,-3.21818 -14.30675,-6.16169 -3.03057,-2.2854 -6.0906,-4.75281 -7.36853,-8.00511 -1.04073,-2.89381 -1.71031,-5.88121 -1.44066,-8.90384 0.15047,-2.410693 1.01097,-4.809914 2.402,-6.949077 1.39121,-1.882353 3.11544,-3.621818 5.40167,-4.859946 3.50478,-1.612933 7.55227,-2.302798 11.47033,-2.964456 6.04826,-0.807777 12.16393,-1.180058 18.29887,-0.910017 8.30356,0.354395 16.58798,0.962948 24.85714,1.657073 8.02877,0.743015 16.055,1.575031 23.96497,2.927788 6.86586,1.248237 13.61714,2.823544 20.31704,4.554464 5.77422,1.412822 11.42429,3.121303 16.98439,5.004398 4.59591,1.707017 9.01823,3.707413 12.90983,6.329613 3.8531,2.61093 7.4603,5.53923 10.3031,8.88839 2.2338,2.86725 3.704,4.83706 3.5792,8.37785 0.1143,3.41266 -0.07,6.79669 -1.4646,10.06141 -1.1249,2.52215 -2.4591,4.99532 -4.5999,7.08737 -2.1729,1.99302 -4.8084,3.68137 -7.6256,5.05844 -3.4195,1.4856 -7.03321,2.54729 -10.93079,2.89037 -6.23033,0.47511 -12.47693,0.31379 -18.72247,0.0867 -7.74516,-0.23498 -15.48856,-0.50921 -23.22764,-0.85023 -8.16266,-0.38589 -16.31744,-0.86822 -24.48165,-1.23203 -8.23061,-0.39401 -16.4601,-0.82689 -24.66586,-1.48133 -7.92379,-0.64601 -15.83752,-1.4106 -23.67224,-2.5744 -7.32158,-1.10784 -14.66977,-2.27309 -21.70691,-4.2738 -5.09922,-1.54688 -10.21773,-3.1611 -14.81319,-5.5465 -2.61529,-1.47264 -4.59991,-3.31309 -6.10447,-5.59055 -2.38408,-3.40984 -4.67762,-6.89761 -6.01528,-10.67464 -1.08146,-3.34017 -2.10174,-6.73359 -2.01868,-10.20939 0.17726,-2.81393 0.8729,-5.62858 1.90472,-8.319299 0.97401,-2.331212 2.07131,-4.634057 3.78431,-6.694128 1.68055,-1.894069 3.62485,-3.549432 6.17584,-4.710884 3.35021,-1.599471 6.86102,-3.004081 10.67778,-3.738518 4.51723,-0.751862 9.11192,-1.253919 13.71651,-1.490907 5.49561,-0.276677 11.00276,-0.36414 16.50873,-0.31001 5.87975,0.01012 11.75949,0.02242 17.63921,0.04026 5.6488,0.01817 11.2976,0.04049 16.94634,0.07162 6.04618,0.03405 12.09237,0.06993 18.13826,0.127286 5.2458,0.05321 10.49155,0.11605 15.73607,0.224763 4.70829,0.102732 9.41567,0.230237 14.12104,0.399012 5.23467,0.189206 10.46955,0.38993 15.69545,0.70193 4.98512,0.311404 9.96978,0.656111 14.92314,1.212512 4.54498,0.528251 9.08708,1.112027 13.53828,2.032603 3.7467,0.820637 7.4384,1.795469 10.8863,3.251228 3.6428,1.528168 7.0387,3.389574 10.1922,5.504224 3.7276,2.56963 7.4044,5.260251 10.3086,8.456543 2.5075,2.836055 4.5999,5.887745 5.8592,9.228495 1.0851,3.10098 1.6908,6.2778 1.7456,9.50337 -0.048,3.46293 -0.6288,6.89651 -1.2337,10.32192 -0.6877,3.56059 -1.4362,7.11869 -2.5714,10.60876 -1.1934,3.54293 -2.4647,7.08422 -4.3492,10.43924 -1.5199,2.65042 -3.2079,5.27842 -5.6382,7.47955 -2.5605,1.95867 -5.8516,2.94073 -9.2603,3.56276 -5.0912,0.96881 -10.2715,1.56667 -15.5116,1.66311 -6.9379,0.21907 -13.87807,0.0349 -20.81867,-0.0216 -7.73152,-0.092 -15.46301,-0.19224 -23.193,-0.34701 -7.94401,-0.16197 -15.88771,-0.34324 -23.82718,-0.61526 -7.78835,-0.27577 -15.57491,-0.59771 -23.34767,-1.0855 -7.833,-0.50004 -15.66152,-1.06787 -23.44988,-1.91401 -8.4576,-0.91344 -16.90706,-1.92165 -25.2554,-3.35372 -8.01702,-1.4536 -15.9782,-3.15058 -23.57813,-5.69666 -7.03578,-2.38819 -13.90188,-5.12633 -19.84659,-9.03071 -4.48732,-2.98358 -6.15325,-5.90902 -7.8305,-10.37283 -1.83809,-5.15799 -2.54909,-10.46575 -2.15002,-15.83265 0.31694,-4.66799 1.41237,-8.22997 4.43966,-12.30719 2.76593,-4.032312 5.84267,-7.932782 9.97212,-11.178464 4.00647,-3.071385 8.50681,-5.708714 13.53525,-7.621936 5.44991,-1.856113 11.21211,-2.937356 17.10611,-3.425873 7.34393,-0.607443 14.70524,-0.991149 22.09388,-0.811913 8.60009,0 17.20018,0 25.80028,0 9.36848,0 18.73694,0 28.10541,0 8.43595,0 16.87192,0 25.30788,0 4.73373,0 9.46744,0 14.20117,0 65.93748,0 65.93748,-19.729783 0,-19.729783 z" />
    <path
       style="fill:#f2f2f2;fill-opacity:0.88477367;stroke-width:0.22063"
       id="path9-6"
       d="m 14.270002,118.83577 c -4.73373,0 -9.46745,0 -14.20118001,0 -8.43595999,0 -16.87191999,0 -25.30787999,0 -9.36846,0 -18.73692,0 -28.1054,0 -8.6001,0 -17.20019,0 -25.80029,0 -8.22852,-0.18277 -16.43076,0.24893 -24.610982,0.91486 -8.28387,0.62959 -16.2829,2.3274 -23.97765,4.80726 -7.85779,2.76749 -14.73963,6.83581 -21.01152,11.46668 -6.05062,4.63454 -10.64099,10.20848 -14.69337,16.02452 -4.85396,6.75372 -6.69616,12.74582 -7.4652,20.47984 -0.64444,7.60277 0.51531,15.10236 2.96835,22.43388 2.26542,5.90749 5.3239,11.75317 10.60411,16.37588 1.35101,1.18276 2.89695,2.21309 4.3454,3.31962 7.95801,5.47392 17.24338,9.33802 26.82407,12.63088 8.95765,3.02429 18.33969,5.06326 27.796982,6.7919 9.06393,1.57087 18.24027,2.67316 27.42637,3.66815 8.23403,0.89538 16.51015,1.49954 24.79149,2.02935 8.06342,0.507 16.14115,0.84226 24.22079,1.12885 8.09384,0.27776 16.19196,0.46294 24.2904,0.62819 7.81733,0.15662 15.63616,0.25819 23.45501,0.35125 7.37409,0.083 14.74547,0.2242 22.11711,0.01 6.81716,-0.12645 13.54795,-0.94564 20.1808,-2.16409 7.24016,-1.174 13.556789,-3.91325 19.308699,-7.52416 5.5317,-3.95702 9.2135,-9.08393 12.3448,-14.38572 2.511699,-4.37858 4.238299,-8.99925 5.811099,-13.63774 1.3828,-4.18934 2.3056,-8.46083 3.1357,-12.73844 0.8223,-4.30058 1.3921,-8.6215 1.5199,-12.97069 0.036,-5.08125 -0.9818,-10.0778 -2.5812,-14.97788 -1.9277,-5.5425 -5.3542,-10.56722 -9.360499,-15.30177 -4.0488,-4.61258 -9.188,-8.50503 -14.4803,-12.18809 -4.520339,-3.0996 -9.479139,-5.72335 -14.704939,-7.98833 -5.04463,-2.15505 -10.44302,-3.63809 -15.93213,-4.86859 -5.44684,-1.15649 -11.00955,-1.89424 -16.57964,-2.5454 -5.49536,-0.6232 -11.0257,-1.01183 -16.55719,-1.35874 -5.49575,-0.33009 -11.00103,-0.54276 -16.50618,-0.74196 -4.85223,-0.17425 -9.70655,-0.30556 -14.56179,-0.41179 -5.36474,-0.11152 -10.73075,-0.17603 -16.0968,-0.23054 -6.09238,-0.0579 -12.18503,-0.0941 -18.27766,-0.12838 -5.67354,-0.0313 -11.34713,-0.0537 -17.02077,-0.072 -5.8951,-0.0179 -11.79025,-0.0302 -17.6854,-0.0404 -6.02882,-0.0648 -12.05691,0.0573 -18.07466,0.34708 -5.741782,0.26561 -11.442472,0.95278 -17.080212,1.84301 -6.52632,1.12344 -12.54758,3.39889 -18.28518,6.06135 -5.42157,2.4738 -9.72025,5.99805 -13.46747,9.93103 -3.32289,3.6957 -5.5374,7.87175 -7.37223,12.15095 -1.79346,4.27374 -2.68142,8.74275 -3.14789,13.22125 -0.39073,5.61511 1.00879,11.12692 2.72209,16.53594 1.80666,5.4377 4.96407,10.47223 8.35245,15.37055 3.11514,4.70472 7.55201,8.47337 12.75532,11.72327 6.39676,3.6273 13.6633,6.04179 20.94619,8.26769 8.38214,2.44961 17.143992,3.88964 25.889402,5.22012 8.52596,1.27306 17.13829,2.11082 25.76213,2.81795 8.54986,0.68382 17.12447,1.13734 25.70042,1.5484 8.1703,0.3649 16.3313,0.84631 24.50008,1.23289 7.91258,0.34967 15.82965,0.62992 23.74849,0.87046 7.30263,0.30728 14.59895,0.35562 21.88532,-0.15306 7.14978,-0.55638 13.83386,-2.45747 20.17345,-5.0713 5.39447,-2.35529 10.04876,-5.57372 14.25733,-9.12023 4.44433,-3.97163 7.32873,-8.7295 9.64913,-13.67183 2.50033,-5.56809 3.088029,-11.39861 2.981929,-17.26333 0,-7.0014 -2.736629,-12.35759 -7.179429,-18.26628 -4.10756,-5.15809 -9.50847,-9.53948 -15.23666,-13.54675 -5.57908,-3.82024 -11.93167,-6.74595 -18.53849,-9.25485 -6.59898,-2.29802 -13.34947,-4.30319 -20.22266,-6.00705 -7.27894,-1.88873 -14.62921,-3.56466 -22.08708,-4.93378 -8.78353,-1.52434 -17.69938,-2.46358 -26.61995,-3.29239 -8.77012,-0.74789 -17.55888,-1.37378 -26.36588,-1.75958 -7.91258,-0.36118 -15.80026,0.13653 -23.60821,1.13906 -6.59305,0.87445 -12.90627,2.54235 -18.86853,4.92826 -6.304302,2.7866 -10.973182,7.03864 -14.857172,11.79398 -3.62814,4.75404 -5.3333,10.10492 -6.1246,15.57965 -0.64198,5.41941 0.46971,10.76367 2.17297,15.98831 2.35557,6.80926 7.86067,12.20428 14.04322,17.05155 6.501302,4.88925 14.493962,7.91591 22.732492,10.43083 9.38729,2.46085 19.12821,3.88727 28.84914,5.20105 8.51757,1.13079 17.09122,1.95777 25.67072,2.71877 6.8902,0.67064 13.83395,0.92405 20.72396,1.58141 5.26103,0.48641 10.48721,1.12224 15.59322,2.25776 4.97437,1.08729 9.87987,2.35114 14.76839,3.65994 4.5074,1.2292 9.01326,2.46381 13.54033,3.64612 4.53972,1.17962 9.14952,2.15914 13.86067,2.77042 6.78431,0.6911 12.91289,-0.89755 18.61624,-3.7014 4.34078,-2.3783 7.38411,-5.75339 9.970709,-9.34754 2.02701,-2.91242 3.40191,-6.05408 4.53121,-9.24977 1.0026,-3.40627 1.4675,-6.89793 1.7019,-10.38655 0.2578,-3.7718 -0.3553,-7.51976 -1.3093,-11.20364 -0.9782,-3.75244 -2.7661,-7.31118 -4.82951,-10.75495 -2.209499,-3.65719 -5.344029,-6.83705 -8.605129,-9.91793 -3.29153,-3.14126 -7.16781,-5.79791 -11.33537,-8.15987 -3.97214,-2.21326 -8.06492,-4.27994 -12.2941,-6.1632 -4.04749,-1.73419 -8.24975,-3.21263 -12.5384,-4.51788 -4.13847,-1.2012 -8.36157,-2.19773 -12.62029,-3.0846 -4.1726,-0.85205 -8.40479,-1.49319 -12.66002,-2.01261 -5.57184,-0.63266 -11.19,-0.90236 -16.80623,-1.12241 -7.48954,-0.26841 -14.9841,-0.43248 -22.47854,-0.58356 -7.86565,-0.036 -15.74102,0.18949 -23.58578,0.64698 -8.17552,0.53761 -16.32175,1.32974 -24.44719,2.22326 -7.41962,0.78277 -14.7847,1.83706 -22.06567,3.21756 -7.134972,1.35001 -13.588112,3.92609 -19.528012,7.30293 -5.3215,3.24609 -9.23354,7.52763 -12.35582,12.20434 -3.42039,5.18293 -3.88278,10.18829 -2.95473,15.9086 1.32619,6.20461 5.16493,11.65146 9.43836,16.83242 4.46838,5.42826 10.63926,9.60568 17.20461,13.32536 5.313952,2.96365 11.097882,5.28483 17.064732,7.26885 11.0013,3.24183 5.46706,1.70753 13.23049,-17.10085 0.0173,-0.0417 -2.27397,-0.88314 -2.49096,-0.96375 -3.23287,-1.29945 -6.57354,-2.41462 -9.87443,-3.59613 -3.86479,-1.45152 -7.68016,-3.00072 -11.30325,-4.8105 -3.359502,-1.66364 -6.384022,-3.68175 -9.187412,-5.89745 -2.90963,-2.28374 -5.09049,-5.00893 -7.10308,-7.81914 -1.9483,-2.77468 -3.4903,-5.70962 -4.61478,-8.75849 -0.10915,-0.72202 -0.73085,-1.81358 -0.42743,-2.59395 0.0322,-0.0828 0.0633,0.23445 0.17036,0.22143 0.12574,-0.0153 0.16472,-0.36495 0.1889,-0.2651 0.0541,0.22365 -0.0591,0.45314 -0.0886,0.67971 -0.16024,0.32301 -0.49954,0.62185 -0.48077,0.96903 0.0104,0.19232 0.36224,-0.17281 1.7773,-0.78176 1.70311,-0.73291 3.56868,-1.21316 5.37878,-1.73928 4.46571,-1.22967 9.10714,-2.05766 13.773612,-2.62254 6.16462,-0.0801 12.33223,0.69133 18.43125,1.35633 10.63873,1.4351 21.27467,2.89255 31.82292,4.71005 11.09836,1.96287 22.10623,4.24273 33.03637,6.73361 8.88326,2.00283 17.75147,4.0444 26.50693,6.38229 5.94647,1.37797 11.48703,3.48374 16.32915,6.56729 2.44196,1.59216 4.35518,3.49941 4.74805,6.04013 -0.51513,0.66035 0.20128,-0.10074 -0.40964,-0.0212 -0.15355,0.02 -0.11637,0.25711 -0.25592,0.31213 -0.14132,0.0557 -0.14746,-0.25162 -0.29535,-0.29516 -0.10286,-0.0303 -0.21921,0.002 -0.3288,0.003 -3.9925,1.58742 -8.43318,1.97739 -12.80587,2.34768 -8.14967,0.60734 -16.34241,0.47185 -24.51431,0.36664 -8.46772,-0.12451 -16.89555,-0.74448 -25.29101,-1.59607 -8.06897,-0.43075 -15.16607,-3.04039 -22.15972,-6.06961 -5.2257,-2.50583 -10.86393,-5.17234 -13.58671,-9.72281 -0.16443,-0.40829 -0.39573,-0.8031 -0.49326,-1.2249 -0.30108,-1.30172 0.46312,-0.10307 0.50645,0.0315 0.1132,0.35173 0.11872,0.7226 0.11397,1.08577 -0.005,0.31637 -0.35667,0.67742 -0.14062,0.94247 0.15694,0.19255 0.57255,-0.0409 0.8588,-0.0613 8.0693,-3.0164 16.83196,-4.51774 25.50134,-5.96821 11.15234,-1.78548 22.48785,-2.61021 33.8084,-3.34713 6.85138999,-0.21389 14.14191,-1.22747 20.70711,0.82533 1.48661,0.20671 2.98668,2.67042 1.33697,0.84471 -0.98098,-1.34527 -0.41097,-2.83692 0.0551,-4.21169 0.15721,-0.46366 1.32959,-1.16884 0.75488,-1.30868 -0.66337,-0.16141 -1.3349,0.30045 -2.00233,0.45067 -8.55641,1.47964 -17.31258,1.95586 -26.0426,2.14679 -9.47153,0.21421 -18.93663,-0.0675 -28.38674,-0.55852 -6.69214,-0.86745 -13.8146,-0.33938 -20.36,-1.88062 12.45167,6.81527 6.96655,1.21405 2.20455,18.00576 -0.0584,0.20577 0.52013,0.0919 0.78393,0.0875 1.12185,-0.0185 2.23941,-0.12065 3.36064,-0.15579 4.39793,-0.13782 5.62677,-0.0958 10.19016,-0.0894 11.97495,-0.005 23.92465,0.65585 35.8496903,1.46489 9.42858969,0.61026 18.8378897,1.24977 28.0917197,2.85473 0.66028,0.1922 1.32056,0.3844 1.98087,0.57659 0.13557,0.10011 0.55919,0.38351 0.40678,0.30032 -1.12001,-0.6113 -2.94591,-0.84324 -3.31374,-1.88695 -1.21876,-3.45816 -1.6457,-7.17052 -1.13649,-10.74026 0.37744,-2.64591 5.66751,-3.0789 1.42199,-2.5071 -8.20443,1.29278 -16.51285,2.10909 -24.81027,2.91141 -7.59556,0.70963 -15.20777,1.33736 -22.84422,1.67701 -8.20583,0.21777 -16.43212,-0.14231 -24.57798,-0.93458 -6.47655,-0.69613 -12.94012,-1.81211 -18.818,-4.15442 -3.81508,-1.99381 0.12003,-1.33424 0.73323,1.80197 0.78379,4.00862 0.0327,4.4288 -1.80717,7.09015 10.87585,-2.12987 22.02911,-2.56093 33.17713,-2.6473 17.41487,0.15223 34.83169,0.47429 52.21261,1.37843 5.65299,0.36541 11.28446,0.95687 16.79058,2.06243 2.37658,0.47719 4.51044,0.92592 6.51983,2.02711 -1.08988,0.0277 -1.15921,0.0867 -2.22858,-1.48605 -2.3633,-3.47585 -2.36713,-6.84004 0.61207,-9.99408 3.55074,-2.81739 10.25445,-0.63477 12.88112,2.07595 0.75105,0.29077 0.36095,1.76952 0.98279,1.74953 1.52008,-0.64718 2.98223,-1.8655 4.83004,-1.7797 1.28916,0.22784 -0.86849,0.20436 -1.13405,0.13177 -2.82846,-1.48294 -3.65338,-4.01775 -3.29936,-6.57826 -3.07144,2.14142 -6.54869,3.84544 -10.2012,5.29191 -6.96132,2.45968 -14.26787,4.27245 -21.70854,5.52477 -7.21107,1.00869 -14.55046,1.34008 -21.79338,0.43814 -5.65694,-0.82953 -10.45208,-3.23507 -15.04169,-5.87299 -1.51377,-2.26641 3.75073,2.85275 3.20276,4.53159 -1.33924,4.10303 -5.60395,7.20141 -8.51819,10.74416 -0.98865,1.20187 -4.16851,-0.36178 3.13471,1.13176 1.70005,0.34766 3.38923,0.7284 5.08386,1.09261 1.86875,0.41898 3.74192,0.8256 5.60628,1.25695 4.71059,1.08988 9.57184,2.18029 14.07451,3.7629 0.55138,0.1938 2.02717,1.03587 1.55174,0.7402 -0.98477,-0.61242 -2.05690001,-1.12929 -3.08537001,-1.69396 -1.69123999,-20.62201 -3.82247999,-5.02989 2.77477001,-13.6906 0.25575,-0.33574 -0.98339,0.0104 -1.47432,0.031 -3.9561,0.16578 -7.87971,0.24952 -11.84332,0.26655 -10.42976,-0.11765 -20.8358,-0.9162 -31.19091,-1.87804 -5.70954,-0.68842 -11.48722,-1.57996 -16.85708,-3.34227 -1.89639,-0.62237 -3.97488,-1.62058 -5.74758,-2.42034 -2.41858,-1.20378 -4.78968,-2.47959 -6.90684,-4.01112 -0.78414,-0.56724 -2.92587,-2.4381 -2.1398,-1.87255 0.44213,0.31811 0.77915,0.71874 1.16874,1.07812 1.11813,3.72714 1.86299,3.58935 -0.0457,7.19791 -0.3311,0.62596 -1.04339,1.07383 -1.53027,1.63091 -0.0549,0.0629 -0.18268,0.22244 -0.0868,0.21937 0.91413,-0.0293 1.75535,-0.41307 2.63593,-0.61154 4.96039,-1.09973 14.62172,-2.6194 14.08033,-8.55738 -1.08636,-11.91535 -5.65286,-11.72356 -13.66884,-12.95436 -6.71836,-0.40607 -15.0227,-1.54449 -21.6158,-0.24714 -2.00432,0.3944 -3.90392,1.07345 -5.85587,1.61017 -1.785072,1.12294 -3.854732,2.00537 -5.355162,3.36881 -4.4956,4.08513 -5.64541,9.97491 -3.06157,14.99123 1.93916,3.76476 4.22602,5.0444 7.631322,7.63076 6.57576,4.29279 14.20045,7.67065 23.01187,6.43056 1.70148,-0.23945 3.28539,-0.85566 4.92809,-1.28349 7.39501,-3.03988 10.92635,-7.56927 12.57986,-13.8872 1.04621,-6.29833 -1.8928,-10.84216 -7.43035,-15.11802 -2.83895,-1.81851 -1.30157,-0.94013 -4.64278,-2.6005 -57.392972,-25.9592 -69.539592,-8.78609 -12.14662,17.17305 v 0 c -0.45922,-0.36419 -0.47543,-0.33877 0.0822,-0.0547 0.0937,0.0433 0.24592,0.21154 0.28124,0.12974 0.17957,-0.41581 -1.37508,-2.23252 -0.46803,-2.83182 0.47215,-0.572 1.34716,-0.89863 2.29827,-1.03705 0.91732,-0.0291 3.43787,0.1343 2.67078,0.53756 -1.18826,0.62466 -3.72144,-1.95634 -4.76351,-2.19744 -0.32881,-0.17297 -0.74335,-0.76648 -0.9864,-0.51892 -0.32135,0.32734 0.26331,0.81096 0.29172,1.2265 0.2005,2.93013 -1.41302,5.09005 -4.92729,6.07968 -0.37378,-0.0224 -1.47866,0.0235 -1.12136,-0.0672 4.46334,-1.13213 10.28051,0.0759 14.84769,0.16573 5.86771,-1.05684 -6.74556,1.33482 -6.39015,-11.7147 0.14517,-5.32948 12.28989,-7.27567 5.21266,-5.73735 -0.8314,0.18072 -1.66175,0.36455 -2.49261,0.54683 -7.73376,1.88052 -16.07033,4.81665 -17.38766,12.20698 -0.36433,2.04396 0.53971,4.10664 0.80957,6.15995 0.8911,1.27898 1.64644,2.6248 2.6733,3.83693 3.75441,4.43181 10.48686,7.44762 15.89552,10.35409 3.93262,1.71138 5.36941,2.45331 9.64741,3.805 7.05115,2.22786 14.57373,3.41468 22.04487,4.28412 11.34622,1.04671 22.74737,1.91398 34.17585,2.00852 6.73627,-0.0354 26.1738,0.4462 29.43645,-5.49337 2.1152,-3.85068 0.51275,-8.40164 0.76916,-12.60246 -1.74311,-1.33454 -3.29899,-2.84549 -5.22927,-4.00362 -1.87947,-1.12761 -7.04632,-2.58941 -9.15758,-3.18642 -5.65496001,-1.59908 -11.42159,-2.91643 -17.20572,-4.17841 -2.69216,-0.57177 -16.61338,-3.82632 -18.72217,-2.61288 -13.88108,7.98754 -15.64513,12.50721 -4.83262,20.26036 7.85029,4.42169 16.255,8.10125 25.8760203,9.32294 10.15549969,1.07754 20.3795097,0.8925 30.4593597,-0.68973 9.52296,-1.67838 18.91116,-3.94002 27.7609,-7.25638 7.39623,-3.09941 14.57848,-6.67056 19.64077,-12.11639 0.74347,-1.04376 1.62181,-2.03309 2.23048,-3.13127 3.4397,-6.20625 1.34668,-12.18133 -4.67296,-16.70498 -5.65986,-3.16993 -11.90036,-4.79553 -18.87396,-3.75845 -7.07158,1.35392 -13.36415,3.93008 -18.44107,8.18052 -0.85867,0.85881 -1.81346,1.66143 -2.57601,2.57642 -4.05598,4.86675 -4.84165,10.57003 -2.57628,16.07852 1.19002,1.91507 2.43511,4.536 4.7767,5.85139 7.47408,4.19856 12.75598,4.08724 20.01348,0.33804 2.16773,-1.43212 4.3483,-2.62232 5.57365,-4.81785 3.95682,-7.08968 0.76536,-12.62408 -6.76281,-16.67997 -10.68971,-4.51739 -21.80959,-5.74155 -33.75656,-6.55763 -18.01047,-0.92974 -36.05728,-1.27937 -54.10297,-1.4183 -12.66636,0.14095 -28.35095,0.41111 -40.42083,3.80402 -2.17619,0.61175 -4.21495,1.49994 -6.32244,2.24991 -2.08535,1.54788 -4.88095,2.65176 -6.25604,4.64364 -6.512122,9.43305 1.01831,16.36905 10.67952,20.63549 8.38907,3.06842 17.24208,5.06446 26.42906,5.89787 9.57803,0.8874 19.23445,1.35647 28.87861,1.03962 8.15803,-0.37751 16.29342,-1.01735 24.40773,-1.78807 9.3941,-0.90943 18.80868,-1.82631 28.07027,-3.40656 3.81431,-0.88321 11.16258,-2.08731 12.75389,-5.48716 5.71959,-12.21991 -1.74853,-15.93618 -13.1621,-18.63817 -10.28311,-1.74828 -20.7084,-2.58765 -31.18504,-3.22323 -12.61081,-0.85211 -25.24761,-1.54301 -37.91072,-1.53522 -5.73974,4e-5 -11.62832,-0.15245 -17.33451,0.47604 -1.81003,0.19936 -4.3728,-0.37223 -5.37779,0.84798 -12.48729,15.16135 -11.28245,12.75868 0.054,19.6752 8.14684,1.57021 16.55481,1.77909 24.86827,2.45185 10.21532,0.52481 20.44702,0.82595 30.68486,0.59143 11.22370999,-0.26793 22.52665,-0.89655 33.41697,-3.22729 1.73704,-0.51641 3.56207,-0.87305 5.21107,-1.54926 9.27441,-3.80316 13.65048,-9.79319 11.35951,-18.12986 -0.57169,-1.13176 -1.01518,-2.31056 -1.71511,-3.39526 -3.15631,-4.89141 -9.16007,-7.98823 -15.29979,-10.06433 -1.49215,-0.37152 -2.95857,-0.81706 -4.47644,-1.11458 -8.51429,-1.66888 -17.37164001,-1.08881 -26.0174497,-0.65279 -12.3510603,0.80603 -24.7141503,1.7352 -36.8767503,3.70344 -11.5832,1.95319 -23.29737,4.07319 -33.7613,8.67556 -4.87703,2.83152 -7.0924,3.44839 -10.03923,7.90373 -3.85655,5.83074 -2.24886,12.24346 1.19394,17.83587 0.96367,1.25075 1.82286,2.55697 2.89097,3.75223 5.20275,5.82219 12.73146,9.90474 20.35934,13.442 9.66095,4.11822 19.68326,7.53274 30.73141,8.25972 9.29201,0.93817 18.62135,1.61504 27.99226,1.7496 9.22381,0.1181 18.47097,0.24038 27.66547,-0.48749 9.26339,-0.8658 18.44559,-2.29629 26.04588,-6.93213 1.17228,-0.87221 2.45163,-1.66062 3.51687,-2.61662 5.24785,-4.7097 6.94186,-10.89069 5.76598,-17.01681 -2.45912,-7.33764 -6.25409,-12.26516 -13.71919,-17.08056 -7.12992,-4.28624 -14.92618,-7.64747 -23.54231,-9.62991 -9.1057,-2.42461 -18.31910001,-4.56551 -27.5576197,-6.64178 -11.4516703,-2.6028 -22.9797003,-4.99846 -34.6077003,-7.04702 -11.16543,-1.91285 -22.41584,-3.47943 -33.68048,-4.97021 -8.45648,-0.91729 -17.04404,-1.9868 -25.586152,-1.29701 -6.26891,0.80701 -12.50694,1.89105 -18.49486,3.60641 -7.84386,2.34377 -15.19635,5.20259 -20.01137,10.95351 -0.63544,1.15803 -1.38849,2.2792 -1.90633,3.47409 -1.86989,4.31465 -1.12294,9.01445 0.33828,13.30911 1.72551,4.48265 3.94283,8.83046 6.86423,12.90835 3.16392,4.35229 6.69231,8.52759 11.22315,12.0606 4.13621,3.20806 8.55868,6.16336 13.48235,8.58046 4.57163,2.23483 9.30891,4.24311 14.181762,6.0278 3.19864,1.14233 6.43267,2.22529 9.56458,3.48331 7.99107,2.95705 18.77913,-16.8037 9.08558,-18.06095 -4.30094,-1.4192 -8.48578,-3.05252 -12.31964,-5.18189 -4.09077,-2.27495 -8.05876,-4.7493 -10.850192,-8.10995 -2.30799,-2.74359 -4.62603,-5.5691 -5.58355,-8.83179 -0.40848,-1.48292 -0.58655,-2.49813 0.46691,-3.91716 1.19506,-2.01655 2.86145,-3.8493 4.96715,-5.32289 3.196872,-1.96597 6.811642,-3.26957 10.727152,-4.06046 6.49923,-1.24786 13.08599,-2.15674 19.7108,-2.86417 7.61567,-0.84093 15.25177,-1.58181 22.91407,-2.09322 7.02556,-0.43036 14.08463,-0.59855 21.12968,-0.59862 7.30092,0.14707 14.60202,0.30636 21.89829,0.5664 4.78556999,0.18568 9.57322,0.40139 14.32361,0.9246 3.41197,0.40608 6.80173,0.92895 10.1482,1.60152 3.40187,0.70256 6.77255,1.4972 10.08372,2.43969 3.18625,0.95667 6.29756,2.05806 9.31288,3.32274 3.48842,1.53509 6.8339,3.26274 10.1093,5.07214 2.46785,1.34728 4.71465,2.91516 6.65071,4.7442 1.94154,1.8323 3.92766,3.65398 5.26466,5.82779 1.26047,1.98103 2.27799,4.06948 2.87715,6.24361 0.58389,2.00336 0.89946,4.06567 0.785,6.12475 -0.0846,2.01728 -0.43688,4.0218 -0.822,6.01493 -0.56754,1.66335 -1.22703,3.30856 -2.24163,4.83809 -0.60605,0.89336 -1.25528,1.78998 -2.05338,2.57677 -0.67523,0.55726 -0.23915,0.54583 -1.46576,0.66564 -3.35323,-0.25986 -6.56379,-1.32638 -9.80086,-2.00774 -4.46782,-1.1642 -8.91169,-2.38731 -13.35986,-3.59841 -5.33827,-1.42914 -10.69843,-2.80162 -16.12988,-3.98985 -6.30597,-1.34951 -12.71726,-2.25088 -19.20862001,-2.81588 -6.94056999,-0.63504 -13.92015999,-0.95362 -20.86131999,-1.59391 -8.11637,-0.71906 -16.22781,-1.49724 -24.28608,-2.56415 -8.15098,-1.09677 -16.31287,-2.27642 -24.23266,-4.20256 -5.11005,-1.52162 -10.18591,-3.21818 -14.30675,-6.16169 -3.03057,-2.2854 -6.0906,-4.75281 -7.36853,-8.00511 -1.04073,-2.89382 -1.71031,-5.88122 -1.44066,-8.90384 0.15047,-2.4107 1.01097,-4.80992 2.402,-6.94908 1.39121,-1.88235 3.11544,-3.62182 5.40167,-4.85995 3.50478,-1.61293 7.55227,-2.3028 11.47033,-2.96445 6.04826,-0.80778 12.16393,-1.18006 18.29887,-0.91002 8.30356,0.35439 16.58798,0.96295 24.85714,1.65707 8.02877,0.74302 16.055,1.57503 23.96497,2.92779 6.86585999,1.24824 13.61714,2.82354 20.31704,4.55446 5.77422,1.41283 11.42429,3.12131 16.98439,5.0044 4.59591,1.70702 9.0182,3.70742 12.90986,6.32961 3.85312,2.61094 7.4603,5.53924 10.3031,8.8884 2.23375,2.86725 3.70393,4.83706 3.57919,8.37785 0.11425,3.41266 -0.0703,6.79669 -1.46463,10.06141 -1.12484,2.52215 -2.45908,4.99532 -4.59993,7.08737 -2.17283,1.99302 -4.80831,3.68137 -7.62552,5.05844 -3.41952,1.4856 -7.03325,2.54729 -10.93083,2.89037 -6.23033,0.47511 -12.47693,0.31379 -18.72247,0.0867 -7.74516,-0.23498 -15.48856,-0.50921 -23.2276397,-0.85023 -8.1626603,-0.38589 -16.3174403,-0.86822 -24.4816503,-1.23203 -8.23061,-0.39401 -16.4601,-0.82689 -24.66586,-1.48133 -7.92379,-0.64601 -15.83752,-1.4106 -23.67224,-2.5744 -7.32158,-1.10784 -14.66977,-2.27309 -21.706912,-4.2738 -5.09922,-1.54688 -10.21773,-3.1611 -14.81319,-5.5465 -2.61529,-1.47264 -4.59991,-3.31309 -6.10447,-5.59055 -2.38408,-3.40984 -4.67762,-6.89761 -6.01528,-10.67464 -1.08146,-3.34017 -2.10174,-6.7336 -2.01868,-10.2094 0.17726,-2.81393 0.8729,-5.62857 1.90472,-8.31929 0.97401,-2.33122 2.07131,-4.63406 3.78431,-6.69413 1.68055,-1.89407 3.62485,-3.54943 6.17584,-4.71089 3.35021,-1.59947 6.86102,-3.00408 10.67778,-3.73851 4.51723,-0.75187 9.11192,-1.25392 13.716512,-1.49091 5.49561,-0.27668 11.00276,-0.36414 16.50873,-0.31001 5.87975,0.0101 11.75949,0.0224 17.63921,0.0403 5.6488,0.0182 11.2976,0.0405 16.94634,0.0716 6.04618,0.0341 12.09237,0.0699 18.13826,0.12729 5.2458,0.0532 10.49155,0.11605 15.73607,0.22476 4.70829,0.10273 9.41567,0.23024 14.12104,0.39901 5.23467,0.18921 10.46955,0.38993 15.69545,0.70193 4.98512,0.3114 9.96978,0.65611 14.92314,1.21251 4.54501,0.52825 9.08706,1.11203 13.53831,2.03261 3.74672,0.82063 7.43833,1.79546 10.88631,3.25122 3.64281,1.52817 7.03868,3.38958 10.19212,5.50423 3.72762,2.56963 7.40442,5.26025 10.30862,8.45654 2.50753,2.83605 4.599929,5.88774 5.859239,9.2285 1.0851,3.10098 1.6908,6.2778 1.7456,9.50337 -0.048,3.46293 -0.6288,6.89651 -1.2337,10.32192 -0.6877,3.56059 -1.43621,7.11869 -2.57141,10.60876 -1.193399,3.54293 -2.464729,7.08422 -4.349229,10.43924 -1.5199,2.65042 -3.2079,5.27842 -5.63813,7.47955 -2.56056,1.95867 -5.85165,2.94073 -9.26033,3.56276 -5.09122,0.96881 -10.27149,1.56667 -15.51162,1.66311 -6.93794,0.21907 -13.87807,0.0349 -20.81867,-0.0216 -7.73152,-0.092 -15.46301,-0.19224 -23.193,-0.34701 -7.94401,-0.16197 -15.88771,-0.34324 -23.82718,-0.61526 -7.78835,-0.27577 -15.57491,-0.59771 -23.34767,-1.0855 -7.833,-0.50004 -15.66152,-1.06787 -23.44988,-1.91401 -8.4576,-0.91344 -16.90706,-1.92165 -25.2554,-3.35372 -8.017022,-1.4536 -15.978202,-3.15058 -23.578132,-5.69666 -7.03578,-2.38819 -13.90188,-5.12633 -19.84659,-9.03071 -4.48732,-2.98358 -6.15325,-5.90902 -7.8305,-10.37283 -1.83809,-5.15799 -2.54909,-10.46575 -2.15002,-15.83265 0.31694,-4.66799 1.41237,-8.22997 4.43966,-12.30719 2.76593,-4.03232 5.84267,-7.93279 9.97212,-11.17847 4.00647,-3.07138 8.50681,-5.70871 13.53525,-7.62193 5.44991,-1.85612 11.21211,-2.93736 17.10611,-3.42588 7.343932,-0.60744 14.705242,-0.99115 22.093882,-0.81191 8.60009,0 17.20018,0 25.80028,0 9.36848,0 18.73694,0 28.10541,0 8.43595,0 16.87192,0 25.30787999,0 4.73373001,0 9.46744001,0 14.20117001,0 65.93749,0 65.93749,-19.72978 0,-19.72978 z" />
    <path
       style="fill:#f2f2f2;fill-opacity:0.8888889;stroke-width:0.22063"
       id="path9-2"
       d="m 363.656,-45.714606 c -4.73373,0 -9.46745,0 -14.20118,0 -8.43596,0 -16.87192,0 -25.30788,0 -9.36846,0 -18.73692,0 -28.1054,0 -8.6001,0 -17.20019,0 -25.80029,0 -8.22852,-0.182769 -16.43076,0.248936 -24.61098,0.91486 -8.28387,0.629589 -16.2829,2.327398 -23.97765,4.807258 -7.85779,2.767495 -14.73963,6.835818 -21.01152,11.46668 -6.05062,4.634549 -10.64099,10.208484 -14.69337,16.024522 -4.85396,6.7537269 -6.69616,12.74581587 -7.4652,20.4798359 -0.64444,7.6027701 0.51531,15.1023601 2.96835,22.4338801 2.26542,5.90749 5.3239,11.75317 10.60411,16.37588 1.35101,1.18276 2.89695,2.21309 4.3454,3.31962 7.95801,5.47392 17.24338,9.33802 26.82407,12.63088 8.95765,3.02429 18.33969,5.06326 27.79698,6.7919 9.06393,1.57087 18.24027,2.67316 27.42637,3.66815 8.23403,0.89538 16.51015,1.49954 24.79149,2.02935 8.06342,0.507 16.14115,0.84226 24.22079,1.12885 8.09384,0.27776 16.19196,0.46294 24.2904,0.62819 7.81733,0.15662 15.63616,0.25819 23.45501,0.35125 7.37409,0.083 14.74547,0.2242 22.11711,0.01 6.81716,-0.12645 13.54795,-0.94564 20.1808,-2.16409 7.24016,-1.174 13.55679,-3.91325 19.30869,-7.52416 5.5317,-3.95702 9.2135,-9.08393 12.3448,-14.38572 2.5117,-4.37858 4.2383,-8.99925 5.8111,-13.63774 1.3828,-4.18934 2.3056,-8.46083 3.1357,-12.73844 0.8223,-4.30058 1.3921,-8.6215 1.5199,-12.97069 0.036,-5.0812501 -0.9818,-10.0778001 -2.5812,-14.9778701 -1.9277,-5.542505 -5.3542,-10.5672259 -9.3605,-15.3017739 -4.0488,-4.612583 -9.188,-8.505032 -14.4803,-12.188092 -4.52033,-3.0996 -9.47913,-5.723343 -14.70493,-7.988327 -5.04463,-2.155054 -10.44302,-3.638095 -15.93213,-4.868592 -5.44684,-1.156488 -11.00955,-1.894239 -16.57964,-2.545398 -5.49536,-0.623198 -11.0257,-1.011835 -16.55719,-1.358742 -5.49575,-0.330089 -11.00103,-0.542762 -16.50618,-0.741954 -4.85223,-0.174259 -9.70655,-0.305563 -14.56179,-0.411794 -5.36474,-0.111521 -10.73075,-0.176035 -16.0968,-0.230537 -6.09238,-0.05787 -12.18503,-0.09407 -18.27766,-0.128385 -5.67354,-0.03128 -11.34713,-0.05368 -17.02077,-0.07195 -5.8951,-0.01787 -11.79025,-0.03021 -17.6854,-0.04037 -6.02882,-0.06479 -12.05691,0.05734 -18.07466,0.347085 -5.74178,0.265606 -11.44247,0.952779 -17.08021,1.843004 -6.52632,1.123441 -12.54758,3.398895 -18.28518,6.061354 -5.42157,2.473796 -9.72025,5.998049 -13.46747,9.931028 -3.32289,3.695696 -5.5374,7.871753 -7.37223,12.150955 -1.79346,4.273738 -2.68142,8.7427479 -3.14789,13.2212489 -0.39073,5.61511 1.00879,11.12691 2.72209,16.5359301 1.80666,5.4377 4.96407,10.47223 8.35245,15.37055 3.11514,4.70472 7.55201,8.47337 12.75532,11.72327 6.39676,3.6273 13.6633,6.04179 20.94619,8.26769 8.38214,2.44961 17.14399,3.88964 25.8894,5.22012 8.52596,1.27306 17.13829,2.11082 25.76213,2.81795 8.54986,0.68382 17.12447,1.13734 25.70042,1.5484 8.1703,0.3649 16.3313,0.84631 24.50008,1.23289 7.91258,0.34967 15.82965,0.62992 23.74849,0.87046 7.30263,0.30728 14.59895,0.35562 21.88532,-0.15306 7.14978,-0.55638 13.83386,-2.45747 20.17345,-5.0713 5.39447,-2.35529 10.04876,-5.57372 14.25733,-9.12023 4.44433,-3.97163 7.32873,-8.7295 9.64913,-13.67183 2.50033,-5.56809 3.08803,-11.39861 2.98193,-17.26333 0,-7.0014001 -2.73663,-12.3575901 -7.17943,-18.2662741 -4.10756,-5.1580926 -9.50847,-9.5394829 -15.23666,-13.5467529 -5.57908,-3.820237 -11.93167,-6.745948 -18.53849,-9.254848 -6.59898,-2.298019 -13.34947,-4.303187 -20.22266,-6.007045 -7.27894,-1.888729 -14.62921,-3.56466 -22.08708,-4.933783 -8.78353,-1.524336 -17.69938,-2.463579 -26.61995,-3.29239 -8.77012,-0.747891 -17.55888,-1.373784 -26.36588,-1.759579 -7.91258,-0.361179 -15.80026,0.136524 -23.60821,1.139061 -6.59305,0.874449 -12.90627,2.542351 -18.86853,4.928258 -6.3043,2.786599 -10.97318,7.038643 -14.85717,11.793981 -3.62814,4.754039 -5.3333,10.104914 -6.1246,15.5796503 -0.64198,5.4194036 0.46971,10.7636716 2.17297,15.9883016 2.35557,6.8092601 7.86067,12.2042801 14.04322,17.0515501 6.5013,4.88925 14.49396,7.91591 22.73249,10.43083 9.38729,2.46085 19.12821,3.88727 28.84914,5.20105 8.51757,1.13079 17.09122,1.95777 25.67072,2.71877 6.8902,0.67064 13.83395,0.92405 20.72396,1.58141 5.26103,0.48641 10.48721,1.12224 15.59322,2.25776 4.97437,1.08729 9.87987,2.35114 14.76839,3.65994 4.5074,1.2292 9.01326,2.46381 13.54033,3.64612 4.53972,1.17962 9.14952,2.15914 13.86067,2.77042 6.78431,0.6911 12.91289,-0.89755 18.61624,-3.7014 4.34078,-2.3783 7.38411,-5.75339 9.97071,-9.34754 2.027,-2.91242 3.4019,-6.05408 4.5312,-9.24977 1.0026,-3.40627 1.4675,-6.89793 1.7019,-10.38655 0.2578,-3.7718 -0.3553,-7.51976 -1.3093,-11.20364 -0.9782,-3.7524401 -2.7661,-7.3111801 -4.8295,-10.7549401 -2.2095,-3.657192 -5.34403,-6.837056 -8.60513,-9.917934 -3.29153,-3.1412579 -7.16781,-5.7979109 -11.33537,-8.1598679 -3.97214,-2.213259 -8.06492,-4.279944 -12.2941,-6.163201 -4.04749,-1.734191 -8.24975,-3.212632 -12.5384,-4.51788 -4.13847,-1.201202 -8.36157,-2.197732 -12.62029,-3.084597 -4.1726,-0.852057 -8.40479,-1.493195 -12.66002,-2.012616 -5.57184,-0.632655 -11.19,-0.902361 -16.80623,-1.122403 -7.48954,-0.268411 -14.9841,-0.432488 -22.47854,-0.583562 -7.86565,-0.03601 -15.74102,0.18949 -23.58578,0.646979 -8.17552,0.537612 -16.32175,1.329738 -24.44719,2.223261 -7.41962,0.782769 -14.7847,1.837053 -22.06567,3.217555 -7.13497,1.350016 -13.58811,3.926096 -19.52801,7.302929 -5.3215,3.246091 -9.23354,7.527632 -12.35582,12.2043479 -3.42039,5.182929 -3.88278,10.188289 -2.95473,15.908589 1.32619,6.2046101 5.16493,11.6514601 9.43836,16.8324201 4.46838,5.42826 10.63926,9.60568 17.20461,13.32536 5.31395,2.96365 11.09788,5.28483 17.06473,7.26885 11.0013,3.24183 5.46706,1.70753 13.23049,-17.10085 0.0173,-0.0417 -2.27397,-0.88314 -2.49096,-0.96375 -3.23287,-1.29945 -6.57354,-2.41462 -9.87443,-3.59613 -3.86479,-1.45152 -7.68016,-3.00072 -11.30325,-4.8105 -3.3595,-1.66364 -6.38402,-3.68175 -9.18741,-5.89745 -2.90963,-2.28374 -5.09049,-5.0089301 -7.10308,-7.8191401 -1.9483,-2.77467 -3.4903,-5.70961603 -4.61478,-8.758483 -0.10915,-0.722025 -0.73085,-1.813583 -0.42743,-2.593951 0.0322,-0.08276 0.0633,0.234451 0.17036,0.221429 0.12574,-0.01528 0.16472,-0.364945 0.1889,-0.265095 0.0541,0.223644 -0.0591,0.45314 -0.0886,0.679709 -0.16024,0.323007 -0.49954,0.621847 -0.48077,0.969025 0.0104,0.192323 0.36224,-0.17281 1.7773,-0.781759 1.70311,-0.732913 3.56868,-1.213162 5.37878,-1.739276 4.46571,-1.2296766 9.10714,-2.0576666 13.77361,-2.6225416 6.16462,-0.08008 12.33223,0.691329 18.43125,1.356327 10.63873,1.4351026 21.27467,2.8925546 31.82292,4.7100556 11.09836,1.962865 22.10623,4.24272997 33.03637,6.73361 8.88326,2.00282 17.75147,4.04439 26.50693,6.38228 5.94647,1.3779701 11.48703,3.4837401 16.32915,6.5672901 2.44196,1.59216 4.35518,3.49941 4.74805,6.04013 -0.51513,0.66035 0.20128,-0.10074 -0.40964,-0.0212 -0.15355,0.02 -0.11637,0.25711 -0.25592,0.31213 -0.14132,0.0557 -0.14746,-0.25162 -0.29535,-0.29516 -0.10286,-0.0303 -0.21921,0.002 -0.3288,0.003 -3.9925,1.58742 -8.43318,1.97739 -12.80587,2.34768 -8.14967,0.60734 -16.34241,0.47185 -24.51431,0.36664 -8.46772,-0.12451 -16.89555,-0.74448 -25.29101,-1.59607 -8.06897,-0.43075 -15.16607,-3.04039 -22.15972,-6.06961 -5.2257,-2.50583 -10.86393,-5.17234 -13.58671,-9.7228101 -0.16443,-0.40829 -0.39573,-0.8031 -0.49326,-1.2249 -0.30108,-1.30172 0.46312,-0.10307 0.50645,0.0315 0.1132,0.35173 0.11872,0.7226 0.11397,1.08577 -0.005,0.31637 -0.35667,0.67742 -0.14062,0.94247 0.15694,0.19255 0.57255,-0.0409 0.8588,-0.0613 8.0693,-3.0164 16.83196,-4.51774 25.50134,-5.96821 11.15234,-1.78547003 22.48785,-2.61020303 33.8084,-3.347126 6.85139,-0.213887 14.14191,-1.227469 20.70711,0.82533397 1.48661,0.206713 2.98668,2.67042203 1.33697,0.844702 -0.98098,-1.345262 -0.41097,-2.83691697 0.0551,-4.21168397 0.15721,-0.463657 1.32959,-1.168837 0.75488,-1.30868 -0.66337,-0.161405 -1.3349,0.300447 -2.00233,0.45067 -8.55641,1.479641 -17.31258,1.955864 -26.0426,2.14679 -9.47153,0.214215 -18.93663,-0.06748 -28.38674,-0.558523 -6.69214,-0.867442 -13.8146,-0.339373 -20.36,-1.880616 12.45167,6.815263 6.96655,1.214048 2.20455,18.0057531 -0.0584,0.20577 0.52013,0.0919 0.78393,0.0875 1.12185,-0.0185 2.23941,-0.12065 3.36064,-0.15579 4.39793,-0.13782 5.62677,-0.0958 10.19016,-0.0894 11.97495,-0.005 23.92465,0.65585 35.84969,1.46489 9.42859,0.61026 18.83789,1.24977 28.09172,2.85473 0.66028,0.1922 1.32056,0.3844 1.98087,0.57659 0.13557,0.10011 0.55919,0.38351 0.40678,0.30032 -1.12001,-0.6113 -2.94591,-0.84324 -3.31374,-1.88695 -1.21876,-3.45816 -1.6457,-7.1705201 -1.13649,-10.7402601 0.37744,-2.6459 5.66751,-3.0789 1.42199,-2.50709 -8.20443,1.29277 -16.51285,2.10908 -24.81027,2.9114 -7.59556,0.70963 -15.20777,1.33736 -22.84422,1.67701 -8.20583,0.21777 -16.43212,-0.14231 -24.57798,-0.93458 -6.47655,-0.69613 -12.94012,-1.81211 -18.818,-4.15442 -3.81508,-1.99381003 0.12003,-1.33423 0.73323,1.80197 0.78379,4.00862 0.0327,4.4288 -1.80717,7.0901501 10.87585,-2.1298701 22.02911,-2.5609301 33.17713,-2.6473001 17.41487,0.15223 34.83169,0.47429 52.21261,1.3784301 5.65299,0.36541 11.28446,0.95687 16.79058,2.06243 2.37658,0.47719 4.51044,0.92592 6.51983,2.02711 -1.08988,0.0277 -1.15921,0.0867 -2.22858,-1.48605 -2.3633,-3.4758501 -2.36713,-6.8400401 0.61207,-9.9940801 3.55074,-2.81738003 10.25445,-0.63476 12.88112,2.07595 0.75105,0.29077 0.36095,1.76952 0.98279,1.74953 1.52008,-0.64718 2.98223,-1.8655 4.83004,-1.7797 1.28916,0.22784 -0.86849,0.20436 -1.13405,0.13177 -2.82846,-1.48294 -3.65338,-4.01774004 -3.29936,-6.57825 -3.07144,2.14140997 -6.54869,3.84544 -10.2012,5.2919 -6.96132,2.45968 -14.26787,4.27245 -21.70854,5.52477 -7.21107,1.0086901 -14.55046,1.3400801 -21.79338,0.43814 -5.65694,-0.82953 -10.45208,-3.23507 -15.04169,-5.87299 -1.51377,-2.26641 3.75073,2.85275 3.20276,4.53159 -1.33924,4.1030301 -5.60395,7.2014101 -8.51819,10.7441601 -0.98865,1.20187 -4.16851,-0.36178 3.13471,1.13176 1.70005,0.34766 3.38923,0.7284 5.08386,1.09261 1.86875,0.41898 3.74192,0.8256 5.60628,1.25695 4.71059,1.08988 9.57184,2.18029 14.07451,3.7629 0.55138,0.1938 2.02717,1.03587 1.55174,0.7402 -0.98477,-0.61242 -2.0569,-1.12929 -3.08537,-1.69396 -1.69124,-20.6220101 -3.82248,-5.02989 2.77477,-13.6906 0.25575,-0.33574 -0.98339,0.0104 -1.47432,0.031 -3.9561,0.16578 -7.87971,0.24952 -11.84332,0.26655 -10.42976,-0.11765 -20.8358,-0.9162 -31.19091,-1.87804 -5.70954,-0.6884201 -11.48722,-1.5799601 -16.85708,-3.3422701 -1.89639,-0.62237 -3.97488,-1.62058 -5.74758,-2.42034 -2.41858,-1.20378 -4.78968,-2.47958 -6.90684,-4.01111003 -0.78414,-0.567245 -2.92587,-2.43809897 -2.1398,-1.87255797 0.44213,0.318112 0.77915,0.71874297 1.16874,1.07811997 1.11813,3.72714803 1.86299,3.58935803 -0.0457,7.19790803 -0.3311,0.62596 -1.04339,1.07383 -1.53027,1.63091 -0.0549,0.0629 -0.18268,0.22244 -0.0868,0.21937 0.91413,-0.0293 1.75535,-0.41307 2.63593,-0.61154 4.96039,-1.09973 14.62172,-2.6194 14.08033,-8.55737403 -1.08636,-11.91534487 -5.65286,-11.72355787 -13.66884,-12.95436287 -6.71836,-0.40607 -15.0227,-1.544485 -21.6158,-0.24714 -2.00432,0.394401 -3.90392,1.073449 -5.85587,1.610173 -1.78507,1.122938 -3.85473,2.005368 -5.35516,3.3688083 -4.4956,4.0851296 -5.64541,9.9749056 -3.06157,14.9912256 1.93916,3.76476 4.22602,5.0444001 7.63132,7.6307601 6.57576,4.29279 14.20045,7.67065 23.01187,6.43056 1.70148,-0.23945 3.28539,-0.85566 4.92809,-1.28349 7.39501,-3.03988 10.92635,-7.56927 12.57986,-13.8872001 1.04621,-6.298325 -1.8928,-10.84215 -7.43035,-15.1180089 -2.83895,-1.818512 -1.30157,-0.940139 -4.64278,-2.600505 -57.39297,-25.9592 -69.53959,-8.786093 -12.14662,17.1730439 v 0 c -0.45922,-0.36419 -0.47543,-0.33877 0.0822,-0.0547 0.0937,0.0433 0.24592,0.21154 0.28124,0.12974 0.17957,-0.41581 -1.37508,-2.23251 -0.46803,-2.83181 0.47215,-0.572 1.34716,-0.89864004 2.29827,-1.03705003 0.91732,-0.0291 3.43787,0.13428999 2.67078,0.53755003 -1.18826,0.62467 -3.72144,-1.95633503 -4.76351,-2.19743503 -0.32881,-0.17296997 -0.74335,-0.76647397 -0.9864,-0.51891897 -0.32135,0.327336 0.26331,0.81095997 0.29172,1.22650497 0.2005,2.93012903 -1.41302,5.09003903 -4.92729,6.07966903 -0.37378,-0.0224 -1.47866,0.0235 -1.12136,-0.0672 4.46334,-1.13213 10.28051,0.0759 14.84769,0.16573 5.86771,-1.05684 -6.74556,1.33482 -6.39015,-11.71469 0.14517,-5.3294799 12.28989,-7.2756719 5.21266,-5.7373549 -0.8314,0.180717 -1.66175,0.364553 -2.49261,0.546828 -7.73376,1.8805233 -16.07033,4.8166529 -17.38766,12.2069769 -0.36433,2.04397 0.53971,4.10664 0.80957,6.15995 0.8911,1.27898 1.64644,2.6248001 2.6733,3.8369301 3.75441,4.43181 10.48686,7.44762 15.89552,10.35409 3.93262,1.71138 5.36941,2.45331 9.64741,3.805 7.05115,2.22786 14.57373,3.41468 22.04487,4.28412 11.34622,1.04671 22.74737,1.91398 34.17585,2.00852 6.73627,-0.0354 26.1738,0.4462 29.43645,-5.49337 2.1152,-3.85068 0.51275,-8.40164 0.76916,-12.60246 -1.74311,-1.33454 -3.29899,-2.84549 -5.22927,-4.0036201 -1.87947,-1.12761 -7.04632,-2.58941 -9.15758,-3.18642 -5.65496,-1.59908 -11.42159,-2.91643 -17.20572,-4.1784 -2.69216,-0.57177 -16.61338,-3.826327 -18.72217,-2.61288403 C 304.90938,7.5830199 303.14533,12.10269 313.95784,19.85584 c 7.85029,4.42169 16.255,8.10125 25.87602,9.32294 10.1555,1.07754 20.37951,0.8925 30.45936,-0.68973 9.52296,-1.67838 18.91116,-3.94002 27.7609,-7.25638 7.39623,-3.09941 14.57848,-6.67056 19.64077,-12.1163901 0.74347,-1.04376 1.62181,-2.03309 2.23048,-3.13127 3.4397,-6.20624703 1.34668,-12.181326 -4.67296,-16.7049779 -5.65986,-3.16993 -11.90036,-4.79553 -18.87396,-3.758442 -7.07158,1.353914 -13.36415,3.930072 -18.44107,8.1805159 -0.85867,0.858809 -1.81346,1.661435 -2.57601,2.57642 -4.05598,4.866744 -4.84165,10.570024 -2.57628,16.0785141 1.19002,1.91507 2.43511,4.536 4.7767,5.85139 7.47408,4.19856 12.75598,4.08724 20.01348,0.33804 2.16773,-1.43212 4.3483,-2.62232 5.57365,-4.81785 3.95682,-7.0896801 0.76536,-12.6240801 -6.76281,-16.6799651 -10.68971,-4.517391 -21.80959,-5.7415436 -33.75656,-6.5576326 -18.01047,-0.9297323 -36.05728,-1.2793643 -54.10297,-1.4182993 -12.66636,0.140952 -28.35095,0.411112 -40.42083,3.8040249 -2.17619,0.611744 -4.21495,1.499941 -6.32244,2.249911 -2.08535,1.547882 -4.88095,2.651761 -6.25604,4.64364197 -6.51212,9.43303903 1.01831,16.36903913 10.67952,20.63547913 8.38907,3.06842 17.24208,5.06446 26.42906,5.89787 9.57803,0.8874 19.23445,1.35647 28.87861,1.03962 8.15803,-0.37751 16.29342,-1.01735 24.40773,-1.78807 9.3941,-0.90943 18.80868,-1.82631 28.07027,-3.40656 3.81431,-0.88321 11.16258,-2.08731 12.75389,-5.48716 5.71959,-12.2199101 -1.74853,-15.93618014 -13.1621,-18.6381671 -10.28311,-1.748278 -20.7084,-2.587642 -31.18504,-3.223231 -12.61081,-0.852103 -25.24761,-1.543003 -37.91072,-1.53522 -5.73974,4e-5 -11.62832,-0.152441 -17.33451,0.476044 -1.81003,0.199358 -4.3728,-0.372233 -5.37779,0.847977 -12.48729,15.161347 -11.28245,12.758677 0.054,19.6751971 8.14684,1.57021 16.55481,1.77909 24.86827,2.45185 10.21532,0.52481 20.44702,0.82595 30.68486,0.59143 11.22371,-0.26793 22.52665,-0.89655 33.41697,-3.22729 1.73704,-0.51641 3.56207,-0.87305 5.21107,-1.54926 9.27441,-3.8031601 13.65048,-9.7931801 11.35951,-18.1298541 -0.57169,-1.131755 -1.01518,-2.310556 -1.71511,-3.3952636 -3.15631,-4.8914013 -9.16007,-7.9882213 -15.29979,-10.0643223 -1.49215,-0.371528 -2.95857,-0.817064 -4.47644,-1.11458 -8.51429,-1.66888 -17.37164,-1.088818 -26.01745,-0.652789 -12.35106,0.806022 -24.71415,1.735195 -36.87675,3.703433 -11.5832,1.953192 -23.29737,4.073188 -33.7613,8.6755623 -4.87703,2.8315176 -7.0924,3.4483906 -10.03923,7.90373057 -3.85655,5.83073303 -2.24886,12.24345313 1.19394,17.83586313 0.96367,1.25075 1.82286,2.55697 2.89097,3.75223 5.20275,5.82219 12.73146,9.90474 20.35934,13.442 9.66095,4.11822 19.68326,7.53274 30.73141,8.25972 9.29201,0.93817 18.62135,1.61504 27.99226,1.7496 9.22381,0.1181 18.47097,0.24038 27.66547,-0.48749 9.26339,-0.8658 18.44559,-2.29629 26.04588,-6.93213 1.17228,-0.87221 2.45163,-1.66062 3.51687,-2.61662 5.24785,-4.7097 6.94186,-10.89069 5.76598,-17.01681 C 402.8878,10.10545 399.09283,5.1779299 391.62773,0.36253987 384.49781,-3.9237061 376.70155,-7.2849301 368.08542,-9.2673777 c -9.1057,-2.4246093 -18.3191,-4.5655103 -27.55762,-6.6417743 -11.45167,-2.602806 -22.9797,-4.998458 -34.6077,-7.04702 -11.16543,-1.91285 -22.41584,-3.479428 -33.68048,-4.970211 -8.45648,-0.917294 -17.04404,-1.986801 -25.58615,-1.297006 -6.26891,0.807006 -12.50694,1.891049 -18.49486,3.606401 -7.84386,2.343776 -15.19635,5.202598 -20.01137,10.953519 -0.63544,1.158028 -1.38849,2.279195 -1.90633,3.474082 -1.86989,4.3146489 -1.12294,9.0144569 0.33828,13.3091169 1.72551,4.48264 3.94283,8.8304501 6.86423,12.9083401 3.16392,4.35229 6.69231,8.52759 11.22315,12.0606 4.13621,3.20806 8.55868,6.16336 13.48235,8.58046 4.57163,2.23483 9.30891,4.24311 14.18176,6.0278 3.19864,1.14233 6.43267,2.22529 9.56458,3.48331 7.99107,2.95705 18.77913,-16.8037 9.08558,-18.06095 -4.30094,-1.4192 -8.48578,-3.05252 -12.31964,-5.18189 -4.09077,-2.27495 -8.05876,-4.7493 -10.85019,-8.10995 -2.30799,-2.74359 -4.62603,-5.5691001 -5.58355,-8.8317901 -0.40848,-1.48292 -0.58655,-2.49812 0.46691,-3.91715 1.19506,-2.01654903 2.86145,-3.849308 4.96715,-5.322894 3.19687,-1.965969 6.81164,-3.269566 10.72715,-4.0604586 6.49923,-1.247865 13.08599,-2.1567453 19.7108,-2.8641713 7.61567,-0.840932 15.25177,-1.581812 22.91407,-2.093219 7.02556,-0.43036 14.08463,-0.598552 21.12968,-0.598622 7.30092,0.147075 14.60202,0.306362 21.89829,0.566405 4.78557,0.185679 9.57322,0.401387 14.32361,0.924593 3.41197,0.406082 6.80173,0.92895 10.1482,1.60152 3.40187,0.70256 6.77255,1.4972023 10.08372,2.4396973 3.18625,0.9566666 6.29756,2.0580526 9.31288,3.3227346 3.48842,1.535095 6.8339,3.262746 10.1093,5.07213497 2.46785,1.34729003 4.71465,2.91517003 6.65071,4.74420003 1.94154,1.8323 3.92766,3.65398 5.26466,5.8277901 1.26047,1.98103 2.27799,4.06948 2.87715,6.24361 0.58389,2.00336 0.89946,4.06567 0.785,6.12475 -0.0846,2.01728 -0.43688,4.0218 -0.822,6.01493 -0.56754,1.66335 -1.22703,3.30856 -2.24163,4.83809 -0.60605,0.89336 -1.25528,1.78998 -2.05338,2.57677 -0.67523,0.55726 -0.23915,0.54583 -1.46576,0.66564 -3.35323,-0.25986 -6.56379,-1.32638 -9.80086,-2.00774 -4.46782,-1.1642 -8.91169,-2.38731 -13.35986,-3.59841 -5.33827,-1.42914 -10.69843,-2.80162 -16.12988,-3.98985 -6.30597,-1.34951 -12.71726,-2.25088 -19.20862,-2.81588 -6.94057,-0.63504 -13.92016,-0.95362 -20.86132,-1.59391 -8.11637,-0.71906 -16.22781,-1.49724 -24.28608,-2.56415 -8.15098,-1.09677 -16.31287,-2.27642 -24.23266,-4.20256 -5.11005,-1.52162 -10.18591,-3.21818 -14.30675,-6.16169 -3.03057,-2.2854001 -6.0906,-4.7528101 -7.36853,-8.0051101 -1.04073,-2.89381303 -1.71031,-5.881209 -1.44066,-8.903838 0.15047,-2.4106926 1.01097,-4.8099139 2.402,-6.9490769 1.39121,-1.882353 3.11544,-3.621818 5.40167,-4.859946 3.50478,-1.612933 7.55227,-2.302798 11.47033,-2.964456 6.04826,-0.807777 12.16393,-1.180058 18.29887,-0.910017 8.30356,0.354395 16.58798,0.962948 24.85714,1.657073 8.02877,0.743015 16.055,1.575031 23.96497,2.927788 6.86586,1.248237 13.61714,2.823544 20.31704,4.554464 5.77422,1.412822 11.42429,3.121303 16.98439,5.0043979 4.59591,1.707017 9.0182,3.707417 12.90986,6.329611 3.85312,2.61093997 7.4603,5.53923 10.3031,8.88839 2.23375,2.86725 3.70393,4.8370601 3.57919,8.3778501 0.11425,3.41266 -0.0703,6.79669 -1.46463,10.06141 -1.12484,2.52215 -2.45908,4.99532 -4.59993,7.08737 -2.17283,1.99302 -4.80831,3.68137 -7.62552,5.05844 -3.41952,1.4856 -7.03325,2.54729 -10.93083,2.89037 -6.23033,0.47511 -12.47693,0.31379 -18.72247,0.0867 -7.74516,-0.23498 -15.48856,-0.50921 -23.22764,-0.85023 -8.16266,-0.38589 -16.31744,-0.86822 -24.48165,-1.23203 -8.23061,-0.39401 -16.4601,-0.82689 -24.66586,-1.48133 -7.92379,-0.64601 -15.83752,-1.4106 -23.67224,-2.5744 -7.32158,-1.10784 -14.66977,-2.27309 -21.70691,-4.2738 -5.09922,-1.54688 -10.21773,-3.1611 -14.81319,-5.5465 -2.61529,-1.47264 -4.59991,-3.31309 -6.10447,-5.59055 -2.38408,-3.40984 -4.67762,-6.89761 -6.01528,-10.6746401 -1.08146,-3.34017 -2.10174,-6.73359 -2.01868,-10.20939 0.17726,-2.813933 0.8729,-5.628578 1.90472,-8.3192969 0.97401,-2.331212 2.07131,-4.634057 3.78431,-6.694128 1.68055,-1.894069 3.62485,-3.549432 6.17584,-4.710884 3.35021,-1.599471 6.86102,-3.004081 10.67778,-3.738518 4.51723,-0.751862 9.11192,-1.253919 13.71651,-1.490907 5.49561,-0.276677 11.00276,-0.36414 16.50873,-0.31001 5.87975,0.01012 11.75949,0.02242 17.63921,0.04026 5.6488,0.01817 11.2976,0.04049 16.94634,0.07162 6.04618,0.03405 12.09237,0.06993 18.13826,0.127286 5.2458,0.05321 10.49155,0.11605 15.73607,0.224763 4.70829,0.102732 9.41567,0.230237 14.12104,0.399012 5.23467,0.189206 10.46955,0.38993 15.69545,0.70193 4.98512,0.311404 9.96978,0.656111 14.92314,1.212512 4.54501,0.528251 9.08706,1.112027 13.53831,2.032603 3.74672,0.820637 7.43833,1.795469 10.88631,3.251228 3.64281,1.528168 7.03868,3.389574 10.19212,5.504224 3.72762,2.56963 7.40442,5.2602513 10.30862,8.4565429 2.50753,2.83605 4.59993,5.88774296 5.85923,9.228493 1.0851,3.10098 1.6908,6.2778001 1.7456,9.5033701 -0.048,3.46293 -0.6288,6.89651 -1.2337,10.32192 -0.6877,3.56059 -1.4362,7.11869 -2.5714,10.60876 -1.1934,3.54293 -2.46473,7.08422 -4.34923,10.43924 -1.5199,2.65042 -3.2079,5.27842 -5.63813,7.47955 -2.56056,1.95867 -5.85165,2.94073 -9.26033,3.56276 -5.09122,0.96881 -10.27149,1.56667 -15.51162,1.66311 -6.93794,0.21907 -13.87807,0.0349 -20.81867,-0.0216 -7.73152,-0.092 -15.46301,-0.19224 -23.193,-0.34701 -7.94401,-0.16197 -15.88771,-0.34324 -23.82718,-0.61526 -7.78835,-0.27577 -15.57491,-0.59771 -23.34767,-1.0855 -7.833,-0.50004 -15.66152,-1.06787 -23.44988,-1.91401 -8.4576,-0.91344 -16.90706,-1.92165 -25.2554,-3.35372 -8.01702,-1.4536 -15.9782,-3.15058 -23.57813,-5.69666 -7.03578,-2.38819 -13.90188,-5.12633 -19.84659,-9.03071 -4.48732,-2.98358 -6.15325,-5.90902 -7.8305,-10.37283 -1.83809,-5.15799 -2.54909,-10.46575 -2.15002,-15.8326501 0.31694,-4.66799 1.41237,-8.22997 4.43966,-12.307184 2.76593,-4.032316 5.84267,-7.9327859 9.97212,-11.1784679 4.00647,-3.071385 8.50681,-5.708714 13.53525,-7.621936 5.44991,-1.856113 11.21211,-2.937356 17.10611,-3.425873 7.34393,-0.607443 14.70524,-0.991149 22.09388,-0.811913 8.60009,0 17.20018,0 25.80028,0 9.36848,0 18.73694,0 28.10541,0 8.43595,0 16.87192,0 25.30788,0 4.73373,0 9.46744,0 14.20117,0 65.93749,0 65.93749,-19.729783 0,-19.729783 z" />
    <path
       style="fill:#e2efee;fill-opacity:1;stroke-width:0.264583"
       d="m 59.4,196.8 c 4.373573,-1.09605 5.32429,-0.52429 8.4,-3.6 0.99514,-0.99514 0.6,-2.99542 0.6,-4.2 0,-1.4 0.303702,-2.83334 0,-4.2 -0.742412,-3.34086 -4.547822,-10.37391 -7.800001,-12 -5.172083,-2.58604 -22.529151,10.87755 -25.799999,14.4 -0.793536,0.85458 -1.278464,1.95692 -1.8,3 -0.220382,0.44076 -1.995927,5.96326 -1.199999,6.6 1.47334,1.17867 3.010027,2.40334 4.799999,3 1.099489,0.36649 17.940504,0.29977 18.599999,0 1.566254,-0.71194 2.479535,-3 4.200001,-3 7.457435,0 8.957543,5.72123 16.799999,1.8 2.254231,-1.12712 2.550192,-2.27523 4.200001,-4.2 3.359018,-3.91886 4.801354,-8.40361 6.6,-13.2 0.314052,-0.83748 0.95428,-1.53999 1.199999,-2.4 0.164832,-0.57692 -0.06626,-1.20367 0,-1.8 C 88.653217,172.92104 88.8,169.13071 88.8,165 c 0,-7.65402 0.961207,-8.01431 -3.600001,-14.4 -0.419137,-0.58679 -0.573902,-1.44223 -1.200001,-1.8 -0.885436,-0.50597 -2.032527,-0.27751 -3,-0.6 -0.848526,-0.28285 -1.525426,-1.01259 -2.399998,-1.2 -3.357221,-0.71941 -6.280695,-0.6 -9.600001,-0.6 -3.718645,0 -7.705744,-0.41048 -11.399999,0 -9.907429,1.10082 0.74894,-0.0372 -4.200001,1.2 -0.388057,0.097 -0.820526,-0.12649 -1.199999,0 -3.855628,1.28521 -2.585305,12.91757 -2.400001,14.4 0.306845,2.45476 1.200002,4.8 1.8,7.2 0.600001,2.4 1.046027,4.84383 1.8,7.2 0.849008,2.65314 2.155372,5.14545 2.999999,7.8 1.199444,3.76967 0.961041,5.04416 1.8,8.4 0.35314,1.41255 1.922391,2.93582 1.200002,4.2 -3.592086,6.28615 -14.551935,5.85064 -20.400002,7.8 -1.259998,0.42 -2.339999,1.38 -3.599997,1.8 -0.782307,0.26077 -1.662438,0.23121 -2.400001,0.6 -1.737445,0.86872 -0.920234,1.53372 -1.8,3 -0.291042,0.48507 -1.021115,0.66334 -1.2,1.2 -0.379473,1.13842 0,2.4 0,3.6 0,2.03791 -0.57953,4.8307 0.599999,6.6 1.682596,2.52389 25.087508,4.84499 28.2,3.6 1.270789,-0.50832 3.337629,-4.20967 3.6,-4.8 1.760913,-3.96206 0.682723,-10.63456 -1.199999,-14.4 -0.32249,-0.64498 -0.971965,-1.1159 -1.200002,-1.8 -0.189735,-0.56921 0.04983,-1.20207 0,-1.8 -0.150399,-1.80482 -0.399999,-3.6 -0.599998,-5.4 z"
       id="path10" />
    <path
       style="fill:#e2efee;fill-opacity:1;stroke-width:0.264583"
       id="path11"
       d="m 341.76313,-18.833508 c -4.45531,1.903557 -7.69598,5.521866 -10.70755,9.1858491 -3.37899,4.3020043 -5.73307,9.21459655 -7.70245,14.2832229 -1.85536,5.562698 -2.84106,11.455064 -2.05393,17.315644 0.19103,1.422359 0.55899,2.815302 0.83847,4.222953 2.05221,7.541645 6.51287,13.901226 11.39031,19.865108 3.6989,4.490077 8.10969,8.270703 12.82708,11.639331 3.35907,2.2552 6.8453,4.379529 10.62966,5.850366 0.86783,0.337293 1.75749,0.615484 2.63623,0.923229 6.01244,1.986492 12.29222,1.637591 18.45839,0.767194 5.69767,-0.897689 10.93221,-3.210777 15.90312,-6.041107 4.36446,-2.581561 8.11263,-5.998758 11.697,-9.548588 3.95954,-3.754053 7.13922,-8.135993 9.89586,-12.818165 3.22903,-5.771179 4.87217,-12.142035 5.85063,-18.629264 0.61327,-5.36509 0.67728,-10.8390613 -0.70472,-16.1002055 -0.30382,-1.15662271 -0.73464,-2.27610075 -1.10196,-3.4141511 -1.7834,-4.409736 -4.19659,-8.5083358 -7.64622,-11.8305984 -2.03655,-1.961365 -3.47554,-2.79013 -5.74792,-4.302472 -5.03423,-3.040844 -10.75706,-4.916584 -16.69634,-4.573011 -1.27022,0.07348 -2.52056,0.34946 -3.78082,0.52419 -1.41425,0.480205 -2.88269,0.823353 -4.24273,1.440616 -4.82409,2.18947 -8.53474,6.108495 -11.25347,10.5665178 -0.57779,0.9474525 -1.05563,1.9523572 -1.58345,2.9285356 -2.76418,5.68194946 -3.9012,11.8962216 -4.63399,18.1166536 -0.59719,5.423365 -0.4059,10.861705 0.27638,16.261393 0.97071,5.99231 3.57455,11.405497 6.73667,16.515284 2.74193,4.472006 6.19588,7.828613 10.3198,11.002666 3.98767,3.028913 8.01497,4.726895 12.83124,5.972363 4.35493,1.050996 8.69624,1.015225 13.10833,0.483015 3.94922,-0.634219 7.73419,-1.96288 11.45024,-3.402809 2.96,-1.136168 5.84718,-2.452214 8.68476,-3.863895 3.54428,-1.677554 6.67846,-4.073171 9.14514,-7.130627 0.57057,-0.707244 1.05878,-1.477166 1.58819,-2.215748 2.35812,-3.67226 3.87061,-7.770973 5.13601,-11.921886 1.13414,-4.025159 1.60216,-8.1884 1.7353,-12.355667 0.16054,-4.79496 -1.01947,-9.401885 -2.65174,-13.8629613 -2.23896,-5.2400837 -5.80419,-9.7565201 -10.33367,-13.2166102 -0.98385,-0.7515825 -2.03221,-1.4147545 -3.04834,-2.1221316 -4.55428,-2.7628969 -9.51011,-4.7027069 -14.72899,-5.7673389 -3.37701,-0.688897 -5.45592,-0.793936 -8.87388,-1.117248 -5.70633,-0.329375 -11.44678,-0.379713 -17.14178,0.182643 -3.69908,0.36527 -5.05084,0.664664 -8.67807,1.290594 -8.37109,1.614062 -16.33865,4.7101118 -24.25525,7.7876525 -7.40431,2.8718724 -14.77708,5.82336016 -22.20545,8.6328958 -7.52734,2.9182983 -15.20864,5.4047286 -22.9313,7.7465587 -7.38693,2.229232 -14.93038,3.852713 -22.51131,5.255047 -7.88249,1.419169 -15.85023,2.262144 -23.8164,3.040677 -7.15903,0.735464 -14.34364,1.171528 -21.54041,1.140505 -2.31655,0.0111 -4.62942,-0.275141 -6.85377,-0.938263 -1.88646,-0.562388 -3.67882,-1.530242 -5.43778,-2.389915 -2.7586,-1.411553 -5.32008,-3.151159 -7.77405,-5.033024 -56.32828,-42.744882 -72.32244,-21.668116 -15.99417,21.076764 v 0 c 3.89355,2.935068 7.95096,5.652651 12.33319,7.815921 2.58892,1.225595 4.21176,2.066568 6.96237,3.045595 5.3637,1.909101 10.99963,2.870483 16.69292,2.881159 8.08088,0.01119 16.14993,-0.428051 24.1887,-1.266206 8.71998,-0.854469 17.43975,-1.793801 26.06622,-3.358888 8.54359,-1.5895 17.04393,-3.43154 25.36823,-5.951326 8.28744,-2.51706 16.53021,-5.189458 24.6103,-8.318235 7.50384,-2.839984 14.95417,-5.816423 22.43333,-8.720321 6.29539,-2.449703 12.60895,-4.989299 19.24005,-6.386876 2.19948,-0.395229 3.80992,-0.727305 6.02295,-0.961758 4.26982,-0.452357 8.57461,-0.422069 12.85742,-0.218692 2.27269,0.187104 4.70411,0.256583 6.92936,0.832806 1.49611,0.38741 2.9178,1.053313 4.32006,1.686501 1.27374,0.736957 2.51701,1.547331 3.36844,2.754546 0.51959,1.205345 0.95337,2.46739 0.93282,3.795699 -0.0148,1.836022 -0.22964,3.672271 -0.64125,5.462122 -0.44577,1.575503 -1.01118,3.108425 -1.66433,4.609507 0.0114,0.02371 0.009,0.07837 0.0343,0.07113 0.0791,-0.02265 1.13964,-0.503716 0.2866,-0.03111 -0.33798,0.187254 -0.68842,0.351052 -1.03264,0.526577 -2.09709,1.067757 -4.25644,2.016178 -6.44928,2.869154 -1.82223,0.721318 -3.66987,1.408518 -5.58048,1.857315 -0.46046,0.335404 -2.46539,0.08058 -3.06459,0.0065 -1.16499,-0.213783 -2.1585,-0.551905 -3.10473,-1.334299 -1.5943,-1.180457 -2.94208,-2.264545 -3.94811,-4.046042 -1.20843,-1.840421 -2.26301,-3.758711 -2.89137,-5.879526 -0.46815,-3.257635 -0.53734,-6.545692 -0.2146,-9.824893 0.31271,-2.999358 0.753,-6.0205947 1.80843,-8.8603234 0.13808,-0.3023272 0.28146,-0.6023038 0.41431,-0.9069819 0.16338,-0.3747772 0.26014,-0.6074592 0.16788,-0.6441466 -0.50192,-0.1996001 -1.73766,0.8893003 -2.17755,0.4138364 -0.4223,-0.092096 -0.79703,-0.1559449 -0.73724,-0.2528837 0.074,-0.12005 0.29332,0.033474 0.42249,-0.023143 0.0485,-0.021238 -0.0605,-0.1652561 -0.008,-0.1585184 0.43048,0.055273 1.32255,0.5292508 1.65717,0.6900878 0.30072,0.1764376 0.5911,0.3718806 0.9022,0.5293127 0.102,0.051609 0.225,0.1398638 0.32975,0.094099 0.0768,-0.033574 -0.036,-0.3051469 0.0272,-0.2500813 0.6585,0.5733714 0.97896,1.5189851 1.49067,2.206177 1.09304,2.3023682 0.80271,4.5929744 0.61325,7.0780164 -0.41069,3.163733 -1.1084,6.30165 -2.57461,9.162113 -1.50455,2.720198 -3.38238,5.159838 -5.65073,7.298221 -1.94242,1.949858 -3.93087,3.885441 -6.25497,5.382673 -2.07758,1.231723 -4.22312,2.350519 -6.62543,2.794312 -1.98384,0.345284 -4.10064,0.711232 -6.0928,0.311021 -2.34762,-0.673606 -4.42073,-1.969006 -6.44022,-3.31628 -2.82937,-1.943745 -5.43144,-4.203017 -7.6473,-6.834484 -2.28113,-2.739755 -4.51205,-5.570406 -5.99673,-8.83814 -0.27025,-0.781952 -0.62074,-1.661335 -0.56354,-2.512044 0.0845,-1.256831 0.36616,-2.531552 0.66466,-3.751809 0.9497,-2.527194 2.01734,-5.0102266 3.63165,-7.1979077 1.19406,-1.5926509 -0.0967,0.078283 1.39641,-1.6730247 0.0696,-0.081588 0.24165,-0.3297385 0.1428,-0.288205 -0.17137,0.072015 -0.32475,0.1815793 -0.49273,0.2612395 -0.37764,0.1791065 -0.76227,0.3431445 -1.1434,0.5147167 65.65323,-26.2612868 55.82684,-50.8272318 -9.82639,-24.5659458 z" />
    <path
       style="fill:#e6f0ef;fill-opacity:1;stroke-width:0.264583"
       id="path12"
       d="m 1033.7471,79.97827 c -3.3616,-0.744551 -6.7996,-1.024295 -10.2247,-1.290333 -6.1288,-0.480158 -12.2796,-0.421838 -18.4195,-0.262268 -6.01696,0.271126 -12.01967,0.783018 -18.02835,1.189939 -5.89608,0.411893 -11.80201,0.643168 -17.70838,0.841751 -8.16261,0.247235 -16.32826,0.372049 -24.49362,0.485106 -10.38502,0.131789 -20.77069,0.205771 -31.15627,0.27509 -10.57339,0.13799 -21.14659,-0.0089 -31.71928,-0.127977 -9.24748,-0.03885 -18.54092,-0.232013 -27.74511,0.858192 -1.75003,0.207283 -3.48679,0.51435 -5.23018,0.771528 -7.46072,1.564113 -15.09101,3.950774 -20.17178,10.069293 -3.88009,4.672618 -3.64694,6.527413 -4.987,12.175139 0.10727,2.05738 -0.0188,4.1403 0.32179,6.17213 0.7878,4.7002 2.66967,7.8782 5.73344,11.62184 2.16122,2.64081 6.23221,5.68013 9.11799,7.48892 1.67892,1.05233 3.46684,1.91985 5.20026,2.87978 12.33355,5.75376 25.72903,8.4506 39.02289,10.92567 15.80525,2.78849 31.80572,4.16157 47.75814,5.79013 16.66766,1.80007 33.30707,3.871 49.91568,6.15138 5.16242,0.83637 10.36076,1.54606 15.42203,2.89889 0.85516,0.22857 1.70691,0.47618 2.53889,0.77839 0.2318,0.0842 0.50181,0.16951 0.63759,0.3754 0.0865,0.13115 -0.30628,-0.0701 -0.45942,-0.10522 -4.10498,-2.53609 -5.36281,-6.92913 -4.27786,-11.42369 0.44439,-1.57457 1.48701,-2.45202 2.71118,-3.49206 1.60499,-0.9491 2.76647,-1.8036 4.81037,-1.98112 3.8447,-0.33394 7.7584,0.1555 10.6715,3.11737 1.7569,1.7863 2.5865,4.29188 3.8798,6.43782 -16.5222,-68.75331 -42.24815,-62.571083 -25.72595,6.18222 v 0 c 1.33077,2.30214 2.15923,4.98013 3.99232,6.90642 1.46201,1.53634 3.51898,2.49492 5.54643,3.11729 3.433,1.05385 6.408,0.50448 9.5526,-0.72885 0.819,-0.32122 1.5387,-0.85326 2.3081,-1.27989 0.6609,-0.52428 1.3526,-1.01194 1.9827,-1.57284 2.29,-2.03837 3.9004,-4.7521 5.0907,-7.53989 0.7715,-2.49543 1.2268,-3.41141 1.2144,-6.26476 -0.02,-4.65845 -1.82,-8.34011 -4.9776,-11.70168 -0.7945,-0.84597 -1.8073,-1.4566 -2.711,-2.1849 -1.0425,-0.59338 -2.0464,-1.26042 -3.1275,-1.78016 -2.4486,-1.17721 -4.9621,-1.93313 -7.5857,-2.61213 -5.88399,-1.52282 -11.89868,-2.42462 -17.89628,-3.35926 -16.91166,-2.31979 -33.85402,-4.43129 -50.82601,-6.26027 -15.23547,-1.55521 -30.51849,-2.8513 -45.61832,-5.48292 -10.61619,-1.96227 -21.31602,-4.01561 -31.31904,-8.21426 -3.3423,-1.6982 -2.10156,-0.96204 -4.94991,-2.76784 -0.40153,-0.25456 -0.74533,-0.92191 -1.19742,-0.77488 -0.36529,0.1188 0.094,0.77159 0.0387,1.15171 -0.0668,0.45922 -1.52064,0.26975 -0.60065,1.25591 -0.6672,1.0771 -0.81622,1.60974 -1.97969,2.27497 -0.34089,0.19491 -1.06485,0.70894 -1.13314,0.32224 -0.0759,-0.42982 0.66509,-0.57795 1.05246,-0.77903 1.73596,-0.90104 3.07848,-1.12186 5.00206,-1.62965 1.22102,-0.19362 2.4361,-0.42933 3.66305,-0.58085 8.30167,-1.02525 16.69481,-0.75596 25.03665,-0.74983 10.73083,0.1208 21.4622,0.26792 32.19373,0.12907 10.44887,-0.0697 20.89782,-0.14427 31.34614,-0.27704 8.33996,-0.11558 16.68018,-0.24363 25.0173,-0.49755 6.20599,-0.20915 12.4114,-0.45478 18.60656,-0.88728 5.64595,-0.38262 11.28651,-0.85469 16.93851,-1.13865 5.2376,-0.14085 10.4855,-0.21011 15.7143,0.19528 2.3573,0.17426 4.7308,0.32951 7.0425,0.85274 69.3375,13.8675 74.5265,-12.077024 5.1889,-25.94453 z" />
    <path
       style="fill:#28170b;fill-opacity:0.884774;stroke-width:0.254287"
       d="m 152.73506,475.35439 30.61065,-12.05802 2.48195,61.09403 -28.12871,-3.21549 -3.30926,-40.19344 z"
       id="path13" />
    <path
       style="fill:#244124;fill-opacity:1;stroke-width:0.254287"
       d="m 148.98408,475.32801 30.61065,-12.05802 2.48195,61.09403 -28.12871,-3.21549 -3.30926,-40.19344 z"
       id="path13-9" />
    <path
       style="fill:#294929;fill-opacity:1;stroke-width:0.264583"
       d="m 211.79391,450.28388 -32.57422,5.89572 2.99297,-23.15344 20.94283,-3.48106 z"
       id="path14" />
    <path
       style="fill:#2a4b2a;fill-opacity:1;stroke-width:0.276896"
       d="m 142.35526,451.8568 -25.79957,-0.28207 5.20365,-15.8982 29.76683,-0.92772 z"
       id="path15" />
  </g>
</svg>
