<?xml version="1.0" encoding="UTF-8" standalone="no"?>
<!-- Created with Inkscape (http://www.inkscape.org/) -->

<svg
   width="126mm"
   height="51mm"
   viewBox="0 0 126 51"
   version="1.1"
   id="svg1"
   xmlns="http://www.w3.org/2000/svg"
   xmlns:svg="http://www.w3.org/2000/svg"
   xmlns:rdf="http://www.w3.org/1999/02/22-rdf-syntax-ns#"
   xmlns:cc="http://creativecommons.org/ns#"
   xmlns:dc="http://purl.org/dc/elements/1.1/">
  <title
     id="title22">logoform</title>
  <defs
     id="defs1" />
  <g
     id="layer1">
    <path
       style="fill:#389b3c;fill-opacity:1;stroke-width:0.264583"
       d="m 12.476807,20.218333 c 0,12.091525 -0.212132,11.879393 -0.212132,11.879393 l 2.969849,-0.212132 v -4.879036 l 5.939695,-0.212132 -0.212129,-2.121321 -5.303302,-0.212132 v -1.484924 l 5.091169,-0.212132 -0.212132,-2.545583 z"
       id="path1" />
    <path
       style="fill:#389b3c;fill-opacity:1;stroke-width:0.238025"
       d="m 22.470236,27.891317 c -1.746423,-8.095768 9.79415,-8.734349 9.79415,-8.734349 0,0 1.268722,12.26258 -4.134923,12.738307 -5.403643,0.475726 -5.659227,-4.003958 -5.659227,-4.003958 z"
       id="path9" />
    <path
       style="fill:#389b3c;fill-opacity:1;stroke-width:0.238025"
       d="m 24.303444,28.673496 -4.972829,4.036852 1.474656,1.622523 4.972832,-4.036853 z"
       id="path10" />
    <path
       style="fill:#389b3c;fill-opacity:1;stroke-width:0.255272"
       d="m 33.893132,23.597615 -1.3532,7.941493 2.825522,0.133786 0.05291,-4.489512 3.4414,4.877338 3.727267,0.413679 -4.252929,-5.686664 c 0,0 4.959792,-1.247679 4.997481,-2.861831 0.03768,-1.614155 -0.443068,-4.36474 -3.704425,-4.726711 -3.261361,-0.361971 -5.175888,0.642473 -5.175888,0.642473 z"
       id="path11" />
    <path
       style="fill:#389b3c;fill-opacity:1;stroke-width:0.255272"
       d="m 89.929689,22.377697 -1.853059,7.839938 2.811391,0.312329 0.33692,-4.477164 3.125839,5.085348 3.69362,0.648727 -3.88453,-5.944409 c 0,0 5.02881,-0.931301 5.16858,-2.539833 0.13977,-1.608533 -0.16597,-4.38403 -3.39788,-4.951668 -3.23192,-0.567638 -6.10617,-0.436367 -6.10617,-0.436367 z"
       id="path11-8" />
    <path
       style="fill:#389b3c;fill-opacity:1;stroke-width:0.264583"
       d="M 44.255802,19.716862 C 44.04367,31.808389 44.04367,31.808389 44.04367,31.808389 h 3.394112 l 0.212132,-6.576094 2.545586,3.606244 h 1.272791 l 1.484924,-2.969847 0.424264,6.15183 2.757718,-0.424265 -0.424265,-12.30366 -4.242641,-0.212132 -0.848527,4.030509"
       id="path12" />
    <path
       style="fill:#389b3c;fill-opacity:1;stroke-width:0.264583"
       d="m 58.800001,19.8 c 0,0 -0.749999,13.95 6.000001,11.850002 6.75,-2.1 4.499999,-11.850002 4.499999,-11.850002 l -2.849999,0.15 c 0,0 1.349999,9.150001 -1.349999,8.850001 -2.700002,-0.300001 -2.700002,-8.4 -2.700002,-8.4 z"
       id="path13" />
    <path
       style="fill:#389b3c;fill-opacity:1;stroke-width:0.288659"
       d="M 70.950001,19.850706 71.408183,31.950002 79.35,31.423944 79.044545,28.793665 73.699093,28.618313 73.851818,19.500001 Z"
       id="path14" />
    <path
       style="fill:#389b3c;fill-opacity:1;stroke-width:0.264583"
       d="m 77.850002,21.000001 c 0.299998,7.05 0.299998,7.05 0.299998,7.05 l 7.800002,0.3 -0.600001,-6.449999 3.6,0.15 -6.75,-7.2 L 74.55,20.700003 Z"
       id="path15" />
    <path
       style="fill:#389b3c;fill-opacity:1;stroke-width:0.264583"
       d="m 99.15,25.050001 0.75,6.900001 h 2.55 L 102,20.1 Z"
       id="path16" />
    <text
       xml:space="preserve"
       style="font-size:24.5057px;line-height:1.4;text-align:start;writing-mode:lr-tb;direction:ltr;text-anchor:start;fill:#389b3c;fill-opacity:1;stroke-width:0.255267"
       x="106.23141"
       y="31.548689"
       id="text17"
       transform="scale(0.96479157,1.0364933)"><tspan
         id="tspan17"
         style="font-style:normal;font-variant:normal;font-weight:normal;font-stretch:normal;font-size:24.5057px;line-height:1.4;font-family:'Bauhaus 93';-inkscape-font-specification:'Bauhaus 93, ';fill:#389b3c;fill-opacity:1;stroke-width:0.255267"
         x="106.23141"
         y="31.548689">o</tspan></text>
  </g>
  <metadata
     id="metadata22">
    <rdf:RDF>
      <cc:Work
         rdf:about="">
        <dc:title>logoform</dc:title>
      </cc:Work>
    </rdf:RDF>
  </metadata>
</svg>
