<?xml version="1.0" encoding="UTF-8" standalone="no"?>
<!-- Created with Inkscape (http://www.inkscape.org/) -->

<svg
   width="67"
   height="48"
   viewBox="0 0 17.727078 12.7"
   version="1.1"
   id="svg1"
   xmlns="http://www.w3.org/2000/svg"
   xmlns:svg="http://www.w3.org/2000/svg">
  <defs
     id="defs1" />
  <g
     id="layer1">
    <path
       style="fill:#389b3c;stroke-width:0.174302"
       d="M 0.87131195,5.077683 H 1.3971068 L 1.9847599,6.4077508 2.1394053,5.0961562 2.8198459,5.1885219 3.299247,7.8117115 2.6806648,7.7008725 2.5260193,6.3708047 2.1703346,7.2575165 1.7837206,7.1097312 1.2269967,6.1491264 1.2733903,7.5530872 0.74759539,7.5346139 Z"
       id="path1" />
    <path
       style="fill:#389b3c;fill-opacity:1;stroke-width:0.0298537"
       d="M 3.372693,5.4758796 V 5.3097872 c 0,0 0.448423,-0.4982731 1.0693178,-0.033225 0.6208938,0.4650559 0.4139297,0.9633304 0.4139297,0.9633304 0.022994,-0.076054 0.045988,0.4211274 0.068993,1.2290752 H 4.3385285 L 3.9935871,6.871046 c 0,0 1.0003287,-0.6311465 0.2414591,0 -0.7588711,0.6311467 -0.724377,0.5314921 -0.724377,0.5314921 L 3.2123775,6.653084 3.372693,6.140245 4.0625748,6.2066805 4.0280803,5.741625 3.5106686,5.8412847 Z"
       id="path22" />
    <path
       style="fill:#389b3c;fill-opacity:1;stroke-width:0.0298537"
       d="M 10.895644,5.7943806 V 5.6282881 c 0,0 0.448425,-0.4982731 1.069318,-0.033225 0.620894,0.4650559 0.41393,0.9633304 0.41393,0.9633304 0.023,-0.076054 0.04599,0.4211274 0.06899,1.2290753 h -0.5864 L 11.516539,7.1895469 c 0,0 1.000328,-0.6311465 0.241459,0 C 10.999126,7.8206936 11.03362,7.721039 11.03362,7.721039 l -0.298291,-0.749454 0.160315,-0.5128391 0.689883,0.066435 -0.03449,-0.4650557 -0.517411,0.09966 z"
       id="path22-4" />
    <path
       style="fill:#389b3c;fill-opacity:1;stroke-width:0.0243583"
       d="m 7.9819846,6.38069 c 0,0 -0.4978937,-1.2342728 -1.0007036,-0.731115 -0.5028094,0.5031587 -0.4686177,0.5220409 -0.4686177,0.5220409 0,0 -0.2427292,0.1336671 -0.089631,0.954432 0.1530991,0.8207641 1.0613859,0.6976977 1.0613859,0.6976977 L 7.7199564,7.1283673 c 0,0 -1.1587649,0.1065087 -0.1960116,0.070228 0.343733,-0.012948 -0.7276773,-0.089526 -0.7276773,-0.089526 l -0.027928,-0.060041 z"
       id="path26" />
    <path
       style="fill:#389b3c;fill-opacity:1;stroke-width:0.0221979"
       d="m 14.874069,5.5740722 c 0,0 -0.453099,-1.1263669 -0.910674,-0.6671975 -0.457573,0.4591703 -0.426457,0.4764017 -0.426457,0.4764017 0,0 -0.220892,0.1219814 -0.08156,0.8709911 0.139325,0.7490093 0.965897,0.6367018 0.965897,0.6367018 l 0.214348,-0.6345851 c 0,0 -1.054516,0.097197 -0.178378,0.064088 0.312809,-0.011816 -0.662212,-0.081698 -0.662212,-0.081698 l -0.02542,-0.054793 z"
       id="path26-3" />
    <path
       style="fill:#389b3c;fill-opacity:1;stroke-width:0.0297531"
       d="M 7.9790737,7.7668418 C 8.1155299,7.7001184 8.0897651,5.7874855 8.0897651,5.7874855 L 8.3499462,5.2870577 9.8553324,6.3990067 9.104827,6.6992624 9.9826902,7.5025811 9.0024849,7.433233 c 0,0 -0.3411385,-0.8674077 -0.3752525,-0.7339608 -0.034118,0.1334544 -0.1705681,1.0675795 -0.1705681,1.0675795 z"
       id="path27-8" />
    <path
       style="fill:#389b3c;fill-opacity:1;stroke-width:0.0203344"
       d="m 15.36637,5.9212913 1.287291,-0.3438444 c 0,0 -0.02957,-0.2961343 -0.124899,-0.3878575 -0.09532,-0.091728 -1.227781,0.1353941 -1.227781,0.1353941 l -0.767282,0.6662413 0.473326,0.8569629 0.933222,-0.013874 0.01026,0.143667 -0.264149,0.2640057 -0.885291,-0.012075 c 0,0 0.139687,0.5359245 0.387044,0.6401018 0.247357,0.1041823 1.150785,-0.05259 1.210506,-0.1735723 0.02709,-0.054882 0.124223,-0.2076769 0.222259,-0.3582379 0.118051,-0.1812981 0.19974,-0.414919 0.19974,-0.414919 L 16.716281,6.6366301 16.43855,6.2455108 15.606955,6.2228914 Z"
       id="path11-2" />
    <path
       style="fill:#389b3c;stroke-width:0.389845"
       d="M 4.6542063,5.091437 6.5940169,4.8039589 6.6184179,5.6824886 H 6.1548152 l -0.0732,2.0499022 -0.6344036,-0.058569 0.170801,-1.9913333 -0.675247,0.065499 z"
       id="path2" />
    <path
       style="fill:#389b3c;stroke-width:0.313624"
       d="M 10.093845,5.6757822 10.817893,5.4745919 10.528274,7.6429733 10.114532,7.5312008 Z"
       id="path3" />
    <path
       style="fill:#389b3c;stroke-width:0.313624"
       d="m 12.659039,5.1839832 0.02068,2.6154689 1.468782,-0.3353163 V 7.017047 l -0.951605,0.2235441 0.06207,-1.8330635 z"
       id="path4" />
    <path
       style="fill:#389b3c;fill-opacity:1;stroke-width:0.0109403"
       d="M 10.063202,5.2030735 C 10.042485,5.1525656 9.9056121,4.7891675 10.282888,4.6542225 10.660164,4.5192769 11.10221,4.4382508 11.10221,4.4382508 l -0.221199,0.6640028 c 0,0 -0.254896,0.6858446 -0.817809,0.1008199 z"
       id="path35" />
    <path
       style="fill:#389b3c;stroke-width:0.393918"
       d="M 10.323568,5.1220351 9.7702339,5.3708662 9.9993641,5.5130617 Z"
       id="path5" />
  </g>
</svg>
