<?xml version="1.0" encoding="UTF-8" standalone="no"?>
<!-- Created with Inkscape (http://www.inkscape.org/) -->

<svg
   width="48"
   height="48"
   viewBox="0 0 12.7 12.7"
   version="1.1"
   id="svg1"
   xmlns="http://www.w3.org/2000/svg"
   xmlns:svg="http://www.w3.org/2000/svg">
  <defs
     id="defs1" />
  <g
     id="layer1">
    <path
       style="fill:#389b3c;fill-opacity:1;stroke-width:0.240334"
       d="m 10.426758,7.3329633 c 0.120512,-0.158188 0.265993,-0.3058741 0.4485,-0.4077718 0.182507,-0.1018984 0.405797,-0.1543939 0.611703,-0.1148618 0.120126,0.023063 0.230776,0.076688 0.318843,0.150693 0.08806,0.074006 0.153676,0.1680132 0.193177,0.270275 0.07901,0.2045219 0.05165,0.4374455 -0.04761,0.6409717 C 11.884751,8.0090076 11.785858,8.135412 11.65732,8.23301 11.528781,8.330608 11.370026,8.3985 11.204156,8.417571 11.038283,8.436628 10.865982,8.405266 10.73137,8.323192 10.596758,8.241117 10.502805,8.1075069 10.48761,7.9618086 c -0.011,-0.1054814 0.02073,-0.2180123 0.09996,-0.3007375 0.03962,-0.041365 0.09052,-0.074676 0.147377,-0.094234 0.05686,-0.019559 0.119628,-0.025099 0.178071,-0.013955 0.05058,0.00967 0.09685,0.03136 0.138957,0.057155 0.04211,0.025795 0.08057,0.055781 0.120482,0.084114 0.03991,0.028326 0.08171,0.055223 0.128639,0.07381 0.04692,0.018593 0.0996,0.028556 0.151484,0.021822 0.07136,-0.00922 0.136534,-0.050707 0.174537,-0.105632 0.038,-0.054927 0.04967,-0.1219518 0.03745,-0.1838997 -0.0122,-0.061909 -0.04726,-0.1187508 -0.09484,-0.1645596 -0.04758,-0.04581 -0.107368,-0.080961 -0.171474,-0.1073392 -0.06874,-0.028282 -0.14328,-0.046877 -0.219861,-0.051236 -0.07658,-0.00436 -0.155225,0.00576 -0.227015,0.032591 -0.07179,0.026833 -0.136457,0.070679 -0.181549,0.1271372 -0.04508,0.056456 -0.06991,0.1255787 -0.06568,0.1931742 0.0038,0.06108 0.03036,0.1182102 0.0502,0.1763101 0.0098,0.029054 0.01823,0.058722 0.02118,0.089167 0.003,0.030441 3.97e-4,0.061781 -0.01103,0.091111 -0.01714,0.044096 -0.0543,0.082074 -0.1004,0.1053334 -0.0461,0.023261 -0.100584,0.031961 -0.152192,0.026185 -0.0516,-0.00577 -0.100155,-0.025687 -0.139274,-0.054982 -0.03912,-0.029297 -0.06888,-0.067748 -0.08796,-0.1100284 -0.03814,-0.084562 -0.03293,-0.1820966 -0.0024,-0.2712222 0.0306,-0.089125 0.08511,-0.1710825 0.144424,-0.2489323 z"
       id="path18-7-0" />
    <path
       style="fill:#389b3c;fill-opacity:1;stroke-width:0.233243"
       d="M 3.7010646,7.309024 C 3.8114248,7.14948 3.9450275,7.0008463 4.1133565,6.8990879 4.2816855,6.7973298 4.4882563,6.7461539 4.6795069,6.7883051 c 0.1115753,0.02459 0.214633,0.08014 0.2969277,0.1561737 0.082295,0.076035 0.1439404,0.1721747 0.1814518,0.276447 C 5.2329133,7.42947 5.20952,7.6658452 5.1193001,7.8716499 5.0587186,8.0099231 4.9681292,8.1373856 4.8497992,8.2352973 4.73147,8.3332091 4.5848674,8.4006488 4.4312461,8.4184214 4.2776243,8.4361795 4.1175997,8.4026524 3.9920806,8.3179723 3.8665614,8.2332892 3.7782915,8.0966429 3.7629393,7.9484768 3.751822,7.8412079 3.7802633,7.7271913 3.8530076,7.6439133 3.8893816,7.602271 3.9362828,7.5689212 3.9888316,7.5496 4.04138,7.5302789 4.0995283,7.5252617 4.153811,7.537145 4.200792,7.547457 4.243878,7.569941 4.2831418,7.596552 4.3224058,7.623165 4.3583338,7.654 4.3955803,7.68317 4.4328293,7.712333 4.4718183,7.740062 4.5154878,7.759398 4.5591588,7.778739 4.6080898,7.789369 4.6561282,7.783031 4.7222202,7.774351 4.782276,7.732838 4.8170334,7.6774016 4.8517904,7.6219676 4.8620264,7.5539872 4.8501714,7.4909336 4.8383249,7.4279184 4.8053249,7.3698337 4.7608012,7.3228345 4.716279,7.2758363 4.6605529,7.2395461 4.6008844,7.2121294 4.5369116,7.182733 4.4676339,7.1631207 4.3965928,7.1579532 c -0.071039,-0.00517 -0.1438679,0.00435 -0.2101957,0.030918 -0.06633,0.026566 -0.1259047,0.070488 -0.167221,0.1274087 -0.041312,0.056921 -0.06373,0.126905 -0.059217,0.1956174 0.00405,0.062088 0.029174,0.1203878 0.04807,0.179604 0.0094,0.029611 0.01742,0.059834 0.020415,0.090791 0.003,0.030954 9.105e-4,0.062768 -0.00944,0.092457 -0.015508,0.044634 -0.049639,0.082857 -0.092176,0.1060409 -0.04254,0.023187 -0.092993,0.0315 -0.1408795,0.025142 -0.047886,-0.00636 -0.093083,-0.027064 -0.1296025,-0.057206 -0.036523,-0.030141 -0.064467,-0.069491 -0.08251,-0.1126311 -0.036094,-0.086278 -0.032112,-0.1853159 -0.00449,-0.2755669 0.027606,-0.090251 0.077431,-0.1729858 0.1317433,-0.2515029 z"
       id="path18-7" />
    <path
       style="fill:#389b3c;fill-opacity:1;stroke-width:0.219304"
       d="M 0.74757269,6.5265694 0.91532119,8.7894112 1.6148201,8.5968302 1.1633539,7.8385842 C 2.0464643,7.3945878 2.3022677,7.2971428 2.2747136,6.6897592 2.2450513,6.035903 1.9958727,5.7188771 1.9958727,5.7188771 c 0,0 -0.6966186,-0.4972876 -1.24830001,0.8076923 z"
       id="path1" />
    <path
       style="fill:#389b3c;fill-opacity:1;stroke-width:0.270854"
       d="m 4.8283234,6.2684491 0.5524478,1.0547975 c 0,0 -0.1896968,0.8839982 -0.5531427,1.0067056 C 4.4641823,8.4526604 5.39643,8.5194173 5.39643,8.5194173 L 5.9114709,7.3775289 6.5236512,5.9466092 5.951428,5.9803694 5.6379148,6.8777001 5.1704278,5.9251826 Z"
       id="path3" />
    <path
       style="fill:#389b3c;fill-opacity:1;stroke-width:0.270854"
       d="m 8.9821926,6.3962651 1.8244804,-0.2800334 0.03392,0.609205 -0.817188,0.087995 0.141389,1.4612035 -0.8747181,0.010619 0.3592116,-1.4593946 -0.6686084,0.071996 z"
       id="path6" />
    <path
       style="fill:#389b3c;fill-opacity:1;stroke-width:0.0370138"
       d="m 2.353912,7.1634147 -0.098397,1.1164857 0.4283726,-0.027499 -0.051874,-0.6196 0.5846144,0.6162405 0.5682477,-0.00358 -0.717932,-0.714587 c 0,0 0.8046338,-0.4544805 0.7887983,-0.6775535 C 3.8399053,6.6302462 3.3906132,6.2308973 3.0816825,6.278454 2.5896672,6.354195 2.3880946,6.636699 2.3880946,6.636699 Z"
       id="path11" />
    <path
       style="fill:#389b3c;fill-opacity:1;stroke-width:0.0228673"
       d="m 7.7571974,6.6853864 c 0,0 -0.5515701,-0.9399641 -1.0337617,-0.3697666 -0.4821931,0.570197 -0.4718874,0.5963416 -0.4718874,0.5963416 0,0 -0.2126935,0.1615932 -0.02422,0.8338119 0.1884732,0.6722186 1.0931238,0.3246663 1.0931238,0.3246663 l 0.2062218,-0.666308 c 0,0 -1.1562862,0.3995428 -0.1933594,0.1129283 C 7.6771084,7.4147305 6.6005043,7.6321306 6.6005043,7.6321306 l -0.030548,-0.044743 z"
       id="path26" />
    <path
       style="fill:#389b3c;fill-opacity:1;stroke-width:0.020325"
       d="M 7.9362718,6.4665915 C 6.8171009,8.8804748 9.1586234,8.0740898 9.1586234,8.0740898 L 9.4438652,7.153329 8.7304962,7.6405857 8.2702082,7.7002612 8.0949685,7.1004271 8.5376335,6.5533026 9.4563067,6.138572 8.7176373,5.93356 Z"
       id="path1-1" />
    <path
       style="fill:#389b3c;fill-opacity:1;stroke-width:0.264583"
       d="m 6.0036362,9.5442424 c 0.7953536,-1.5650508 2.1038383,-0.82101 2.1038383,-0.82101 0,0 -0.1795957,1.5137366 -1.3854543,1.4111106 C 5.5161615,10.031717 6.1575755,9.3646464 6.1575755,9.3646464 Z"
       id="path7" />
    <path
       style="fill:#389b3c;fill-opacity:1;stroke-width:0.264583"
       d="M 6.1832323,9.7751515 H 5.3365656 l 0.1282827,0.3335355 0.718384,-0.1539398 z"
       id="path8" />
  </g>
</svg>
