<?xml version="1.0" encoding="UTF-8" standalone="no"?>
<!-- Created with Inkscape (http://www.inkscape.org/) -->

<svg
   width="56"
   height="14"
   viewBox="0 0 14.816664 3.7041683"
   version="1.1"
   id="svg1"
   inkscape:version="1.4.2 (f4327f4, 2025-05-13)"
   sodipodi:docname="cerrarsesion.svg"
   xmlns:inkscape="http://www.inkscape.org/namespaces/inkscape"
   xmlns:sodipodi="http://sodipodi.sourceforge.net/DTD/sodipodi-0.dtd"
   xmlns="http://www.w3.org/2000/svg"
   xmlns:svg="http://www.w3.org/2000/svg">
  <sodipodi:namedview
     id="namedview1"
     pagecolor="#ffffff"
     bordercolor="#000000"
     borderopacity="0.25"
     inkscape:showpageshadow="2"
     inkscape:pageopacity="0.0"
     inkscape:pagecheckerboard="0"
     inkscape:deskcolor="#d1d1d1"
     inkscape:document-units="px"
     inkscape:zoom="14.111111"
     inkscape:cx="27.425197"
     inkscape:cy="11.65748"
     inkscape:window-width="1366"
     inkscape:window-height="697"
     inkscape:window-x="-8"
     inkscape:window-y="-8"
     inkscape:window-maximized="1"
     inkscape:current-layer="layer1" />
  <defs
     id="defs1" />
  <g
     inkscape:label="Capa 1"
     inkscape:groupmode="layer"
     id="layer1">
    <text
       xml:space="preserve"
       style="font-size:2.82556px;line-height:1.4;font-family:forte;-inkscape-font-specification:forte;text-align:start;writing-mode:lr-tb;direction:ltr;text-anchor:start;fill:#bee6c0;fill-opacity:1;stroke-width:0.0233609"
       x="0.63431811"
       y="2.4620745"
       id="text2"
       transform="scale(0.90363459,1.106642)"><tspan
         sodipodi:role="line"
         id="tspan2"
         style="fill:#bee6c0;fill-opacity:1;stroke-width:0.0233609"
         x="0.63431811"
         y="2.4620745">materiales</tspan></text>
    <path
       style="fill:#bee6c0;fill-opacity:1;stroke-width:0.0113984"
       d="m 6.7386683,0.84724863 c -0.01343,-0.053368 -0.09684,-0.43447326 0.337238,-0.47573455 0.434075,-0.0412622 0.928826,-0.0155642 0.928826,-0.0155642 l -0.359563,0.58598771 c 0,0 -0.400089,0.59907551 -0.906498,-0.0946877 z"
       id="path3"
       inkscape:transform-center-x="0.53646644"
       inkscape:transform-center-y="0.18751719" />
    <path
       style="fill:#bee6c0;fill-opacity:1;stroke-width:0.0104811"
       d="m 6.5213163,1.0717754 0.089,0.1134897 0.450866,-0.25024037 -0.06438,-0.10272163 z"
       id="path4"
       inkscape:transform-center-x="1.2027117"
       inkscape:transform-center-y="0.37427343" />
    <path
       style="fill:none;stroke-width:0.0126142"
       d="m 7.4699973,0.99363455 c -0.123184,0.29373125 -0.104255,0.36153185 -0.14282,0.29904365 -0.03856,-0.062489 -0.01071,-0.049185 -0.01071,-0.049185 0,0 -0.244585,0.1182311 0.07212,0.063828 0.316712,-0.054403 0.361702,-0.076987 0.361702,-0.076987 0,0 -0.340998,-0.32444763 -0.280297,-0.23669703 z"
       id="path30" />
    <path
       style="fill:#389b3c;fill-opacity:1;stroke-width:0.0113984"
       d="m 6.7949183,0.90349863 c -0.01343,-0.053368 -0.09684,-0.43447326 0.337238,-0.47573455 0.434075,-0.0412622 0.928826,-0.0155642 0.928826,-0.0155642 l -0.359563,0.58598771 c 0,0 -0.400089,0.59907541 -0.906498,-0.0946877 z"
       id="path35"
       inkscape:transform-center-x="0.53646644"
       inkscape:transform-center-y="0.18751719" />
    <text
       xml:space="preserve"
       style="font-size:2.82556px;line-height:1.4;font-family:forte;-inkscape-font-specification:forte;text-align:start;writing-mode:lr-tb;direction:ltr;text-anchor:start;fill:#389b3c;fill-opacity:1;stroke-width:0.0233609"
       x="0.71731621"
       y="2.4451315"
       id="text1"
       transform="scale(0.90363459,1.106642)"><tspan
         sodipodi:role="line"
         id="tspan1"
         style="fill:#389b3c;fill-opacity:1;stroke-width:0.0233609"
         x="0.71731621"
         y="2.4451315">materiales</tspan></text>
    <path
       style="fill:#389b3c;fill-opacity:1;stroke-width:0.0104811"
       d="m 6.6150663,1.0717754 0.089,0.1134897 0.450866,-0.25024038 -0.06438,-0.10272163 z"
       id="path36"
       inkscape:transform-center-x="1.2027117"
       inkscape:transform-center-y="0.37427343" />
  </g>
</svg>
