<?xml version="1.0" encoding="UTF-8" standalone="no"?>
<!-- Created with Inkscape (http://www.inkscape.org/) -->

<svg
   width="48"
   height="20"
   viewBox="0 0 12.7 5.2916688"
   version="1.1"
   id="svg1"
   inkscape:version="1.4.2 (f4327f4, 2025-05-13)"
   sodipodi:docname="logoatardecer.svg"
   xmlns:inkscape="http://www.inkscape.org/namespaces/inkscape"
   xmlns:sodipodi="http://sodipodi.sourceforge.net/DTD/sodipodi-0.dtd"
   xmlns="http://www.w3.org/2000/svg"
   xmlns:svg="http://www.w3.org/2000/svg">
  <sodipodi:namedview
     id="namedview1"
     pagecolor="#ffffff"
     bordercolor="#000000"
     borderopacity="0.25"
     inkscape:showpageshadow="2"
     inkscape:pageopacity="0.0"
     inkscape:pagecheckerboard="0"
     inkscape:deskcolor="#d1d1d1"
     inkscape:document-units="px"
     inkscape:zoom="9.9780623"
     inkscape:cx="19.943752"
     inkscape:cy="17.488365"
     inkscape:window-width="1366"
     inkscape:window-height="697"
     inkscape:window-x="-8"
     inkscape:window-y="-8"
     inkscape:window-maximized="1"
     inkscape:current-layer="layer1" />
  <defs
     id="defs1" />
  <g
     inkscape:label="Capa 1"
     inkscape:groupmode="layer"
     id="layer1">
    <ellipse
       style="fill:#cccccc;fill-opacity:1;stroke-width:0.0349999"
       id="path1"
       cx="6.6254129"
       cy="2.5778091"
       rx="5.0999999"
       ry="1.05" />
    <ellipse
       style="fill:#cccccc;fill-opacity:1;stroke-width:0.0349999"
       id="path2"
       cx="5.2751904"
       cy="-3.2260356"
       rx="0.89999998"
       ry="2.3062501"
       transform="rotate(65.462592)" />
    <ellipse
       style="fill:#cccccc;fill-opacity:0.879699;stroke-width:0.0349999"
       id="path2-3"
       transform="rotate(65.462592)"
       ry="2.3062501"
       rx="0.89999998"
       cy="-7.2083859"
       cx="5.4506931" />
    <ellipse
       style="fill:#c5fafa;fill-opacity:1;stroke-width:0.0397053"
       id="path4"
       cx="8.7474537"
       cy="-5.1299376"
       rx="0.375"
       ry="0.69375002"
       transform="rotate(44.132206)"
       inkscape:transform-center-x="0.0375"
       inkscape:transform-center-y="0.075" />
    <ellipse
       style="fill:#00ff00;fill-opacity:1;stroke-width:0.0349999"
       id="path5"
       cx="4.8441625"
       cy="4.3965588"
       rx="0.20625"
       ry="0.16875" />
    <ellipse
       style="fill:#ff0000;fill-opacity:1;stroke-width:0.0349999"
       id="path6"
       cx="10.825413"
       cy="1.4715592"
       rx="0.1875"
       ry="0.20625" />
    <path
       style="fill:#389b3c;fill-opacity:1;stroke-width:0.00877252"
       d="M 2.6719098,2.365845 C 2.2249451,3.3850946 3.238708,2.876303 3.238708,2.876303 L 3.3458017,2.6662052 3.1170293,2.7380807 2.8311839,2.8238084 2.753085,2.6360534 2.8409846,2.4839363 3.2079886,2.3017626 3.0127427,2.1982955 Z"
       id="path1-1"
       sodipodi:nodetypes="cccccccccc" />
    <path
       style="fill:#389b3c;fill-opacity:1;stroke-width:0.00877252"
       d="m 3.4044206,2.749542 c 0,0 1.4469751,-0.7116812 0,0 z"
       id="path2-0" />
    <path
       style="fill:#389b3c;fill-opacity:1;stroke-width:0.00834488"
       d="m 3.9927491,2.2851827 c 0,0 0.579772,-0.5283255 0,0 z"
       id="path3" />
    <path
       style="fill:#389b3c;fill-opacity:1;stroke-width:0.00834488"
       d="M 3.4727562,2.9500266 C 3.4097977,2.8217877 3.3816135,2.5197951 3.3816135,2.5197951 c 0,0 0.7304432,0.00609 0.7106006,-0.028635 -0.019843,-0.034729 0.034071,0.4476499 0.034071,0.4476499 z"
       id="path8" />
    <path
       style="fill:#389b3c;fill-opacity:1;stroke-width:0.00834488"
       d="M 3.1985033,2.5624909 4.2686921,2.5496023 3.7738694,2.1076685 c 0,0 -0.6530218,0.3279313 -0.5753661,0.4548224 z"
       id="path9" />
    <path
       style="fill:#389b3c;fill-opacity:1;stroke-width:0.0065147"
       d="M 4.4693208,2.2910032 4.8794051,2.1874319 c 0,0 -0.014386,-0.094328 -0.046654,-0.1239352 -0.032279,-0.029606 -0.3942653,0.037533 -0.3942653,0.037533 l -0.2369094,0.2084647 0.1668126,0.2747212 0.3011275,-2.099e-4 0.00562,0.045746 -0.080998,0.082784 -0.2860723,-0.00782 c 0,0 0.053843,0.1711 0.1354167,0.2053523 0.081574,0.034252 0.3707506,-0.011546 0.3880638,-0.049757 0.00786,-0.017336 0.036729,-0.065501 0.065932,-0.1129501 0.035166,-0.057136 0.057737,-0.1310798 0.057737,-0.1310798 L 4.9168756,2.5246256 4.8208169,2.3989638 4.5519114,2.3880195 Z"
       id="path11"
       sodipodi:nodetypes="ccscccccccsssccccc" />
    <path
       style="fill:#389b3c;fill-opacity:1;stroke-width:0.00834488"
       d="m 3.4290228,2.6725348 c 0.046095,0.046988 0.374784,0.1178984 0.374784,0.1178984 L 3.958006,2.3688296 3.7058579,2.3487512 Z"
       id="path12" />
    <path
       style="fill:none;stroke-width:0.00877252"
       d="m 7.500865,3.4023677 c 0,0 -0.065435,0.1675692 0,0 z"
       id="path13" />
    <path
       style="fill:#389b3c;fill-opacity:1;stroke-width:0.00877252"
       d="m 7.5965664,3.1338313 c 0,0 -0.029394,0.0027 0,0 z"
       id="path15" />
    <path
       style="fill:#389b3c;fill-opacity:1;stroke-width:0.00877252"
       d="M 7.6520307,3.2095266 Z"
       id="path16" />
    <path
       style="fill:#389b3c;fill-opacity:1;stroke-width:0.00877252"
       d="M 7.6160147,2.9570168 Z"
       id="path17" />
    <path
       style="fill:#389b3c;fill-opacity:1;stroke-width:0.00877252"
       d="m 7.6638974,2.9795522 c 0,0 -0.1204317,0.1995418 0,0 z"
       id="path18" />
    <path
       style="fill:#389b3c;fill-opacity:1;stroke-width:0.00877252"
       d="m 7.0025834,2.2054544 c 0,0 -0.090077,-0.0052 0,0 z"
       id="path19" />
    <path
       style="fill:#389b3c;fill-opacity:1;stroke-width:0.00877252"
       d="m 7.0414551,2.2692081 c 0,0 0.070655,-0.2353673 0,0 z"
       id="path20" />
    <path
       style="fill:#389b3c;fill-opacity:1;stroke-width:0.00877252"
       d="m 5.0675797,2.233877 -0.0067,-0.046988 c 0,0 0.1149947,-0.1533548 0.3208218,-0.038949 0.2058273,0.1144048 0.163579,0.2610863 0.163579,0.2610863 0.00386,-0.022149 0.030847,0.1178663 0.070378,0.3457992 L 5.4389866,2.7710323 5.3109364,2.6114115 c 0,0 0.2759104,-0.2061977 0.072745,-0.00667 C 5.1805183,2.8042624 5.1868896,2.7751169 5.1868896,2.7751169 L 4.993805,2.6024208 5.0943864,2.4218267 5.3049137,2.4215568 5.2757565,2.2909457 5.1238928,2.3334379 Z"
       id="path22"
       sodipodi:nodetypes="ccsccccsccccccc" />
    <path
       style="fill:#389b3c;fill-opacity:1;stroke-width:0.00877252"
       d="M 5.4594767,2.1027231 5.7021908,2.0328559 5.945879,2.4865226 6.0049082,2.0146077 6.2975646,2.0734458 6.0511248,2.7815214 c 0,0 -0.2051658,0.037862 -0.2353328,-0.026016 C 5.7856255,2.6916315 5.4594767,2.1027231 5.4594767,2.1027231 Z"
       id="path23" />
    <path
       style="fill:#389b3c;fill-opacity:1;stroke-width:0.00877252"
       d="m 7.060208,2.3271809 c 0,0 0.2403465,0.2826053 0,0 z"
       id="path24" />
    <path
       style="fill:#389b3c;fill-opacity:1;stroke-width:0.00877252"
       d="m 6.8212022,2.0539725 c 0,0 0.2457432,-0.2700732 0,0 z"
       id="path25" />
    <path
       style="fill:#389b3c;fill-opacity:1;stroke-width:0.00877252"
       d="m 7.1071391,2.3609572 c 0,0 -0.02244,-0.3787576 -0.3157734,-0.2947274 -0.2933354,0.08403 -0.2816026,0.092475 -0.2816026,0.092475 0,0 -0.1247081,0.011439 -0.18607,0.2455585 -0.061361,0.2341186 0.3469505,0.2918675 0.3469505,0.2918675 L 6.8791693,2.5341962 c 0,0 -0.5131004,-0.087139 -0.094871,-8.171e-4 0.1493204,0.030819 -0.2980179,-0.096428 -0.2980179,-0.096428 l -0.00268,-0.018796 z"
       id="path26"
       sodipodi:nodetypes="cscsccsccc" />
    <path
       style="fill:#389b3c;fill-opacity:1;stroke-width:0.0085504"
       d="m 7.1963125,2.6955122 c 0.036255,-0.02262 -0.091238,-0.5704717 -0.091238,-0.5704717 l 0.2134538,-0.1642906 0.3579502,0.2951743 -0.2021177,0.1053669 0.2834202,0.206299 -0.2827668,0.00588 c 0,0 -0.1327426,-0.2386544 -0.1370523,-0.1996695 -0.00431,0.038985 -0.00525,0.3091967 -0.00525,0.3091967 z"
       id="path27"
       sodipodi:nodetypes="cccccccscc" />
    <path
       style="fill:#389b3c;fill-opacity:1;stroke-width:0.00789838"
       d="m 8.2497425,2.165505 c 0,0 0.2007313,-0.1792606 0.2565291,-0.1482741 0.055798,0.030986 0.372646,0.014716 0.3016694,0.1909068 C 8.736965,2.384331 8.4884972,2.3412153 8.4884972,2.3412153 l -0.062378,-0.029074 c 0,0 -0.1471824,0.1153706 0.035886,0.1264789 0.1830684,0.011105 0.1842817,-0.00547 0.1842817,-0.00547 l -0.011533,0.1574569 c 0,0 -0.2143059,0.018976 -0.2713179,0.00457 C 8.306422,2.5807631 8.187389,2.3535148 8.187389,2.3535148 Z"
       id="path29"
       sodipodi:nodetypes="cssccsccscc" />
    <path
       style="fill:#389b3c;fill-opacity:1;stroke-width:0.0115496"
       d="m 7.7368159,2.1508693 c 0.020109,0.017958 0.1734152,0.231623 0.1734152,0.231623 L 8.1594827,2.1616032 Z"
       id="path31" />
    <path
       style="fill:#389b3c;fill-opacity:1;stroke-width:0.00890251"
       d="m 7.674663,1.9110295 c 0.00966,0.067746 0.1659619,0.5730519 0.1659619,0.5730519 L 8.2627268,2.1218095 7.8222657,1.8386619 7.8651356,1.9916032 8.0569893,2.0818544 7.9045158,2.1938871 7.8930704,1.966021 7.8339565,1.8468259 Z"
       id="path34"
       sodipodi:nodetypes="cccccccccc" />
    <path
       style="fill:#389b3c;fill-opacity:1;stroke-width:0.00792703"
       d="M 7.6095485,3.0917418 C 7.5816127,3.0638766 7.3891851,2.8603554 7.6183077,2.6782421 7.8474294,2.4961291 8.1363215,2.3331491 8.1363215,2.3331491 l 0.020703,0.4891606 c 0,0 0.00283,0.511825 -0.547476,0.2694321 z"
       id="path35"
       inkscape:transform-center-x="0.32991364"
       inkscape:transform-center-y="0.23835902" />
    <path
       style="fill:#389b3c;fill-opacity:1;stroke-width:0.00728912"
       d="M 7.4982088,3.306766 7.591707,3.3441913 7.7505834,3.0278901 7.6750817,2.9881711 Z"
       id="path36"
       inkscape:transform-center-x="0.53773141"
       inkscape:transform-center-y="0.65951019" />
  </g>
</svg>
