<?xml version="1.0" encoding="UTF-8" standalone="no"?>
<!-- Created with Inkscape (http://www.inkscape.org/) -->

<svg
   width="48"
   height="20"
   viewBox="0 0 12.7 5.2916688"
   version="1.1"
   id="svg1"
   inkscape:version="1.4.2 (f4327f4, 2025-05-13)"
   sodipodi:docname="logoatardecer1.svg"
   xmlns:inkscape="http://www.inkscape.org/namespaces/inkscape"
   xmlns:sodipodi="http://sodipodi.sourceforge.net/DTD/sodipodi-0.dtd"
   xmlns="http://www.w3.org/2000/svg"
   xmlns:svg="http://www.w3.org/2000/svg">
  <sodipodi:namedview
     id="namedview1"
     pagecolor="#ffffff"
     bordercolor="#000000"
     borderopacity="0.25"
     inkscape:showpageshadow="2"
     inkscape:pageopacity="0.0"
     inkscape:pagecheckerboard="0"
     inkscape:deskcolor="#d1d1d1"
     inkscape:document-units="px"
     inkscape:zoom="28.222222"
     inkscape:cx="19.860236"
     inkscape:cy="14.155512"
     inkscape:window-width="1366"
     inkscape:window-height="697"
     inkscape:window-x="-8"
     inkscape:window-y="-8"
     inkscape:window-maximized="1"
     inkscape:current-layer="layer1" />
  <defs
     id="defs1" />
  <g
     inkscape:label="Capa 1"
     inkscape:groupmode="layer"
     id="layer1">
    <ellipse
       style="fill:#cccccc;fill-opacity:1;stroke-width:0.0349999"
       id="path1"
       cx="6.6254129"
       cy="2.5778091"
       rx="5.0999999"
       ry="1.05"
       sodipodi:insensitive="true" />
    <ellipse
       style="fill:#ffbc07;fill-opacity:0.115226;stroke-width:0.0349999"
       id="path1-8"
       cx="6.6190033"
       cy="2.5585322"
       rx="5.0999999"
       ry="1.05"
       sodipodi:insensitive="true" />
    <ellipse
       style="fill:#cccccc;fill-opacity:1;stroke-width:0.0349999"
       id="path2"
       cx="5.2751904"
       cy="-3.2260356"
       rx="0.89999998"
       ry="2.3062501"
       transform="rotate(65.462592)"
       sodipodi:insensitive="true" />
    <ellipse
       style="fill:#cccccc;fill-opacity:0.879699;stroke-width:0.0349999"
       id="path2-3"
       transform="rotate(65.462592)"
       ry="2.3062501"
       rx="0.89999998"
       cy="-7.2083859"
       cx="5.4506931"
       sodipodi:insensitive="true" />
    <ellipse
       style="fill:#c5fafa;fill-opacity:1;stroke-width:0.0397053"
       id="path4"
       cx="8.7474537"
       cy="-5.1299376"
       rx="0.375"
       ry="0.69375002"
       transform="rotate(44.132206)"
       inkscape:transform-center-x="0.0375"
       inkscape:transform-center-y="0.075"
       sodipodi:insensitive="true" />
    <ellipse
       style="fill:#00ff00;fill-opacity:1;stroke-width:0.0349999"
       id="path5"
       cx="4.8441625"
       cy="4.3965588"
       rx="0.20625"
       ry="0.16875"
       sodipodi:insensitive="true" />
    <ellipse
       style="fill:#ff0000;fill-opacity:1;stroke-width:0.0349999"
       id="path6"
       cx="10.825413"
       cy="1.4715592"
       rx="0.1875"
       ry="0.20625"
       sodipodi:insensitive="true" />
    <ellipse
       style="fill:#ffbc07;fill-opacity:0.0699589;stroke-width:0.0349999"
       id="path2-3-2"
       transform="rotate(65.462593)"
       ry="2.3062501"
       rx="0.89999998"
       cy="-7.1715283"
       cx="5.4649363"
       sodipodi:insensitive="true" />
    <path
       style="fill:#389b3c;fill-opacity:1;stroke-width:0.00877252"
       d="M 2.6719098,2.365845 C 2.2249451,3.3850946 3.238708,2.876303 3.238708,2.876303 L 3.3458017,2.6662052 3.1170293,2.7380807 2.8311839,2.8238084 2.753085,2.6360534 2.8409846,2.4839363 3.2079886,2.3017626 3.0127427,2.1982955 Z"
       id="path1-1"
       sodipodi:nodetypes="cccccccccc" />
    <path
       style="fill:#389b3c;fill-opacity:1;stroke-width:0.00877252"
       d="m 3.4044206,2.749542 c 0,0 1.4469751,-0.7116812 0,0 z"
       id="path2-0" />
    <path
       style="fill:#389b3c;fill-opacity:1;stroke-width:0.00834488"
       d="m 3.9927491,2.2851827 c 0,0 0.579772,-0.5283255 0,0 z"
       id="path3" />
    <path
       style="fill:#389b3c;fill-opacity:1;stroke-width:0.00834488"
       d="M 3.4727562,2.9500266 C 3.4097977,2.8217877 3.3816135,2.5197951 3.3816135,2.5197951 c 0,0 0.7304432,0.00609 0.7106006,-0.028635 -0.019843,-0.034729 0.034071,0.4476499 0.034071,0.4476499 z"
       id="path8" />
    <path
       style="fill:#389b3c;fill-opacity:1;stroke-width:0.00834488"
       d="M 3.1985033,2.5624909 4.2686921,2.5496023 3.7738694,2.1076685 c 0,0 -0.6530218,0.3279313 -0.5753661,0.4548224 z"
       id="path9" />
    <path
       style="fill:#389b3c;fill-opacity:1;stroke-width:0.0065147"
       d="M 4.4693208,2.2910032 4.8794051,2.1874319 c 0,0 -0.014386,-0.094328 -0.046654,-0.1239352 -0.032279,-0.029606 -0.3942653,0.037533 -0.3942653,0.037533 l -0.2369094,0.2084647 0.1668126,0.2747212 0.3011275,-2.099e-4 0.00562,0.045746 -0.080998,0.082784 -0.2860723,-0.00782 c 0,0 0.053843,0.1711 0.1354167,0.2053523 0.081574,0.034252 0.3707506,-0.011546 0.3880638,-0.049757 0.00786,-0.017336 0.036729,-0.065501 0.065932,-0.1129501 0.035166,-0.057136 0.057737,-0.1310798 0.057737,-0.1310798 L 4.9168756,2.5246256 4.8208169,2.3989638 4.5519114,2.3880195 Z"
       id="path11"
       sodipodi:nodetypes="ccscccccccsssccccc" />
    <path
       style="fill:#389b3c;fill-opacity:1;stroke-width:0.00834488"
       d="m 3.4290228,2.6725348 c 0.046095,0.046988 0.374784,0.1178984 0.374784,0.1178984 L 3.958006,2.3688296 3.7058579,2.3487512 Z"
       id="path12" />
    <path
       style="fill:none;stroke-width:0.00877252"
       d="m 7.500865,3.4023677 c 0,0 -0.065435,0.1675692 0,0 z"
       id="path13" />
    <path
       style="fill:#389b3c;fill-opacity:1;stroke-width:0.00877252"
       d="m 7.5965664,3.1338313 c 0,0 -0.029394,0.0027 0,0 z"
       id="path15" />
    <path
       style="fill:#389b3c;fill-opacity:1;stroke-width:0.00877252"
       d="M 7.6520307,3.2095266 Z"
       id="path16" />
    <path
       style="fill:#389b3c;fill-opacity:1;stroke-width:0.00877252"
       d="M 7.6160147,2.9570168 Z"
       id="path17" />
    <path
       style="fill:#389b3c;fill-opacity:1;stroke-width:0.00877252"
       d="m 7.6638974,2.9795522 c 0,0 -0.1204317,0.1995418 0,0 z"
       id="path18" />
    <path
       style="fill:#389b3c;fill-opacity:1;stroke-width:0.00877252"
       d="m 7.0025834,2.2054544 c 0,0 -0.090077,-0.0052 0,0 z"
       id="path19" />
    <path
       style="fill:#389b3c;fill-opacity:1;stroke-width:0.00877252"
       d="m 7.0414551,2.2692081 c 0,0 0.070655,-0.2353673 0,0 z"
       id="path20" />
    <path
       style="fill:#389b3c;fill-opacity:1;stroke-width:0.00877252"
       d="m 5.0675797,2.233877 -0.0067,-0.046988 c 0,0 0.1149947,-0.1533548 0.3208218,-0.038949 0.2058273,0.1144048 0.163579,0.2610863 0.163579,0.2610863 0.00386,-0.022149 0.030847,0.1178663 0.070378,0.3457992 L 5.4389866,2.7710323 5.3109364,2.6114115 c 0,0 0.2759104,-0.2061977 0.072745,-0.00667 C 5.1805183,2.8042624 5.1868896,2.7751169 5.1868896,2.7751169 L 4.993805,2.6024208 5.0943864,2.4218267 5.3049137,2.4215568 5.2757565,2.2909457 5.1238928,2.3334379 Z"
       id="path22"
       sodipodi:nodetypes="ccsccccsccccccc" />
    <path
       style="fill:#389b3c;fill-opacity:1;stroke-width:0.00877252"
       d="M 5.4594767,2.1027231 5.7021908,2.0328559 5.945879,2.4865226 6.0049082,2.0146077 6.2975646,2.0734458 6.0511248,2.7815214 c 0,0 -0.2051658,0.037862 -0.2353328,-0.026016 C 5.7856255,2.6916315 5.4594767,2.1027231 5.4594767,2.1027231 Z"
       id="path23" />
    <path
       style="fill:#389b3c;fill-opacity:1;stroke-width:0.00877252"
       d="m 7.060208,2.3271809 c 0,0 0.2403465,0.2826053 0,0 z"
       id="path24" />
    <path
       style="fill:#389b3c;fill-opacity:1;stroke-width:0.00877252"
       d="m 6.8212022,2.0539725 c 0,0 0.2457432,-0.2700732 0,0 z"
       id="path25" />
    <path
       style="fill:#389b3c;fill-opacity:1;stroke-width:0.00877252"
       d="m 7.1071391,2.3609572 c 0,0 -0.02244,-0.3787576 -0.3157734,-0.2947274 -0.2933354,0.08403 -0.2816026,0.092475 -0.2816026,0.092475 0,0 -0.1247081,0.011439 -0.18607,0.2455585 -0.061361,0.2341186 0.3469505,0.2918675 0.3469505,0.2918675 L 6.8791693,2.5341962 c 0,0 -0.5131004,-0.087139 -0.094871,-8.171e-4 0.1493204,0.030819 -0.2980179,-0.096428 -0.2980179,-0.096428 l -0.00268,-0.018796 z"
       id="path26"
       sodipodi:nodetypes="cscsccsccc" />
    <path
       style="fill:#389b3c;fill-opacity:1;stroke-width:0.0085504"
       d="m 7.1963125,2.6955122 c 0.036255,-0.02262 -0.091238,-0.5704717 -0.091238,-0.5704717 l 0.2134538,-0.1642906 0.3579502,0.2951743 -0.2021177,0.1053669 0.2834202,0.206299 -0.2827668,0.00588 c 0,0 -0.1327426,-0.2386544 -0.1370523,-0.1996695 -0.00431,0.038985 -0.00525,0.3091967 -0.00525,0.3091967 z"
       id="path27"
       sodipodi:nodetypes="cccccccscc" />
    <path
       style="fill:#389b3c;fill-opacity:1;stroke-width:0.00789838"
       d="m 8.2497425,2.165505 c 0,0 0.2007313,-0.1792606 0.2565291,-0.1482741 0.055798,0.030986 0.372646,0.014716 0.3016694,0.1909068 C 8.736965,2.384331 8.4884972,2.3412153 8.4884972,2.3412153 l -0.062378,-0.029074 c 0,0 -0.1471824,0.1153706 0.035886,0.1264789 0.1830684,0.011105 0.1842817,-0.00547 0.1842817,-0.00547 l -0.011533,0.1574569 c 0,0 -0.2143059,0.018976 -0.2713179,0.00457 C 8.306422,2.5807631 8.187389,2.3535148 8.187389,2.3535148 Z"
       id="path29"
       sodipodi:nodetypes="cssccsccscc" />
    <path
       style="fill:#389b3c;fill-opacity:1;stroke-width:0.0115496"
       d="m 7.7368159,2.1508693 c 0.020109,0.017958 0.1734152,0.231623 0.1734152,0.231623 L 8.1594827,2.1616032 Z"
       id="path31" />
    <path
       style="fill:#389b3c;fill-opacity:1;stroke-width:0.00890251"
       d="m 7.674663,1.9110295 c 0.00966,0.067746 0.1659619,0.5730519 0.1659619,0.5730519 L 8.2627268,2.1218095 7.8222657,1.8386619 7.8651356,1.9916032 8.0569893,2.0818544 7.9045158,2.1938871 7.8930704,1.966021 7.8339565,1.8468259 Z"
       id="path34"
       sodipodi:nodetypes="cccccccccc" />
    <path
       style="fill:#389b3c;fill-opacity:1;stroke-width:0.00792703"
       d="M 7.6095485,3.0917418 C 7.5816127,3.0638766 7.3891851,2.8603554 7.6183077,2.6782421 7.8474294,2.4961291 8.1363215,2.3331491 8.1363215,2.3331491 l 0.020703,0.4891606 c 0,0 0.00283,0.511825 -0.547476,0.2694321 z"
       id="path35"
       inkscape:transform-center-x="0.32991364"
       inkscape:transform-center-y="0.23835902" />
    <path
       style="fill:#389b3c;fill-opacity:1;stroke-width:0.00728912"
       d="M 7.4982088,3.306766 7.591707,3.3441913 7.7505834,3.0278901 7.6750817,2.9881711 Z"
       id="path36"
       inkscape:transform-center-x="0.53773141"
       inkscape:transform-center-y="0.65951019" />
    <ellipse
       style="fill:#ffbc07;fill-opacity:0.10699589;stroke-width:0.0349999"
       id="path2-2"
       cx="5.2400832"
       cy="-3.2282295"
       rx="0.89999998"
       ry="2.3062501"
       transform="rotate(65.462592)" />
    <path
       style="fill:#ffbc07;fill-opacity:0.10588235;stroke-width:0.00877252"
       d="m 2.680095,2.3798485 c -0.4469647,1.0192496 0.5667982,0.510458 0.5667982,0.510458 L 3.3539869,2.6802087 3.1252145,2.7520842 2.8393691,2.8378119 2.7612702,2.6500569 2.8491698,2.4979398 3.2161738,2.3157661 3.0209279,2.212299 Z"
       id="path1-1-5"
       sodipodi:nodetypes="cccccccccc" />
    <path
       style="fill:#389b3c;fill-opacity:1;stroke-width:0.00877252"
       d="m 3.4126058,2.7635455 c 0,0 1.4469751,-0.7116812 0,0 z"
       id="path2-0-0" />
    <path
       style="fill:#389b3c;fill-opacity:1;stroke-width:0.00834488"
       d="m 4.0009343,2.2991862 c 0,0 0.579772,-0.5283255 0,0 z"
       id="path3-2" />
    <path
       style="fill:#ffbc07;fill-opacity:0.10588235;stroke-width:0.00834488"
       d="M 3.4809414,2.9640301 C 3.4179829,2.8357912 3.3897987,2.5337986 3.3897987,2.5337986 c 0,0 0.7304432,0.00609 0.7106006,-0.028635 -0.019843,-0.034729 0.034071,0.4476499 0.034071,0.4476499 z"
       id="path8-8" />
    <path
       style="fill:#ffbc07;fill-opacity:0.10588235;stroke-width:0.00834488"
       d="M 3.2066885,2.5764944 4.2768773,2.5636058 3.7820546,2.121672 c 0,0 -0.6530218,0.3279313 -0.5753661,0.4548224 z"
       id="path9-6" />
    <path
       style="fill:#ffbc07;fill-opacity:0.10588235;stroke-width:0.0065147"
       d="M 4.477506,2.3050067 4.8875903,2.2014354 c 0,0 -0.014386,-0.094328 -0.046654,-0.1239352 -0.032279,-0.029606 -0.3942653,0.037533 -0.3942653,0.037533 l -0.2369094,0.2084647 0.1668126,0.2747212 0.3011275,-2.099e-4 0.00562,0.045746 -0.080998,0.082784 -0.2860723,-0.00782 c 0,0 0.053843,0.1711 0.1354167,0.2053523 0.081574,0.034252 0.3707506,-0.011546 0.3880638,-0.049757 0.00786,-0.017336 0.036729,-0.065501 0.065932,-0.1129501 0.035166,-0.057136 0.057737,-0.1310798 0.057737,-0.1310798 L 4.9250608,2.5386291 4.8290021,2.4129673 4.5600966,2.402023 Z"
       id="path11-0"
       sodipodi:nodetypes="ccscccccccsssccccc" />
    <path
       style="fill:#ffbc07;fill-opacity:0.10588235;stroke-width:0.00834488"
       d="m 3.437208,2.6865383 c 0.046095,0.046988 0.374784,0.1178984 0.374784,0.1178984 L 3.9661912,2.3828331 3.7140431,2.3627547 Z"
       id="path12-2" />
    <path
       style="fill:none;stroke-width:0.00877252"
       d="m 7.5090502,3.4163712 c 0,0 -0.065435,0.1675692 0,0 z"
       id="path13-4" />
    <path
       style="fill:#389b3c;fill-opacity:1;stroke-width:0.00877252"
       d="m 7.6047516,3.1478348 c 0,0 -0.029394,0.0027 0,0 z"
       id="path15-8" />
    <path
       style="fill:#389b3c;fill-opacity:1;stroke-width:0.00877252"
       d="M 7.6602159,3.2235301 Z"
       id="path16-6" />
    <path
       style="fill:#389b3c;fill-opacity:1;stroke-width:0.00877252"
       d="M 7.6241999,2.9710203 Z"
       id="path17-5" />
    <path
       style="fill:#389b3c;fill-opacity:1;stroke-width:0.00877252"
       d="m 7.6720826,2.9935557 c 0,0 -0.1204317,0.1995418 0,0 z"
       id="path18-0" />
    <path
       style="fill:#389b3c;fill-opacity:1;stroke-width:0.00877252"
       d="m 7.0107686,2.2194579 c 0,0 -0.090077,-0.0052 0,0 z"
       id="path19-9" />
    <path
       style="fill:#389b3c;fill-opacity:1;stroke-width:0.00877252"
       d="m 7.0496403,2.2832116 c 0,0 0.070655,-0.2353673 0,0 z"
       id="path20-0" />
    <path
       style="fill:#ffbc07;fill-opacity:0.10588235;stroke-width:0.00877252"
       d="m 5.0757649,2.2478805 -0.0067,-0.046988 c 0,0 0.1149947,-0.1533548 0.3208218,-0.038949 0.2058273,0.1144048 0.163579,0.2610863 0.163579,0.2610863 0.00386,-0.022149 0.030847,0.1178663 0.070378,0.3457992 L 5.4471718,2.7850358 5.3191216,2.625415 c 0,0 0.2759104,-0.2061977 0.072745,-0.00667 C 5.1887035,2.8182659 5.1950748,2.7891204 5.1950748,2.7891204 L 5.0019902,2.6164243 5.1025716,2.4358302 5.3130989,2.4355603 5.2839417,2.3049492 5.132078,2.3474414 Z"
       id="path22-0"
       sodipodi:nodetypes="ccsccccsccccccc" />
    <path
       style="fill:#ffbc07;fill-opacity:0.10588235;stroke-width:0.00877252"
       d="M 5.4676619,2.1167266 5.710376,2.0468594 5.9540642,2.5005261 6.0130934,2.0286112 6.3057498,2.0874493 6.05931,2.7955249 c 0,0 -0.2051658,0.037862 -0.2353328,-0.026016 C 5.7938107,2.705635 5.4676619,2.1167266 5.4676619,2.1167266 Z"
       id="path23-6" />
    <path
       style="fill:#389b3c;fill-opacity:1;stroke-width:0.00877252"
       d="m 7.0683932,2.3411844 c 0,0 0.2403465,0.2826053 0,0 z"
       id="path24-1" />
    <path
       style="fill:#389b3c;fill-opacity:1;stroke-width:0.00877252"
       d="m 6.8293874,2.067976 c 0,0 0.2457432,-0.2700732 0,0 z"
       id="path25-3" />
    <path
       style="fill:#ffbc07;fill-opacity:0.10588235;stroke-width:0.00877252"
       d="m 7.1153243,2.3749607 c 0,0 -0.02244,-0.3787576 -0.3157734,-0.2947274 -0.2933354,0.08403 -0.2816026,0.092475 -0.2816026,0.092475 0,0 -0.1247081,0.011439 -0.18607,0.2455585 -0.061361,0.2341186 0.3469505,0.2918675 0.3469505,0.2918675 L 6.8873545,2.5481997 c 0,0 -0.5131004,-0.087139 -0.094871,-8.171e-4 0.1493204,0.030819 -0.2980179,-0.096428 -0.2980179,-0.096428 l -0.00268,-0.018796 z"
       id="path26-8"
       sodipodi:nodetypes="cscsccsccc" />
    <path
       style="fill:#ffbc07;fill-opacity:0.10588235;stroke-width:0.0085504"
       d="M 7.2044977,2.7095157 C 7.2407527,2.6868957 7.1132597,2.139044 7.1132597,2.139044 L 7.3267135,1.9747534 7.6846637,2.2699277 7.482546,2.3752946 l 0.2834202,0.206299 -0.2827668,0.00588 c 0,0 -0.1327426,-0.2386544 -0.1370523,-0.1996695 -0.00431,0.038985 -0.00525,0.3091967 -0.00525,0.3091967 z"
       id="path27-9"
       sodipodi:nodetypes="cccccccscc" />
    <path
       style="fill:#ffbc07;fill-opacity:0.10588235;stroke-width:0.00789838"
       d="m 8.2579277,2.1795085 c 0,0 0.2007313,-0.1792606 0.2565291,-0.1482741 0.055798,0.030986 0.372646,0.014716 0.3016694,0.1909068 -0.070976,0.1761933 -0.3194438,0.1330776 -0.3194438,0.1330776 l -0.062378,-0.029074 c 0,0 -0.1471824,0.1153706 0.035886,0.1264789 0.1830684,0.011105 0.1842817,-0.00547 0.1842817,-0.00547 l -0.011533,0.1574569 c 0,0 -0.2143059,0.018976 -0.2713179,0.00457 -0.057014,-0.014414 -0.176047,-0.2416623 -0.176047,-0.2416623 z"
       id="path29-3"
       sodipodi:nodetypes="cssccsccscc" />
    <path
       style="fill:#389b3c;fill-opacity:1;stroke-width:0.0115496"
       d="m 7.7450011,2.1648728 c 0.020109,0.017958 0.1734152,0.231623 0.1734152,0.231623 L 8.1676679,2.1756067 Z"
       id="path31-4" />
    <path
       style="fill:#ffbc07;fill-opacity:0.105882;stroke-width:0.00890251"
       d="m 7.6828482,1.925033 c 0.00966,0.067746 0.1659619,0.5730519 0.1659619,0.5730519 L 8.270912,2.135813 7.8304509,1.8526654 7.8733208,2.0056067 8.0651745,2.0958579 7.912701,2.2078906 7.9012556,1.9800245 7.8421417,1.8608294 Z"
       id="path34-4"
       sodipodi:nodetypes="cccccccccc" />
    <path
       style="fill:#ffbc07;fill-opacity:0.10588235;stroke-width:0.00792703"
       d="M 7.6177337,3.1057453 C 7.5897979,3.0778801 7.3973703,2.8743589 7.6264929,2.6922456 7.8556146,2.5101326 8.1445067,2.3471526 8.1445067,2.3471526 l 0.020703,0.4891606 c 0,0 0.00283,0.511825 -0.547476,0.2694321 z"
       id="path35-6"
       inkscape:transform-center-x="0.32991364"
       inkscape:transform-center-y="0.23835902" />
    <path
       style="fill:#ffbc07;fill-opacity:0.10588235;stroke-width:0.00728912"
       d="M 7.506394,3.3207695 7.599892,3.3581945 7.7587684,3.0418933 7.6832664,3.0021743 Z"
       id="path36-0"
       inkscape:transform-center-x="0.53773141"
       inkscape:transform-center-y="0.65951019" />
  </g>
</svg>
