<?xml version="1.0" encoding="UTF-8" standalone="no"?>
<!-- Created with Inkscape (http://www.inkscape.org/) -->

<svg
   width="212mm"
   height="100mm"
   viewBox="0 0 212 100"
   version="1.1"
   id="svg1"
   inkscape:version="1.4.2 (f4327f4, 2025-05-13)"
   sodipodi:docname="logonoche.svg"
   xmlns:inkscape="http://www.inkscape.org/namespaces/inkscape"
   xmlns:sodipodi="http://sodipodi.sourceforge.net/DTD/sodipodi-0.dtd"
   xmlns="http://www.w3.org/2000/svg"
   xmlns:svg="http://www.w3.org/2000/svg"
   xmlns:rdf="http://www.w3.org/1999/02/22-rdf-syntax-ns#"
   xmlns:cc="http://creativecommons.org/ns#"
   xmlns:dc="http://purl.org/dc/elements/1.1/">
  <title
     id="title1">logo1</title>
  <sodipodi:namedview
     id="namedview1"
     pagecolor="#ffffff"
     bordercolor="#000000"
     borderopacity="0.25"
     inkscape:showpageshadow="2"
     inkscape:pageopacity="0.0"
     inkscape:pagecheckerboard="0"
     inkscape:deskcolor="#d1d1d1"
     inkscape:document-units="mm"
     inkscape:zoom="0.88194444"
     inkscape:cx="404.7874"
     inkscape:cy="137.76378"
     inkscape:window-width="1366"
     inkscape:window-height="697"
     inkscape:window-x="-8"
     inkscape:window-y="-8"
     inkscape:window-maximized="1"
     inkscape:current-layer="layer9" />
  <defs
     id="defs1">
    <linearGradient
       id="swatch228"
       inkscape:swatch="solid">
      <stop
         style="stop-color:#029c27;stop-opacity:1;"
         offset="0"
         id="stop229" />
    </linearGradient>
  </defs>
  <g
     inkscape:groupmode="layer"
     id="layer9"
     inkscape:label="Capa 2"
     transform="translate(-105,-13.8)">
    <path
       style="fill:#eeee69;fill-opacity:1;stroke-width:0.264583"
       d="m 113.78023,66.181209 c -16.878569,30.825839 14.07608,17.723553 14.07608,17.723553 l 3.90549,-6.310873 -6.81091,1.603587 -8.49348,1.875138 -1.46232,-6.142147 3.12292,-4.539324 11.19804,-4.679658 -5.14295,-3.824753 z"
       id="path1-7"
       sodipodi:nodetypes="cccccccccc" />
    <path
       style="fill:#eeee69;fill-opacity:1;stroke-width:0.264583"
       d="m 133.09342,80.389379 c 0,0 44.12346,-18.243354 0,0 z"
       id="path2-8" />
    <path
       style="fill:#eeee69;fill-opacity:1;stroke-width:0.251684"
       d="m 151.74489,67.457449 c 0,0 18.66762,-14.97231 0,0 z"
       id="path3-3" />
    <path
       style="fill:#eeee69;fill-opacity:1;stroke-width:0.187209"
       d="m 162.36343,71.079958 11.76773,-2.726048 c 0,0 -0.21572,-2.769018 -1.06609,-3.658591 -0.85036,-0.889573 -11.18913,0.806657 -11.18913,0.806657 l -7.09696,5.921183 4.15021,8.156592 8.48874,0.216161 0.0671,1.341852 -2.44953,2.36104 -8.0482,-0.439973 c 0,0 1.17396,5.043098 3.40458,6.104909 2.23061,1.061813 10.47409,-0.06399 11.0389,-1.168696 0.25624,-0.50119 1.16691,-1.888285 2.08545,-3.254272 1.10607,-1.644856 1.89088,-3.790485 1.89088,-3.790485 l -0.8968,-2.70836 -2.45527,-3.745527 -7.55804,-0.518464 z"
       id="path11-5"
       sodipodi:nodetypes="ccscccccccsssccccc" />
    <path
       style="fill:#eeee69;fill-opacity:1;stroke-width:0.264583"
       d="m 250.98521,104.61659 c 0,0 -0.84853,0 0,0 z"
       id="path15-1" />
    <path
       style="fill:#eeee69;fill-opacity:1;stroke-width:0.264583"
       d="M 252.258,107.16217 Z"
       id="path16-2" />
    <path
       style="fill:#eeee69;fill-opacity:1;stroke-width:0.264583"
       d="M 252.258,99.101155 Z"
       id="path17-0" />
    <path
       style="fill:#eeee69;fill-opacity:1;stroke-width:0.264583"
       d="m 253.5308,99.949684 c 0,0 -4.24264,5.939696 0,0 z"
       id="path18-1" />
    <path
       style="fill:#eeee69;fill-opacity:1;stroke-width:0.264583"
       d="m 237.83303,73.645312 c 0,0 -2.54559,-0.424264 0,0 z"
       id="path19-6" />
    <path
       style="fill:#eeee69;fill-opacity:1;stroke-width:0.264583"
       d="m 238.68155,75.766633 c 0,0 2.96985,-7.212489 0,0 z"
       id="path20-4" />
    <path
       style="fill:#eeee69;fill-opacity:1;stroke-width:0.264583"
       d="m 175.9803,61.747629 v -1.5 c 0,0 3.9,-4.5 9.3,-0.3 5.4,4.2 3.6,8.7 3.6,8.7 0.2,-0.68682 0.4,3.80328 0.6,11.1 h -5.1 l -3,-5.4 c 0,0 8.7,-5.7 2.1,0 -6.6,5.7 -6.3,4.8 -6.3,4.8 l -4.8,-6 3.6,-5.4 6,0.6 -0.3,-4.2 -4.5,0.9 z"
       id="path22-0"
       sodipodi:nodetypes="ccsccccsccccccc" />
    <path
       style="fill:#eeee69;fill-opacity:1;stroke-width:0.264583"
       d="m 189.4803,61.147629 8.4,2.4 3.3,15 3.6,-14.7 8.1,2.7 -9.9,21.6 c 0,0 -6,0.6 -6.6,-1.5 -0.6,-2.1 -6.9,-25.5 -6.9,-25.5 z"
       id="path23-6"
       sodipodi:nodetypes="ccccccsc" />
    <path
       style="fill:#eeee69;fill-opacity:1;stroke-width:0.264583"
       d="m 238.9803,77.647627 c 0,0 5.7,9.600002 0,0 z"
       id="path24-1" />
    <path
       style="fill:#eeee69;fill-opacity:1;stroke-width:0.264583"
       d="m 233.2803,68.347629 c 0,0 8.1,-7.800001 0,0 z"
       id="path25-8" />
    <path
       style="fill:#eeee69;fill-opacity:1;stroke-width:0.264583"
       d="m 232.3803,75.547629 c 0,0 0.9,-12 -7.8,-10.2 -8.7,1.8 -8.4,2.099998 -8.4,2.099998 0,0 -3.6,0 -6.3,7.2 -2.7,7.200001 8.7,10.2 8.7,10.2 l 6.6,-4.499999 c 0,0 -14.26645,-4.229016 -2.7,-0.3 4.12957,1.402776 -8.1,-3.900001 -8.1,-3.900001 l 0.3,0.300002 z"
       id="path26-9"
       sodipodi:nodetypes="cscsccsccc" />
    <path
       style="fill:#eeee69;fill-opacity:1;stroke-width:0.257884"
       d="m 233.56155,86.347629 c 1.125,-0.608 -0.28125,-18.24 -0.28125,-18.24 l 6.75,-4.56 9,10.336 -6.1875,2.736 7.2375,7.32 -8.08125,-0.632 c 0,0 -2.8125,-7.904 -3.09375,-6.688 -0.28125,1.216 -1.40625,9.728 -1.40625,9.728 z"
       id="path27-8"
       sodipodi:nodetypes="cccccccscc" />
    <path
       style="fill:#eeee69;fill-opacity:1;stroke-width:0.238217"
       d="m 258.59072,66.938334 c 0,0 1.65827,-8.03247 3.51085,-8.107389 1.85259,-0.07493 9.06236,-5.633121 10.41855,0.219209 1.3562,5.852322 -5.25978,8.719016 -5.25978,8.719016 l -1.97519,0.23237 c 0,0 -1.49259,5.460601 3.02622,2.796861 4.51883,-2.663757 4.26212,-3.125941 4.26212,-3.125941 l 2.43868,4.390819 c 0,0 -4.73918,3.972235 -6.33506,4.509351 -1.59589,0.537117 -6.2229,-3.605857 -6.2229,-3.605857 z"
       id="path29-4"
       sodipodi:nodetypes="cssccsccscc" />
    <path
       style="fill:#eeee69;fill-opacity:1;stroke-width:0.268503"
       d="m 248.5803,64.210316 c 0,2.162686 2.4,18.537313 2.4,18.537313 l 12,-7.795522 -9.9,-12.595523 0.6,4.943284 5.1,8.498507 -4.8,-2.010447 0.6,-7.213433 -1.19999,-3.926866 z"
       id="path34-1"
       sodipodi:nodetypes="cccccccccc" />
    <path
       style="fill:#eeee69;fill-opacity:1;stroke-width:0.188259"
       d="m 251.35895,93.103915 c -0.53055,-0.765009 -4.14883,-6.325738 1.49994,-10.375998 5.64875,-4.050249 12.5606,-7.481609 12.5606,-7.481609 l -1.08652,12.346202 c 0,0 -1.55377,12.87483 -12.97402,5.511405 z"
       id="path35-4"
       inkscape:transform-center-x="7.868203"
       inkscape:transform-center-y="5.6436435" />
    <path
       style="fill:#eeee69;fill-opacity:1;stroke-width:0.219842"
       d="m 247.77969,100.48167 2.5121,1.4496 5.81265,-9.507801 -1.98997,-1.46985 z"
       id="path36-3"
       inkscape:transform-center-x="18.007525"
       inkscape:transform-center-y="19.253656" />
    <path
       sodipodi:type="star"
       style="fill:#eeee69;fill-opacity:1;stroke-width:0.0349999"
       id="path4-9"
       inkscape:flatsided="false"
       sodipodi:sides="5"
       sodipodi:cx="25.5"
       sodipodi:cy="49.799999"
       sodipodi:r1="17.722866"
       sodipodi:r2="8.861433"
       sodipodi:arg1="0.5926974"
       sodipodi:arg2="1.2210159"
       inkscape:rounded="0"
       inkscape:randomized="0"
       d="M 40.2,59.699999 28.536738,58.124855 20.627091,66.839798 18.520996,55.260631 7.7883767,50.431174 18.15,44.85 19.426524,33.150288 27.936454,41.2801 39.458009,38.878737 34.355812,49.484411 Z"
       inkscape:transform-center-x="1.5058119"
       inkscape:transform-center-y="0.19504379"
       transform="translate(118.6803,22.147629)" />
  </g>
  <metadata
     id="metadata1">
    <rdf:RDF>
      <cc:Work
         rdf:about="">
        <dc:title>logo1</dc:title>
      </cc:Work>
    </rdf:RDF>
  </metadata>
</svg>
