<?xml version="1.0" encoding="UTF-8" standalone="no"?>
<!-- Created with Inkscape (http://www.inkscape.org/) -->

<svg
   width="212mm"
   height="51mm"
   viewBox="0 0 212 51"
   version="1.1"
   id="svg1"
   inkscape:version="1.4.2 (f4327f4, 2025-05-13)"
   sodipodi:docname="logoatardecer1.svg"
   xmlns:inkscape="http://www.inkscape.org/namespaces/inkscape"
   xmlns:sodipodi="http://sodipodi.sourceforge.net/DTD/sodipodi-0.dtd"
   xmlns="http://www.w3.org/2000/svg"
   xmlns:svg="http://www.w3.org/2000/svg"
   xmlns:rdf="http://www.w3.org/1999/02/22-rdf-syntax-ns#"
   xmlns:cc="http://creativecommons.org/ns#"
   xmlns:dc="http://purl.org/dc/elements/1.1/">
  <title
     id="title1">logo1</title>
  <sodipodi:namedview
     id="namedview1"
     pagecolor="#ffffff"
     bordercolor="#000000"
     borderopacity="0.25"
     inkscape:showpageshadow="2"
     inkscape:pageopacity="0.0"
     inkscape:pagecheckerboard="0"
     inkscape:deskcolor="#d1d1d1"
     inkscape:document-units="mm"
     inkscape:zoom="0.88194444"
     inkscape:cx="350.92914"
     inkscape:cy="93.543308"
     inkscape:window-width="1366"
     inkscape:window-height="697"
     inkscape:window-x="-8"
     inkscape:window-y="-8"
     inkscape:window-maximized="1"
     inkscape:current-layer="layer1" />
  <defs
     id="defs1">
    <linearGradient
       id="swatch228"
       inkscape:swatch="solid">
      <stop
         style="stop-color:#029c27;stop-opacity:1;"
         offset="0"
         id="stop229" />
    </linearGradient>
  </defs>
  <g
     inkscape:label="Capa 1"
     inkscape:groupmode="layer"
     id="layer1">
    <path
       style="fill:#4d0c6d;fill-opacity:0.666667;stroke-width:0.264905"
       d="M 15.737261,7.3331897 C -2.2540165,36.323102 30.741294,24.001163 30.741294,24.001163 l 4.162957,-5.93501 -7.259916,1.508082 -9.053406,1.763458 -1.558723,-5.776334 3.328797,-4.26897 11.936264,-4.4009459 -5.481996,-3.5969593 z"
       id="path1-4"
       sodipodi:nodetypes="cccccccccc" />
    <path
       style="fill:#389b3c;fill-opacity:1;stroke-width:0.264905"
       d="m 36.323656,20.695149 c 0,0 47.032268,-17.1568145 0,0 z"
       id="path2-9" />
    <path
       style="fill:#389b3c;fill-opacity:1;stroke-width:0.251991"
       d="m 56.204712,8.5334212 c 0,0 19.898268,-14.0805893 0,0 z"
       id="path3-6" />
    <path
       style="fill:#4d0c6d;fill-opacity:0.666667;stroke-width:0.251991"
       d="M 37.530688,26.822175 C 36.173989,22.850727 36.62622,13.824714 36.62622,13.824714 c 0,0 22.159435,2.166251 21.707205,1.083115 -0.452233,-1.083115 -0.904468,13.358508 -0.904468,13.358508 z"
       id="path8-3" />
    <path
       style="fill:#4d0c6d;fill-opacity:0.666667;stroke-width:0.251991"
       d="M 30.879643,14.592208 63.44044,17.119496 50.325678,2.6778619 c 0,0 -21.254968,7.9428871 -19.446035,11.9143461 z"
       id="path9-7" />
    <path
       style="fill:#4d0c6d;fill-opacity:0.666667;stroke-width:0.196726"
       d="M 70.654466,10.001428 83.558684,8.0469459 c 0,0 -0.02803,-2.8344823 -0.880111,-3.7995905 -0.852101,-0.965108 -12.137649,0.040526 -12.137649,0.040526 l -8.098787,5.5337263 3.876469,8.5946983 9.14708,0.812469 -0.02686,1.370962 -2.818783,2.233084 -8.654997,-1.009612 c 0,0 0.89414,5.216831 3.223399,6.453632 2.329257,1.236802 11.310873,0.665762 12.002265,-0.419641 0.31368,-0.492433 1.399313,-1.841229 2.491875,-3.167986 1.315617,-1.597616 2.321508,-3.727539 2.321508,-3.727539 l -0.767677,-2.820248 -2.373217,-3.98505 -8.120083,-1.055328 z"
       id="path11-8"
       sodipodi:nodetypes="ccscccccccsssccccc" />
    <path
       style="fill:#4d0c6d;fill-opacity:0.666667;stroke-width:0.251991"
       d="m 37.404507,18.479956 c 1.196486,1.517766 10.872598,4.512682 10.872598,4.512682 L 54.787084,10.917803 47.215543,9.6373444 Z"
       id="path12-8" />
    <path
       style="fill:none;stroke-width:0.264905"
       d="m 157.91727,51.17721 c 0,0 -2.71338,4.78795 0,0 z"
       id="path13-2" />
    <path
       style="fill:#389b3c;fill-opacity:1;stroke-width:0.264905"
       d="m 161.98737,43.479434 c 0,0 -0.90445,0 0,0 z"
       id="path15-1" />
    <path
       style="fill:#389b3c;fill-opacity:1;stroke-width:0.264905"
       d="M 163.34408,45.873404 Z"
       id="path16-3" />
    <path
       style="fill:#389b3c;fill-opacity:1;stroke-width:0.264905"
       d="M 163.34408,38.292488 Z"
       id="path17-5" />
    <path
       style="fill:#389b3c;fill-opacity:1;stroke-width:0.264905"
       d="m 164.70079,39.09048 c 0,0 -4.52233,5.585939 0,0 z"
       id="path18-9" />
    <path
       style="fill:#389b3c;fill-opacity:1;stroke-width:0.264905"
       d="m 147.96815,14.352746 c 0,0 -2.71341,-0.398995 0,0 z"
       id="path19-8" />
    <path
       style="fill:#389b3c;fill-opacity:1;stroke-width:0.264905"
       d="m 148.87261,16.347725 c 0,0 3.16563,-6.7829277 0,0 z"
       id="path20-4" />
    <path
       style="fill:#4d0c6d;fill-opacity:0.666667;stroke-width:0.264905"
       d="M 89.072923,9.9348472 V 8.5241849 c 0,0 4.157105,-4.2319884 9.913095,-0.2821335 5.755982,3.9498566 3.837332,8.1818466 3.837332,8.1818466 0.21319,-0.645915 0.42637,3.576763 0.63955,10.438904 h -5.436212 l -3.197772,-5.078386 c 0,0 9.273534,-5.360518 2.238441,0 -7.035102,5.36052 -6.715324,4.514121 -6.715324,4.514121 l -5.116436,-5.642651 3.837326,-5.078388 6.395547,0.564266 -0.319777,-3.949856 -4.79666,0.846397 z"
       id="path22-0"
       sodipodi:nodetypes="ccsccccsccccccc" />
    <path
       style="fill:#4d0c6d;fill-opacity:0.666667;stroke-width:0.264905"
       d="m 103.4629,7.3956541 7.67467,-1.4106629 5.4362,14.1066298 3.83733,-13.8244969 8.63399,2.5391933 -10.55266,20.3135456 c 0,0 -6.39554,0.564265 -7.03509,-1.410664 C 110.81777,25.734272 103.4629,7.3956541 103.4629,7.3956541 Z"
       id="path23-7"
       sodipodi:nodetypes="ccccccsc" />
    <path
       style="fill:#389b3c;fill-opacity:1;stroke-width:0.264905"
       d="m 149.19106,18.116691 c 0,0 6.07577,9.028245 0,0 z"
       id="path24-6" />
    <path
       style="fill:#389b3c;fill-opacity:1;stroke-width:0.264905"
       d="m 143.11529,9.3705823 c 0,0 8.63399,-7.3354473 0,0 z"
       id="path25-3" />
    <path
       style="fill:#4d0c6d;fill-opacity:0.666667;stroke-width:0.264905"
       d="m 150.47016,19.245224 c 0,0 0.95934,-11.285304 -8.3142,-9.5925092 -9.27355,1.6927962 -8.95376,1.9749262 -8.95376,1.9749262 0,0 -3.83734,0 -6.71534,6.771183 -2.87798,6.771181 9.27354,9.592508 9.27354,9.592508 l 7.03511,-4.231988 c 0,0 -15.20695,-3.977145 -2.878,-0.282134 4.40181,1.319229 -8.63398,-3.667725 -8.63398,-3.667725 v -0.564261 z"
       id="path26-6"
       sodipodi:nodetypes="cscsccsccc" />
    <path
       style="fill:#4d0c6d;fill-opacity:0.666667;stroke-width:0.258198"
       d="m 152.68862,29.401996 c 1.19916,-0.571789 -0.29979,-17.153661 -0.29979,-17.153661 l 7.19499,-4.288415 9.59331,9.720407 -6.5954,2.573049 7.71463,6.884036 -8.61401,-0.59436 c 0,0 -2.9979,-7.433253 -3.29769,-6.289676 -0.2998,1.143579 -1.49897,9.14862 -1.49897,9.14862 z"
       id="path27-1"
       sodipodi:nodetypes="cccccccscc" />
    <path
       style="fill:#4d0c6d;fill-opacity:0.666667;stroke-width:0.238508"
       d="m 186.02133,16.559174 c 0,0 6.87342,-4.766622 8.43393,-3.696672 1.56053,1.069949 11.25467,1.449045 8.33561,6.477503 -2.91907,5.028453 -10.27902,3.075303 -10.27902,3.075303 l -1.76864,-1.031171 c 0,0 -4.9702,3.018846 0.54199,3.845689 5.51223,0.826848 5.6209,0.338975 5.6209,0.338975 l -1.03249,4.634789 c 0,0 -6.59135,-0.02017 -8.26054,-0.602251 -1.66921,-0.582077 -4.30013,-7.640078 -4.30013,-7.640078 z"
       id="path29-5"
       sodipodi:nodetypes="cssccsccscc" />
    <path
       style="fill:none;stroke-width:0.264905"
       d="m 127.12643,50.279802 c 0.31977,6.771182 1.2791,7.899713 0,7.053316 -1.27912,-0.846397 -0.63957,-0.846397 -0.63957,-0.846397 0,0 -3.51756,4.51412 1.91867,0.564263 5.43622,-3.949855 6.07577,-4.796255 6.07577,-4.796255 0,0 -9.27354,-3.103457 -7.35487,-1.974927 z"
       id="path30-4" />
    <path
       style="fill:#4d0c6d;fill-opacity:0.666667;stroke-width:0.26883"
       d="m 169.6568,7.1724749 c 0,2.0338812 2.55822,17.4332671 2.55822,17.4332671 l 14.38998,-9.588296 -12.15153,-9.5882983 0.63954,4.6488723 5.43622,3.196098 -5.11644,2.905545 0.63955,-6.7838145 -1.27909,-3.6929889 z"
       id="path34-2"
       sodipodi:nodetypes="cccccccccc" />
    <path
       style="fill:#4d0c6d;fill-opacity:0.666667;stroke-width:0.239374"
       d="m 162.56403,42.267419 c -0.72773,-0.901705 -5.69074,-7.456057 2.05738,-12.230042 7.74809,-4.773972 17.2287,-8.818469 17.2287,-8.818469 l -1.49032,14.552297 c 0,0 -2.13122,15.17538 -17.79576,6.496214 z"
       id="path35-0"
       inkscape:transform-center-x="10.792395"
       inkscape:transform-center-y="6.6520831" />
    <path
       style="fill:#4d0c6d;fill-opacity:0.666667;stroke-width:0.22011"
       d="m 158.25076,48.336891 2.6777,1.363261 6.19585,-8.94153 -2.12115,-1.382308 z"
       id="path36-9"
       inkscape:transform-center-x="19.194662"
       inkscape:transform-center-y="18.106947" />
    <path
       style="fill:#e82d8c;fill-opacity:0.849123;stroke-width:0.264905"
       d="M 17.117309,7.1306432 C -0.87396821,36.120556 32.121341,23.798617 32.121341,23.798617 l 4.162957,-5.935011 -7.259915,1.508081 -9.053407,1.763458 -1.558723,-5.776333 3.328796,-4.26897 11.936266,-4.4009464 -5.481997,-3.5969581 z"
       id="path1"
       sodipodi:nodetypes="cccccccccc" />
    <path
       style="fill:#389b3c;fill-opacity:1;stroke-width:0.264905"
       d="m 37.064149,20.774735 c 0,0 47.032271,-17.1568151 0,0 z"
       id="path2" />
    <path
       style="fill:#389b3c;fill-opacity:1;stroke-width:0.251991"
       d="m 56.945204,8.6130055 c 0,0 19.898274,-14.0805877 0,0 z"
       id="path3" />
    <path
       style="fill:#e82d8c;fill-opacity:0.85098;stroke-width:0.251991"
       d="M 39.230514,26.901761 C 37.873814,22.930312 38.326046,13.9043 38.326046,13.9043 c 0,0 22.159435,2.16625 21.707203,1.083115 -0.452232,-1.083115 -0.904466,13.358508 -0.904466,13.358508 z"
       id="path8" />
    <path
       style="fill:#e82d8c;fill-opacity:0.85098;stroke-width:0.251991"
       d="m 33.219023,14.671795 32.5608,2.527286 L 52.665057,2.757448 c 0,0 -21.254967,7.942888 -19.446034,11.914347 z"
       id="path9" />
    <path
       style="fill:none;stroke-width:0.264583"
       d="m -21.38768,149.11892 c -7.32427,-0.65147 -12.30366,-1.2728 0,0 z"
       id="path10"
       sodipodi:nodetypes="cc" />
    <path
       style="fill:#e82d8c;fill-opacity:0.85098;stroke-width:0.196726"
       d="M 72.674067,10.081015 85.57829,8.1265323 c 0,0 -0.02801,-2.8344823 -0.880118,-3.7995915 -0.852097,-0.965108 -12.137651,0.040526 -12.137651,0.040526 l -8.098784,5.5337274 3.876473,8.5946978 9.147081,0.812468 -0.02686,1.37096 -2.818789,2.233088 -8.654993,-1.009612 c 0,0 0.894138,5.216829 3.223397,6.453631 2.329257,1.236802 11.310872,0.665761 12.002269,-0.419641 0.313678,-0.492433 1.399308,-1.841231 2.491873,-3.167985 1.315615,-1.597617 2.321509,-3.72754 2.321509,-3.72754 L 85.25602,18.221013 82.882802,14.235961 74.762716,13.180633 Z"
       id="path11"
       sodipodi:nodetypes="ccscccccccsssccccc" />
    <path
       style="fill:#e82d8c;fill-opacity:0.85098;stroke-width:0.251991"
       d="m 39.42411,18.841674 c 1.196486,1.517766 10.872598,4.512682 10.872598,4.512682 L 56.806686,11.279521 49.235145,9.9990622 Z"
       id="path12" />
    <path
       style="fill:none;stroke-width:0.264905"
       d="m 158.65778,51.256799 c 0,0 -2.7134,4.78795 0,0 z"
       id="path13" />
    <path
       style="fill:none;stroke-width:0.264905"
       d="m 157.30108,52.453785 c 0,0 -9.94914,15.161842 0,0 z"
       id="path14" />
    <path
       style="fill:#389b3c;fill-opacity:1;stroke-width:0.264905"
       d="m 162.72788,43.559019 c 0,0 -0.90447,0 0,0 z"
       id="path15" />
    <path
       style="fill:#389b3c;fill-opacity:1;stroke-width:0.264905"
       d="M 164.08457,45.95299 Z"
       id="path16" />
    <path
       style="fill:#389b3c;fill-opacity:1;stroke-width:0.264905"
       d="M 164.08457,38.372073 Z"
       id="path17" />
    <path
       style="fill:#389b3c;fill-opacity:1;stroke-width:0.264905"
       d="m 165.4413,39.170066 c 0,0 -4.52234,5.585938 0,0 z"
       id="path18" />
    <path
       style="fill:#389b3c;fill-opacity:1;stroke-width:0.264905"
       d="m 148.70866,14.432332 c 0,0 -2.71341,-0.398997 0,0 z"
       id="path19" />
    <path
       style="fill:#389b3c;fill-opacity:1;stroke-width:0.264905"
       d="m 149.61312,16.42731 c 0,0 3.16563,-6.7829263 0,0 z"
       id="path20" />
    <path
       style="fill:#e82d8c;fill-opacity:0.85098;stroke-width:0.264905"
       d="M 91.092531,10.296566 V 8.8859038 c 0,0 4.157104,-4.2319891 9.913089,-0.2821325 5.756,3.9498557 3.83734,8.1818447 3.83734,8.1818447 0.21317,-0.645915 0.42637,3.576764 0.63954,10.438905 h -5.43621 l -3.197768,-5.078385 c 0,0 9.273538,-5.36052 2.238443,0 -7.035102,5.360517 -6.715325,4.51412 -6.715325,4.51412 l -5.116436,-5.642652 3.837327,-5.078387 6.39554,0.564266 -0.319772,-3.949856 -4.796659,0.846398 z"
       id="path22"
       sodipodi:nodetypes="ccsccccsccccccc" />
    <path
       style="fill:#e82d8c;fill-opacity:0.85098;stroke-width:0.264905"
       d="m 105.16273,7.193108 7.67466,-1.410663 5.43621,14.106629 3.83733,-13.8244962 8.63398,2.5391935 -10.55265,20.3135457 c 0,0 -6.39553,0.564265 -7.0351,-1.410664 -0.63955,-1.974927 -7.99443,-20.313545 -7.99443,-20.313545 z"
       id="path23"
       sodipodi:nodetypes="ccccccsc" />
    <path
       style="fill:#389b3c;fill-opacity:1;stroke-width:0.264905"
       d="m 149.93156,18.196278 c 0,0 6.07576,9.028243 0,0 z"
       id="path24" />
    <path
       style="fill:#389b3c;fill-opacity:1;stroke-width:0.264905"
       d="m 143.85579,9.4501687 c 0,0 8.63398,-7.3354486 0,0 z"
       id="path25" />
    <path
       style="fill:#e82d8c;fill-opacity:0.85098;stroke-width:0.264905"
       d="m 152.16999,19.60694 c 0,0 0.95934,-11.2853022 -8.3142,-9.592505 -9.27355,1.692794 -8.95377,1.974925 -8.95377,1.974925 0,0 -3.83733,0 -6.71533,6.771182 -2.87799,6.771183 9.27354,9.592507 9.27354,9.592507 l 7.0351,-4.231987 c 0,0 -15.20694,-3.977144 -2.878,-0.282134 4.40182,1.31923 -8.63397,-3.667723 -8.63397,-3.667723 V 19.60694 Z"
       id="path26"
       sodipodi:nodetypes="cscsccsccc" />
    <path
       style="fill:#e82d8c;fill-opacity:0.85098;stroke-width:0.258198"
       d="m 154.38845,29.199449 c 1.19917,-0.571788 -0.29978,-17.153661 -0.29978,-17.153661 l 7.19497,-4.288414 9.59333,9.720407 -6.5954,2.573049 7.71462,6.884035 -8.61401,-0.594359 c 0,0 -2.99791,-7.433254 -3.2977,-6.289676 -0.2998,1.143578 -1.49895,9.148619 -1.49895,9.148619 z"
       id="path27"
       sodipodi:nodetypes="cccccccscc" />
    <path
       style="fill:none;stroke-width:0.262322"
       d="m 107.55174,133.49379 c -1.53414,1.73985 1.94132,19.42329 1.94132,19.42329 l 15.19108,-14.34476 z"
       id="path28" />
    <path
       style="fill:#e82d8c;fill-opacity:0.85098;stroke-width:0.238508"
       d="m 187.08161,16.638759 c 0,0 6.87341,-4.766622 8.43393,-3.696672 1.56053,1.069949 11.25468,1.449046 8.33561,6.477503 -2.91907,5.028454 -10.27903,3.075304 -10.27903,3.075304 l -1.76864,-1.031171 c 0,0 -4.97019,3.018847 0.542,3.84569 5.51223,0.826847 5.62089,0.338974 5.62089,0.338974 l -1.03249,4.634789 c 0,0 -6.59133,-0.02017 -8.26054,-0.60225 -1.66919,-0.582076 -4.30013,-7.640079 -4.30013,-7.640079 z"
       id="path29"
       sodipodi:nodetypes="cssccsccscc" />
    <path
       style="fill:none;stroke-width:0.264905"
       d="m 127.86692,50.359392 c 0.31977,6.771182 1.2791,7.899712 0,7.053314 -1.27911,-0.846397 -0.63955,-0.846397 -0.63955,-0.846397 0,0 -3.51756,4.514121 1.91865,0.564265 5.43622,-3.949856 6.07578,-4.796253 6.07578,-4.796253 0,0 -9.27354,-3.103459 -7.35488,-1.974929 z"
       id="path30" />
    <path
       style="fill:none;stroke-width:0.264583"
       d="m 28.2,92.7 c 1.2,0 1.800001,15.9 1.800001,15.9 l 15.6,-9 L 31.2,89.4 32.7,103.2 38.999999,99 Z"
       id="path32" />
    <path
       style="fill:#e82d8c;fill-opacity:0.85098;stroke-width:0.26883"
       d="m 171.03686,5.8413984 c 0,2.0338807 2.55821,17.4332666 2.55821,17.4332666 l 14.38998,-9.588296 -12.15154,-9.5882979 0.63956,4.6488705 5.4362,3.1960994 -5.11642,2.905545 0.63955,-6.7838145 -1.27909,-3.6929896 z"
       id="path34"
       sodipodi:nodetypes="cccccccccc" />
    <path
       style="fill:#e82d8c;fill-opacity:0.85098;stroke-width:0.239374"
       d="m 163.94408,42.911271 c -0.72773,-0.901704 -5.69073,-7.456059 2.0574,-12.230043 7.74808,-4.773972 17.22868,-8.818469 17.22868,-8.818469 l -1.49032,14.552295 c 0,0 -2.13122,15.175386 -17.79576,6.496217 z"
       id="path35"
       inkscape:transform-center-x="10.792393"
       inkscape:transform-center-y="6.6520832" />
    <path
       style="fill:#e82d8c;fill-opacity:0.85098;stroke-width:0.22011"
       d="m 159.95059,49.262874 2.67771,1.363265 6.19584,-8.941533 -2.12117,-1.382309 z"
       id="path36"
       inkscape:transform-center-x="19.194662"
       inkscape:transform-center-y="18.106945" />
    <path
       style="fill:none;stroke-width:0.281161"
       d="m 154.45222,-16.1576 c 0,0 -10.15517,16.73310523 0,0 z"
       id="path14-9" />
    <path
       style="fill:none;fill-opacity:1;stroke-width:0.264583"
       d="m 58.2,124.2 c 7.5,-4.5 0.599998,-8.7 0.599998,-8.7 0,0 -12.899999,-2.4 -17.699999,4.5 -5.694919,8.18645 2.400002,18 2.400002,18 4.732762,8.03276 16.609692,6.66311 16.499999,0 -0.107154,-6.50889 -10.500002,-3 -10.500002,-3 0,0 -1.799997,-2.7 3e-6,-7.5 C 51.299998,122.7 58.2,124.2 58.2,124.2 Z"
       id="path255"
       sodipodi:nodetypes="ccscscsc" />
  </g>
  <metadata
     id="metadata1">
    <rdf:RDF>
      <cc:Work
         rdf:about="">
        <dc:title>logo1</dc:title>
      </cc:Work>
    </rdf:RDF>
  </metadata>
</svg>
