<?xml version="1.0" encoding="UTF-8" standalone="no"?>
<!-- Created with Inkscape (http://www.inkscape.org/) -->

<svg
   width="48"
   height="48"
   viewBox="0 0 12.7 12.7"
   version="1.1"
   id="svg1"
   xmlns="http://www.w3.org/2000/svg"
   xmlns:svg="http://www.w3.org/2000/svg">
  <defs
     id="defs1" />
  <g
     id="layer1">
    <path
       style="fill:#ffffff;fill-opacity:1;stroke-width:0.0264795"
       d="M 1.746188,7.4224227 1.5440798,6.1412917 2.2749162,5.4199336 3.250565,6.2143447 2.5775102,6.4795317 3.3647799,7.1890257 2.4857297,7.1277757 c 0,0 -0.3059344,-0.766098 -0.3365278,-0.648237 -0.030599,0.117867 0.050756,0.918424 0.050756,0.918424 z"
       id="path27-8-4" />
    <path
       style="fill:#ffffff;fill-opacity:1;stroke-width:0.264583"
       d="M 4.8260038,9.7845904 C 4.9654209,9.6149112 5.1294269,9.4606454 5.3268914,9.3645419 5.524356,9.2684384 5.7587779,9.2351923 5.9662136,9.3072934 c 0.1210173,0.042063 0.2292751,0.1186469 0.3123251,0.2162032 0.08305,0.097556 0.1410601,0.2156595 0.1714506,0.3401221 0.060781,0.2489253 0.00946,0.5176533 -0.1125447,0.7429833 -0.081972,0.151396 -0.196035,0.286656 -0.3376745,0.384526 -0.1416396,0.09787 -0.3113459,0.157226 -0.4835038,0.15864 -0.1721579,0.0014 -0.345911,-0.05693 -0.4759381,-0.169769 -0.130027,-0.112842 -0.2131993,-0.280787 -0.2143244,-0.452947 -8.145e-4,-0.124639 0.042927,-0.252139 0.132479,-0.338834 0.044776,-0.04335 0.1003305,-0.07587 0.160642,-0.09157 0.060312,-0.0157 0.1252909,-0.01427 0.1841763,0.0061 0.050964,0.01766 0.096302,0.04883 0.1369621,0.08427 0.04066,0.03544 0.077165,0.07532 0.1153215,0.113447 0.038157,0.03812 0.078388,0.07481 0.1247147,0.102433 0.046326,0.02763 0.099411,0.0459 0.1533317,0.04456 0.074173,-0.0018 0.1451882,-0.04207 0.1896527,-0.101471 0.044465,-0.0594 0.063097,-0.136251 0.056723,-0.210173 C 6.0736333,10.061938 6.043293,9.9911075 5.9989888,9.9315913 5.9546846,9.8720752 5.896819,9.8234791 5.8336311,9.7845904 5.7658813,9.7428941 5.6912103,9.7117864 5.6130332,9.6970569 5.5348561,9.6823274 5.4531226,9.68426 5.3767653,9.7065802 5.3004081,9.7289003 5.2296718,9.772 5.1777779,9.8322963 5.125884,9.8925926 5.093534,9.9702385 5.091169,10.049756 c -0.00214,0.07185 0.019423,0.141949 0.03401,0.212334 0.00729,0.03519 0.012889,0.07091 0.012885,0.106855 -3.3e-6,0.03594 -0.00576,0.07224 -0.020378,0.105074 -0.021979,0.04937 -0.063896,0.08907 -0.1135269,0.110448 -0.049631,0.02138 -0.1064342,0.02469 -0.1588272,0.01145 C 4.7929388,10.582689 4.7450737,10.5533 4.7078298,10.514146 4.6705859,10.474992 4.6438404,10.426315 4.6284645,10.37451 4.5977125,10.2709 4.612751,10.157587 4.653027,10.057295 4.6933029,9.9570035 4.757392,9.8680952 4.8260038,9.7845904 Z"
       id="path18-6"
       transform="matrix(0.92522372,0,0,0.80148974,-1.0094201,-1.8914539)" />
    <path
       style="fill:#ffffff;fill-opacity:1;stroke-width:0.264583"
       d="M 4.8260038,9.7845904 C 4.9654209,9.6149112 5.1294269,9.4606454 5.3268914,9.3645419 5.524356,9.2684384 5.7587779,9.2351923 5.9662136,9.3072934 c 0.1210173,0.042063 0.2292751,0.1186469 0.3123251,0.2162032 0.08305,0.097556 0.1410601,0.2156595 0.1714506,0.3401221 0.060781,0.2489253 0.00946,0.5176533 -0.1125447,0.7429833 -0.081972,0.151396 -0.196035,0.286656 -0.3376745,0.384526 -0.1416396,0.09787 -0.3113459,0.157226 -0.4835038,0.15864 -0.1721579,0.0014 -0.345911,-0.05693 -0.4759381,-0.169769 -0.130027,-0.112842 -0.2131993,-0.280787 -0.2143244,-0.452947 -8.145e-4,-0.124639 0.042927,-0.252139 0.132479,-0.338834 0.044776,-0.04335 0.1003305,-0.07587 0.160642,-0.09157 0.060312,-0.0157 0.1252909,-0.01427 0.1841763,0.0061 0.050964,0.01766 0.096302,0.04883 0.1369621,0.08427 0.04066,0.03544 0.077165,0.07532 0.1153215,0.113447 0.038157,0.03812 0.078388,0.07481 0.1247147,0.102433 0.046326,0.02763 0.099411,0.0459 0.1533317,0.04456 0.074173,-0.0018 0.1451882,-0.04207 0.1896527,-0.101471 0.044465,-0.0594 0.063097,-0.136251 0.056723,-0.210173 C 6.0736333,10.061938 6.043293,9.9911075 5.9989888,9.9315913 5.9546846,9.8720752 5.896819,9.8234791 5.8336311,9.7845904 5.7658813,9.7428941 5.6912103,9.7117864 5.6130332,9.6970569 5.5348561,9.6823274 5.4531226,9.68426 5.3767653,9.7065802 5.3004081,9.7289003 5.2296718,9.772 5.1777779,9.8322963 5.125884,9.8925926 5.093534,9.9702385 5.091169,10.049756 c -0.00214,0.07185 0.019423,0.141949 0.03401,0.212334 0.00729,0.03519 0.012889,0.07091 0.012885,0.106855 -3.3e-6,0.03594 -0.00576,0.07224 -0.020378,0.105074 -0.021979,0.04937 -0.063896,0.08907 -0.1135269,0.110448 -0.049631,0.02138 -0.1064342,0.02469 -0.1588272,0.01145 C 4.7929388,10.582689 4.7450737,10.5533 4.7078298,10.514146 4.6705859,10.474992 4.6438404,10.426315 4.6284645,10.37451 4.5977125,10.2709 4.612751,10.157587 4.653027,10.057295 4.6933029,9.9570035 4.757392,9.8680952 4.8260038,9.7845904 Z"
       id="path18-7-0"
       transform="matrix(0.92522372,0,0,0.80148974,5.8664984,-1.6787402)" />
    <path
       style="fill:#ffffff;fill-opacity:1;stroke-width:0.264583"
       d="m 4.6800424,5.1261687 0.45078,-0.1856156 0.238649,1.0076276 0.45078,-0.928078 0.397748,0.2386487 -1.14021,2.4660353 -0.556846,-0.212132 0.768978,-1.193243 z"
       id="path2-7" />
    <path
       style="fill:#ffffff;fill-opacity:1;stroke-width:0.0221979"
       d="m 7.5074074,5.9943427 c 0,0 -0.453099,-1.1263669 -0.910674,-0.6671975 -0.457573,0.4591705 -0.426457,0.4764015 -0.426457,0.4764015 0,0 -0.220892,0.121982 -0.08156,0.870991 0.139325,0.74901 0.965897,0.636702 0.965897,0.636702 l 0.214348,-0.634585 c 0,0 -1.054516,0.0972 -0.178378,0.06409 0.312809,-0.01182 -0.662212,-0.0817 -0.662212,-0.0817 l -0.02542,-0.05479 z"
       id="path26-3-1" />
    <path
       style="fill:#ffffff;fill-opacity:1;stroke-width:0.023959"
       d="m 7.9496444,5.222799 c -1.483962,2.8749977 1.237568,1.6530017 1.237568,1.6530017 l 0.122248,-0.524974 -0.504048,0.276788 -0.620391,-0.01596 -0.128567,-0.572853 0.274567,-0.4233637 0.984532,-0.4364521 -0.452168,-0.3567187 z"
       id="path1-2-7" />
    <path
       style="fill:#ffffff;fill-opacity:1;stroke-width:0.264583"
       d="M 9.2143644,5.5504328 10.407606,4.9140369 10.646255,5.4974 9.9568264,5.7890817 l -0.05303,1.537957 -0.503814,0.02652 0.265166,-1.431892 -0.715946,0.344715 z"
       id="path3-7" />
    <path
       style="fill:#ffffff;fill-opacity:1;stroke-width:0.390188"
       d="M 0.37538684,4.3469256 0.65979784,7.4331047 1.3098798,7.3578327 1.1879893,5.7771067 2.5852382,4.9781897 1.5942906,3.9329262 1.1879893,4.2716528 1.8256683,4.7592154 1.1473592,5.0996516 1.3098798,4.3092891 1.6755508,4.0834714 1.6190964,3.9594427 0.17223624,3.9329262 Z"
       id="path4-7" />
    <path
       style="fill:#389b3c;fill-opacity:1;stroke-width:0.0264795"
       d="M 1.8656334,7.413939 1.6635252,6.1328081 2.3943616,5.4114503 3.3700104,6.2058613 2.6969556,6.4710484 3.4842253,7.1805424 2.6051751,7.1192922 c 0,0 -0.3059344,-0.7660976 -0.3365278,-0.6482367 -0.030599,0.117867 0.050756,0.9184235 0.050756,0.9184235 z"
       id="path27-8" />
    <path
       style="fill:#389b3c;fill-opacity:1;stroke-width:0.264583"
       d="M 4.8260038,9.7845904 C 4.9654209,9.6149112 5.1294269,9.4606454 5.3268914,9.3645419 5.524356,9.2684384 5.7587779,9.2351923 5.9662136,9.3072934 c 0.1210173,0.042063 0.2292751,0.1186469 0.3123251,0.2162032 0.08305,0.097556 0.1410601,0.2156595 0.1714506,0.3401221 0.060781,0.2489253 0.00946,0.5176533 -0.1125447,0.7429833 -0.081972,0.151396 -0.196035,0.286656 -0.3376745,0.384526 -0.1416396,0.09787 -0.3113459,0.157226 -0.4835038,0.15864 -0.1721579,0.0014 -0.345911,-0.05693 -0.4759381,-0.169769 -0.130027,-0.112842 -0.2131993,-0.280787 -0.2143244,-0.452947 -8.145e-4,-0.124639 0.042927,-0.252139 0.132479,-0.338834 0.044776,-0.04335 0.1003305,-0.07587 0.160642,-0.09157 0.060312,-0.0157 0.1252909,-0.01427 0.1841763,0.0061 0.050964,0.01766 0.096302,0.04883 0.1369621,0.08427 0.04066,0.03544 0.077165,0.07532 0.1153215,0.113447 0.038157,0.03812 0.078388,0.07481 0.1247147,0.102433 0.046326,0.02763 0.099411,0.0459 0.1533317,0.04456 0.074173,-0.0018 0.1451882,-0.04207 0.1896527,-0.101471 0.044465,-0.0594 0.063097,-0.136251 0.056723,-0.210173 C 6.0736333,10.061938 6.043293,9.9911075 5.9989888,9.9315913 5.9546846,9.8720752 5.896819,9.8234791 5.8336311,9.7845904 5.7658813,9.7428941 5.6912103,9.7117864 5.6130332,9.6970569 5.5348561,9.6823274 5.4531226,9.68426 5.3767653,9.7065802 5.3004081,9.7289003 5.2296718,9.772 5.1777779,9.8322963 5.125884,9.8925926 5.093534,9.9702385 5.091169,10.049756 c -0.00214,0.07185 0.019423,0.141949 0.03401,0.212334 0.00729,0.03519 0.012889,0.07091 0.012885,0.106855 -3.3e-6,0.03594 -0.00576,0.07224 -0.020378,0.105074 -0.021979,0.04937 -0.063896,0.08907 -0.1135269,0.110448 -0.049631,0.02138 -0.1064342,0.02469 -0.1588272,0.01145 C 4.7929388,10.582689 4.7450737,10.5533 4.7078298,10.514146 4.6705859,10.474992 4.6438404,10.426315 4.6284645,10.37451 4.5977125,10.2709 4.612751,10.157587 4.653027,10.057295 4.6933029,9.9570035 4.757392,9.8680952 4.8260038,9.7845904 Z"
       id="path18"
       transform="matrix(0.92522372,0,0,0.80148973,-0.88997467,-1.8999372)" />
    <path
       style="fill:#389b3c;fill-opacity:1;stroke-width:0.264583"
       d="M 4.8260038,9.7845904 C 4.9654209,9.6149112 5.1294269,9.4606454 5.3268914,9.3645419 5.524356,9.2684384 5.7587779,9.2351923 5.9662136,9.3072934 c 0.1210173,0.042063 0.2292751,0.1186469 0.3123251,0.2162032 0.08305,0.097556 0.1410601,0.2156595 0.1714506,0.3401221 0.060781,0.2489253 0.00946,0.5176533 -0.1125447,0.7429833 -0.081972,0.151396 -0.196035,0.286656 -0.3376745,0.384526 -0.1416396,0.09787 -0.3113459,0.157226 -0.4835038,0.15864 -0.1721579,0.0014 -0.345911,-0.05693 -0.4759381,-0.169769 -0.130027,-0.112842 -0.2131993,-0.280787 -0.2143244,-0.452947 -8.145e-4,-0.124639 0.042927,-0.252139 0.132479,-0.338834 0.044776,-0.04335 0.1003305,-0.07587 0.160642,-0.09157 0.060312,-0.0157 0.1252909,-0.01427 0.1841763,0.0061 0.050964,0.01766 0.096302,0.04883 0.1369621,0.08427 0.04066,0.03544 0.077165,0.07532 0.1153215,0.113447 0.038157,0.03812 0.078388,0.07481 0.1247147,0.102433 0.046326,0.02763 0.099411,0.0459 0.1533317,0.04456 0.074173,-0.0018 0.1451882,-0.04207 0.1896527,-0.101471 0.044465,-0.0594 0.063097,-0.136251 0.056723,-0.210173 C 6.0736333,10.061938 6.043293,9.9911075 5.9989888,9.9315913 5.9546846,9.8720752 5.896819,9.8234791 5.8336311,9.7845904 5.7658813,9.7428941 5.6912103,9.7117864 5.6130332,9.6970569 5.5348561,9.6823274 5.4531226,9.68426 5.3767653,9.7065802 5.3004081,9.7289003 5.2296718,9.772 5.1777779,9.8322963 5.125884,9.8925926 5.093534,9.9702385 5.091169,10.049756 c -0.00214,0.07185 0.019423,0.141949 0.03401,0.212334 0.00729,0.03519 0.012889,0.07091 0.012885,0.106855 -3.3e-6,0.03594 -0.00576,0.07224 -0.020378,0.105074 -0.021979,0.04937 -0.063896,0.08907 -0.1135269,0.110448 -0.049631,0.02138 -0.1064342,0.02469 -0.1588272,0.01145 C 4.7929388,10.582689 4.7450737,10.5533 4.7078298,10.514146 4.6705859,10.474992 4.6438404,10.426315 4.6284645,10.37451 4.5977125,10.2709 4.612751,10.157587 4.653027,10.057295 4.6933029,9.9570035 4.757392,9.8680952 4.8260038,9.7845904 Z"
       id="path18-7"
       transform="matrix(0.92522372,0,0,0.80148973,5.9859439,-1.6872235)" />
    <path
       style="fill:#389b3c;fill-opacity:1;stroke-width:0.264583"
       d="M 4.7994874,5.1176854 5.2502681,4.9320698 5.4889165,5.9396971 5.9396972,5.0116194 6.3374448,5.2502681 5.197235,7.7163031 4.6403885,7.504171 5.4093671,6.3109282 Z"
       id="path2" />
    <path
       style="fill:#389b3c;fill-opacity:1;stroke-width:0.0221979"
       d="m 7.6268527,5.9858594 c 0,0 -0.453099,-1.1263669 -0.910674,-0.6671975 -0.457573,0.4591703 -0.426457,0.4764017 -0.426457,0.4764017 0,0 -0.220892,0.1219814 -0.08156,0.8709911 0.139325,0.7490093 0.965897,0.6367018 0.965897,0.6367018 l 0.214348,-0.6345851 c 0,0 -1.054516,0.097197 -0.178378,0.064088 0.312809,-0.011816 -0.662212,-0.081698 -0.662212,-0.081698 l -0.02542,-0.054793 z"
       id="path26-3" />
    <path
       style="fill:#389b3c;fill-opacity:1;stroke-width:0.023959"
       d="M 8.06909,5.2143157 C 6.5851273,8.089313 9.3066573,6.8673174 9.3066573,6.8673174 L 9.4289053,6.3423431 8.9248573,6.6191317 8.3044671,6.6031749 8.1759,6.0303223 8.4504668,5.6069587 9.4349983,5.1705066 8.9828303,4.8137879 Z"
       id="path1-2" />
    <path
       style="fill:#389b3c;fill-opacity:1;stroke-width:0.264583"
       d="M 9.3338097,5.5419495 10.527052,4.9055536 10.765701,5.4889167 10.076272,5.7805981 10.023239,7.3185553 9.5194252,7.3450723 9.7845903,5.9131806 9.0686447,6.2578953 Z"
       id="path3" />
    <path
       style="fill:#389b3c;fill-opacity:1;stroke-width:0.390188"
       d="M 0.49483216,4.3384423 0.77924316,7.4246217 1.4293252,7.3493491 1.3074347,5.7686235 2.7046836,4.9697064 1.713736,3.9244429 1.3074347,4.2631695 1.9451137,4.7507321 1.2668046,5.0911683 1.4293252,4.3008058 1.7949962,4.0749881 1.7385418,3.9509594 0.29168156,3.9244429 Z"
       id="path4" />
  </g>
</svg>
