<?xml version="1.0" encoding="UTF-8" standalone="no"?>
<!-- Created with Inkscape (http://www.inkscape.org/) -->

<svg
   width="212mm"
   height="100mm"
   viewBox="0 0 212 100"
   version="1.1"
   id="svg1"
   inkscape:version="1.4.2 (f4327f4, 2025-05-13)"
   sodipodi:docname="dibujo_logo1.svg"
   xmlns:inkscape="http://www.inkscape.org/namespaces/inkscape"
   xmlns:sodipodi="http://sodipodi.sourceforge.net/DTD/sodipodi-0.dtd"
   xmlns="http://www.w3.org/2000/svg"
   xmlns:svg="http://www.w3.org/2000/svg">
  <sodipodi:namedview
     id="namedview1"
     pagecolor="#ffffff"
     bordercolor="#000000"
     borderopacity="0.25"
     inkscape:showpageshadow="2"
     inkscape:pageopacity="0.0"
     inkscape:pagecheckerboard="0"
     inkscape:deskcolor="#d1d1d1"
     inkscape:document-units="mm"
     inkscape:zoom="0.88194444"
     inkscape:cx="350.3622"
     inkscape:cy="274.96063"
     inkscape:window-width="1366"
     inkscape:window-height="697"
     inkscape:window-x="-8"
     inkscape:window-y="-8"
     inkscape:window-maximized="1"
     inkscape:current-layer="layer1" />
  <defs
     id="defs1">
    <linearGradient
       id="swatch228"
       inkscape:swatch="solid">
      <stop
         style="stop-color:#029c27;stop-opacity:1;"
         offset="0"
         id="stop229" />
    </linearGradient>
  </defs>
  <g
     inkscape:label="Capa 1"
     inkscape:groupmode="layer"
     id="layer1">
    <path
       style="fill:#389b3c;fill-opacity:1;stroke-width:0.264583"
       d="M 21.79993,37.73358 C 4.9213611,68.559419 35.876007,55.457133 35.876007,55.457133 l 3.90549,-6.310873 -6.81091,1.603587 -8.49348,1.875138 -1.462321,-6.142147 3.12292,-4.539324 11.198042,-4.679658 -5.142951,-3.824753 z"
       id="path1"
       sodipodi:nodetypes="cccccccccc" />
    <path
       style="fill:#389b3c;fill-opacity:1;stroke-width:0.264583"
       d="m 41.113116,51.94175 c 0,0 44.123464,-18.243354 0,0 z"
       id="path2" />
    <path
       style="fill:#389b3c;fill-opacity:1;stroke-width:0.251684"
       d="m 59.764587,39.00982 c 0,0 18.667623,-14.97231 0,0 z"
       id="path3" />
    <path
       style="fill:#389b3c;fill-opacity:1;stroke-width:0.251684"
       d="m 42.245497,58.4568 c -1.272791,-4.22296 -0.848529,-13.82059 -0.848529,-13.82059 0,0 20.788939,2.30344 20.364677,1.15171 -0.424264,-1.15171 -0.848529,14.2045 -0.848529,14.2045 z"
       id="path8" />
    <path
       style="fill:#389b3c;fill-opacity:1;stroke-width:0.251684"
       d="M 36.0058,45.45231 66.55281,48.13965 54.249154,32.78343 c 0,0 -19.94041,8.44591 -18.243354,12.66888 z"
       id="path9" />
    <path
       style="fill:none;stroke-width:0.264583"
       d="m -21.38768,149.11892 c -7.32427,-0.65147 -12.30366,-1.2728 0,0 z"
       id="path10"
       sodipodi:nodetypes="cc" />
    <path
       style="fill:#389b3c;fill-opacity:1;stroke-width:0.196486"
       d="M 73.320665,40.570798 85.4268,38.492537 c 0,0 -0.02628,-3.013989 -0.825685,-4.040218 -0.7994,-1.026228 -11.386974,0.04309 -11.386974,0.04309 l -7.597898,5.884177 3.636725,9.139 8.581361,0.863922 -0.0252,1.457784 -2.644455,2.374507 -8.119707,-1.073551 c 0,0 0.838838,5.547211 3.024039,6.862339 2.185199,1.315129 10.611328,0.707924 11.259964,-0.446217 0.294278,-0.523618 1.312765,-1.957834 2.337758,-3.368613 1.234248,-1.698793 2.17793,-3.963604 2.17793,-3.963604 L 85.124461,49.2263 82.89802,44.988876 75.280138,43.866714 Z"
       id="path11"
       sodipodi:nodetypes="ccscccccccsssccccc" />
    <path
       style="fill:#389b3c;fill-opacity:1;stroke-width:0.251684"
       d="m 42.127121,49.586269 c 1.122486,1.613885 10.200159,4.798469 10.200159,4.798469 l 6.107356,-12.839533 -7.103264,-1.36155 z"
       id="path12" />
    <path
       style="fill:none;stroke-width:0.264583"
       d="m 155.18653,84.35424 c 0,0 -2.54558,5.09117 0,0 z"
       id="path13" />
    <path
       style="fill:none;stroke-width:0.264583"
       d="m 153.91374,85.62703 c 0,0 -9.33381,16.12204 0,0 z"
       id="path14" />
    <path
       style="fill:#389b3c;fill-opacity:1;stroke-width:0.264583"
       d="m 159.00491,76.16896 c 0,0 -0.84853,0 0,0 z"
       id="path15" />
    <path
       style="fill:#389b3c;fill-opacity:1;stroke-width:0.264583"
       d="M 160.2777,78.71454 Z"
       id="path16" />
    <path
       style="fill:#389b3c;fill-opacity:1;stroke-width:0.264583"
       d="M 160.2777,70.653526 Z"
       id="path17" />
    <path
       style="fill:#389b3c;fill-opacity:1;stroke-width:0.264583"
       d="m 161.5505,71.502055 c 0,0 -4.24264,5.939695 0,0 z"
       id="path18" />
    <path
       style="fill:#389b3c;fill-opacity:1;stroke-width:0.264583"
       d="m 145.85273,45.197683 c 0,0 -2.54559,-0.424264 0,0 z"
       id="path19" />
    <path
       style="fill:#389b3c;fill-opacity:1;stroke-width:0.264583"
       d="m 146.70125,47.319004 c 0,0 2.96985,-7.212489 0,0 z"
       id="path20" />
    <path
       style="fill:#389b3c;fill-opacity:1;stroke-width:0.264583"
       d="M 90.6,40.5 V 39 c 0,0 3.9,-4.5 9.3,-0.3 5.4,4.2 3.6,8.7 3.6,8.7 0.2,-0.68682 0.4,3.80328 0.6,11.1 H 99 l -3,-5.4 c 0,0 8.7,-5.7 2.1,0 -6.6,5.7 -6.3,4.8 -6.3,4.8 l -4.8,-6 3.6,-5.4 6,0.6 -0.3,-4.2 -4.5,0.9 z"
       id="path22"
       sodipodi:nodetypes="ccsccccsccccccc" />
    <path
       style="fill:#389b3c;fill-opacity:1;stroke-width:0.264583"
       d="m 102.3,37.5 7.2,-1.5 5.1,15 3.6,-14.7 8.1,2.7 -9.9,21.6 c 0,0 -6,0.6 -6.6,-1.5 -0.6,-2.1 -7.5,-21.6 -7.5,-21.6 z"
       id="path23" />
    <path
       style="fill:#389b3c;fill-opacity:1;stroke-width:0.264583"
       d="m 147,49.199998 c 0,0 5.7,9.600002 0,0 z"
       id="path24" />
    <path
       style="fill:#389b3c;fill-opacity:1;stroke-width:0.264583"
       d="m 141.3,39.9 c 0,0 8.1,-7.800001 0,0 z"
       id="path25" />
    <path
       style="fill:#389b3c;fill-opacity:1;stroke-width:0.264583"
       d="m 148.2,50.4 c 0,0 0.9,-12 -7.8,-10.2 -8.7,1.8 -8.4,2.099998 -8.4,2.099998 0,0 -3.6,0 -6.3,7.2 -2.7,7.200001 8.7,10.2 8.7,10.2 l 6.6,-4.499999 c 0,0 -14.26645,-4.229016 -2.7,-0.3 4.12957,1.402776 -8.1,-3.900001 -8.1,-3.900001 V 50.4 Z"
       id="path26"
       sodipodi:nodetypes="cscsccsccc" />
    <path
       style="fill:#389b3c;fill-opacity:1;stroke-width:0.257884"
       d="M 149.38125,61.2 C 150.50625,60.592 149.1,42.96 149.1,42.96 l 6.75,-4.56 9,10.336 -6.1875,2.736 7.2375,7.32 -8.08125,-0.632 c 0,0 -2.8125,-7.904 -3.09375,-6.688 -0.28125,1.216 -1.40625,9.728 -1.40625,9.728 z"
       id="path27"
       sodipodi:nodetypes="cccccccscc" />
    <path
       style="fill:none;stroke-width:0.262322"
       d="m 107.55174,133.49379 c -1.53414,1.73985 1.94132,19.42329 1.94132,19.42329 l 15.19108,-14.34476 z"
       id="path28" />
    <path
       style="fill:#389b3c;fill-opacity:1;stroke-width:0.238217"
       d="m 181.55243,47.543843 c 0,0 6.44832,-5.068491 7.91232,-3.930781 1.46401,1.137708 10.55861,1.540814 7.82007,6.887722 -2.73853,5.346905 -9.6433,3.270062 -9.6433,3.270062 l -1.65925,-1.096475 c 0,0 -4.6628,3.210029 0.50848,4.089237 5.17131,0.879211 5.27326,0.360442 5.27326,0.360442 l -0.96863,4.92831 c 0,0 -6.18369,-0.02145 -7.74966,-0.640391 -1.56597,-0.61894 -4.03418,-8.123924 -4.03418,-8.123924 z"
       id="path29"
       sodipodi:nodetypes="cssccsccscc" />
    <path
       style="fill:none;stroke-width:0.264583"
       d="m 126.3,83.4 c 0.3,7.2 1.2,8.4 0,7.5 -1.2,-0.9 -0.6,-0.9 -0.6,-0.9 0,0 -3.3,4.8 1.8,0.6 5.1,-4.2 5.7,-5.1 5.7,-5.1 0,0 -8.7,-3.3 -6.9,-2.1 z"
       id="path30" />
    <path
       style="fill:#389b3c;fill-opacity:1;stroke-width:0.348341"
       d="m 166.99626,45.6 c 0.50001,0.624 4.00003,7.8 4.00003,7.8 l 8.00007,-6.24 z"
       id="path31" />
    <path
       style="fill:none;stroke-width:0.264583"
       d="m 28.2,92.7 c 1.2,0 1.800001,15.9 1.800001,15.9 l 15.6,-9 L 31.2,89.4 32.7,103.2 38.999999,99 Z"
       id="path32" />
    <path
       style="fill:#389b3c;fill-opacity:1;stroke-width:0.268503"
       d="M 166.2,37.862687 C 166.2,40.025373 168.6,56.4 168.6,56.4 l 13.5,-10.195522 -11.4,-10.195523 0.6,4.943284 5.1,3.398507 -4.8,3.089553 0.6,-7.213433 L 171.00001,36.3 Z"
       id="path34"
       sodipodi:nodetypes="cccccccccc" />
    <path
       style="fill:#389b3c;fill-opacity:1;stroke-width:0.239082"
       d="m 159.54589,74.88019 c -0.68272,-0.95881 -5.33877,-7.92825 1.93015,-13.00457 7.26889,-5.076308 16.16315,-9.376941 16.16315,-9.376941 l -1.39815,15.473891 c 0,0 -1.99941,16.13644 -16.69515,6.90762 z"
       id="path35"
       inkscape:transform-center-x="10.124913"
       inkscape:transform-center-y="7.0733593" />
    <path
       style="fill:#389b3c;fill-opacity:1;stroke-width:0.219842"
       d="m 155.49939,81.33404 2.5121,1.4496 5.81265,-9.5078 -1.98997,-1.46985 z"
       id="path36"
       inkscape:transform-center-x="18.007525"
       inkscape:transform-center-y="19.253656" />
    <path
       style="fill:none;fill-opacity:1;stroke-width:0.264583"
       d="m 58.2,124.2 c 7.5,-4.5 0.599998,-8.7 0.599998,-8.7 0,0 -12.899999,-2.4 -17.699999,4.5 -5.694919,8.18645 2.400002,18 2.400002,18 4.732762,8.03276 16.609692,6.66311 16.499999,0 -0.107154,-6.50889 -10.500002,-3 -10.500002,-3 0,0 -1.799997,-2.7 3e-6,-7.5 C 51.299998,122.7 58.2,124.2 58.2,124.2 Z"
       id="path255"
       sodipodi:nodetypes="ccscscsc" />
  </g>
</svg>
