<?xml version="1.0" encoding="UTF-8"?>
<!-- Created with Inkscape (http://www.inkscape.org/) -->
<svg width="148mm" height="105mm" version="1.1" viewBox="0 0 148 105" xmlns="http://www.w3.org/2000/svg">
 <g fill="#008000">
  <path d="m20.577 32.668c0 12.092-0.21213 11.879-0.21213 11.879l2.9698-0.21213v-4.879l5.9397-0.21213-0.21213-2.1213-5.3033-0.21213v-1.4849l5.0912-0.21213-0.21213-2.5456z" stroke-width=".26458"/>
  <path d="m30.57 40.341c-1.7464-8.0958 9.7942-8.7343 9.7942-8.7343s1.2687 12.263-4.1349 12.738c-5.4036 0.47573-5.6592-4.004-5.6592-4.004z" stroke-width=".23802"/>
  <path d="m32.403 41.123-4.9728 4.0369 1.4747 1.6225 4.9728-4.0369z" stroke-width=".23802"/>
  <path d="m41.993 36.048-1.3532 7.9415 2.8255 0.13379 0.05291-4.4895 3.4414 4.8773 3.7273 0.41368-4.2529-5.6867s4.9598-1.2477 4.9975-2.8618c0.03768-1.6142-0.44307-4.3647-3.7044-4.7267-3.2614-0.36197-5.1759 0.64247-5.1759 0.64247z" stroke-width=".25527"/>
  <path d="m98.03 34.828-1.8531 7.8399 2.8114 0.31233 0.33692-4.4772 3.1258 5.0853 3.6936 0.64873-3.8845-5.9444s5.0288-0.9313 5.1686-2.5398c0.13977-1.6085-0.16597-4.384-3.3979-4.9517-3.2319-0.56764-6.1062-0.43637-6.1062-0.43637z" stroke-width=".25527"/>
  <path d="m52.356 32.167-0.21213 12.092h3.3941l0.21213-6.5761 2.5456 3.6062h1.2728l1.4849-2.9698 0.42426 6.1518 2.7577-0.42426-0.42426-12.304-4.2426-0.21213-0.84853 4.0305" stroke-width=".26458"/>
  <path d="m66.9 32.25s-0.75 13.95 6 11.85c6.75-2.1 4.5-11.85 4.5-11.85l-2.85 0.15s1.35 9.15-1.35 8.85c-2.7-0.3-2.7-8.4-2.7-8.4z" stroke-width=".26458"/>
  <path d="m79.05 32.301 0.45818 12.099 7.9418-0.52606-0.30546-2.6303-5.3455-0.17535 0.15272-9.1183z" stroke-width=".28866"/>
  <path d="m85.95 33.45c0.3 7.05 0.3 7.05 0.3 7.05l7.8 0.3-0.6-6.45 3.6 0.15-6.75-7.2-7.65 5.85z" stroke-width=".26458"/>
  <path d="m107.25 37.5 0.75 6.9h2.55l-0.45-11.85z" stroke-width=".26458"/>
  <text transform="scale(.96479 1.0365)" x="114.62701" y="43.560345" font-size="24.506px" stroke-width=".25527" style="line-height:1.4" xml:space="preserve"><tspan x="114.62701" y="43.560345" font-family="'Bauhaus 93'" font-size="24.506px" stroke-width=".25527" style="line-height:1.4">o</tspan></text>
 </g>
</svg>
